<?xml version="1.0" encoding="utf-8"?>
<!-- Generator: Adobe Illustrator 16.0.0, SVG Export Plug-In . SVG Version: 6.00 Build 0)  -->
<!DOCTYPE svg PUBLIC "-//W3C//DTD SVG 1.1//EN" "http://www.w3.org/Graphics/SVG/1.1/DTD/svg11.dtd">
<svg version="1.1" xmlns="http://www.w3.org/2000/svg" xmlns:xlink="http://www.w3.org/1999/xlink" x="0px" y="0px"
	 width="595.28px" height="841.89px" viewBox="0 0 595.28 841.89" enable-background="new 0 0 595.28 841.89" xml:space="preserve">
<g id="圖層_8">
	<g>
		<polygon fill="#999999" points="526.9,249.11 561.908,250.193 561.908,292.7 114.092,486.459 173.419,519.686 33.373,495.134 
			33.373,456.256 		"/>
		<polygon fill="#ffffff" points="278.456,610.957 33.373,516.894 33.373,456.256 195.3,515.949 195.3,212.126 278.456,167.027 		
			"/>
		<path fill="#ffffff" d="M374.813,636.883c-22.063,17.558-60.282,34.744-60.282,34.744V119.256l247.377,95.036V292.7
			L397.69,228.074v350.671C397.69,578.745,399.827,616.972,374.813,636.883z"/>
		<path fill="#ffffff" d="M277.932,139.818l-83.152,45.104V120.94c0,0-1.022-19.555,16.317-30.517
			c23.701-14.982,66.834-27.579,66.834-27.579V139.818z"/>
	</g>
</g>
<g id="圖層_13">
	<g>
		<path fill="#ffffff" d="M104.61,697.737v-2.538h19.08v45.512c0,6.36-1.737,11.524-5.208,15.491
			c-3.472,3.969-8.008,5.951-13.61,5.951h-0.875c-4.669,0-8.958-1.662-12.866-4.988v-3.589c3.676,4.026,8.081,6.039,13.216,6.039
			c5.134,0,9.16-1.735,12.078-5.207c2.917-3.471,4.376-7.921,4.376-13.348v-43.323H104.61z"/>
		<path fill="#ffffff" d="M138.305,760.841h-2.801v-65.554h2.801v33.783c2.917-5.718,7.964-8.577,15.141-8.577
			c4.901,0,9.028,1.693,12.384,5.076c3.354,3.385,5.033,7.498,5.033,12.341v22.931h-2.801V737.91c0-4.083-1.431-7.6-4.289-10.547
			c-2.86-2.945-6.302-4.419-10.328-4.419s-7.557,1.487-10.59,4.463c-3.035,2.976-4.551,6.477-4.551,10.503V760.841z"/>
		<path fill="#ffffff" d="M212.173,721.456h2.801v39.385h-2.801v-7.965c-2.976,5.952-8.052,8.928-15.229,8.928
			c-4.901,0-9.015-1.691-12.341-5.076c-3.326-3.384-4.989-7.497-4.989-12.341v-22.931h2.801v22.931
			c0,4.026,1.414,7.527,4.245,10.503c2.83,2.976,6.258,4.463,10.284,4.463c4.026,0,7.57-1.487,10.634-4.463
			c3.063-2.976,4.595-6.477,4.595-10.503V721.456z"/>
		<path fill="#ffffff" d="M263.898,721.456v39.385h-2.801v-9.803c-1.634,3.326-4.085,5.952-7.352,7.877
			c-3.268,1.926-6.769,2.889-10.502,2.889c-5.719,0-10.62-2.026-14.704-6.083c-4.085-4.055-6.126-8.912-6.126-14.572
			c0-5.659,2.042-10.517,6.126-14.572c4.083-4.055,8.984-6.083,14.704-6.083c3.733,0,7.308,0.993,10.721,2.976
			c3.414,1.984,5.79,4.61,7.133,7.877v-9.89H263.898z M225.213,741.236c0,4.9,1.794,9.146,5.383,12.734
			c3.588,3.588,7.847,5.382,12.778,5.382c4.93,0,9.146-1.794,12.647-5.382c3.5-3.589,5.251-7.848,5.251-12.778
			c0-4.93-1.765-9.204-5.295-12.822c-3.531-3.617-7.746-5.426-12.647-5.426s-9.146,1.824-12.734,5.47
			C227.008,732.062,225.213,736.335,225.213,741.236z"/>
		<path fill="#ffffff" d="M277.2,760.841h-2.801v-39.385h2.801v7.965c2.976-5.952,8.052-8.928,15.229-8.928
			c4.901,0,9.015,1.693,12.341,5.076c3.325,3.385,4.988,7.498,4.988,12.341v22.931h-2.801V737.91c0-4.026-1.415-7.527-4.244-10.503
			c-2.831-2.976-6.258-4.463-10.284-4.463c-4.026,0-7.571,1.487-10.634,4.463c-3.063,2.976-4.595,6.477-4.595,10.503V760.841z"/>
		<path fill="#ffffff" d="M356.844,721.456h2.801v35.709c0,6.768-1.867,12.106-5.601,16.017c-3.735,3.908-8.637,5.863-14.704,5.863
			c-3.326,0-6.564-0.759-9.715-2.275c-3.15-1.518-5.602-3.501-7.352-5.951v-4.026c1.517,2.801,3.895,5.134,7.133,7.002
			c3.238,1.867,6.549,2.801,9.934,2.801c5.134,0,9.335-1.736,12.604-5.208c3.267-3.472,4.9-8.213,4.9-14.222v-5.864
			c-1.575,3.21-4.056,5.776-7.438,7.702c-3.385,1.926-6.886,2.888-10.503,2.888c-5.719,0-10.62-2.026-14.704-6.082
			c-4.084-4.055-6.126-8.912-6.126-14.572c0-5.659,2.042-10.517,6.126-14.573c4.084-4.055,8.985-6.082,14.704-6.082
			c3.792,0,7.337,0.949,10.634,2.844c3.296,1.897,5.732,4.508,7.308,7.834V721.456z M320.873,741.236
			c0,4.96,1.794,9.233,5.382,12.821c3.589,3.589,7.848,5.383,12.778,5.383s9.146-1.794,12.647-5.383
			c3.501-3.588,5.251-7.861,5.251-12.821c0-4.959-1.75-9.234-5.251-12.822c-3.501-3.589-7.717-5.383-12.647-5.383
			s-9.189,1.794-12.778,5.383C322.667,732.002,320.873,736.277,320.873,741.236z"/>
		<path fill="#ffffff" d="M371.372,695.199h2.889c6.067,0,11.231,2.087,15.491,6.258c4.258,4.173,6.389,9.089,6.389,14.748
			c0,5.66-2.203,10.532-6.607,14.616c-4.406,4.084-9.264,6.126-14.572,6.126h-0.7v23.894h-2.889V695.199z M374.261,734.497h0.7
			c4.9,0,9.175-1.809,12.821-5.427c3.646-3.617,5.471-7.905,5.471-12.865c0-4.959-1.854-9.277-5.558-12.954
			c-3.706-3.676-7.951-5.514-12.734-5.514h-0.7V734.497z"/>
		<path fill="#ffffff" d="M406.817,711.916c-1.692,0-2.538-0.787-2.538-2.363c0-1.575,0.846-2.363,2.538-2.363
			s2.538,0.788,2.538,2.363C409.355,711.129,408.51,711.916,406.817,711.916z M408.218,721.544v39.297h-2.801v-39.297H408.218z"/>
		<path fill="#ffffff" d="M422.658,760.841h-2.801v-39.385h2.801v7.965c2.976-5.952,8.053-8.928,15.229-8.928
			c4.9,0,9.015,1.693,12.34,5.076c3.326,3.385,4.989,7.498,4.989,12.341v22.931h-2.801V737.91c0-4.026-1.416-7.527-4.245-10.503
			c-2.831-2.976-6.258-4.463-10.283-4.463c-4.026,0-7.571,1.487-10.635,4.463c-3.063,2.976-4.595,6.477-4.595,10.503V760.841z"/>
		<path fill="#ffffff" d="M502.302,721.456h2.801v35.709c0,6.768-1.867,12.106-5.601,16.017c-3.735,3.908-8.637,5.863-14.704,5.863
			c-3.326,0-6.564-0.759-9.715-2.275c-3.15-1.518-5.602-3.501-7.352-5.951v-4.026c1.517,2.801,3.895,5.134,7.133,7.002
			c3.238,1.867,6.549,2.801,9.934,2.801c5.134,0,9.335-1.736,12.604-5.208c3.267-3.472,4.9-8.213,4.9-14.222v-5.864
			c-1.575,3.21-4.056,5.776-7.438,7.702c-3.385,1.926-6.886,2.888-10.503,2.888c-5.719,0-10.62-2.026-14.704-6.082
			c-4.084-4.055-6.126-8.912-6.126-14.572c0-5.659,2.042-10.517,6.126-14.573c4.084-4.055,8.985-6.082,14.704-6.082
			c3.792,0,7.337,0.949,10.634,2.844c3.296,1.897,5.732,4.508,7.308,7.834V721.456z M466.331,741.236
			c0,4.96,1.794,9.233,5.382,12.821c3.589,3.589,7.848,5.383,12.778,5.383s9.146-1.794,12.647-5.383
			c3.501-3.588,5.251-7.861,5.251-12.821c0-4.959-1.75-9.234-5.251-12.822c-3.501-3.589-7.717-5.383-12.647-5.383
			s-9.189,1.794-12.778,5.383C468.125,732.002,466.331,736.277,466.331,741.236z"/>
	</g>
</g>
</svg>
