<?xml version="1.0" encoding="utf-8"?>
<!-- Generator: Adobe Illustrator 16.0.0, SVG Export Plug-In . SVG Version: 6.00 Build 0)  -->
<!DOCTYPE svg PUBLIC "-//W3C//DTD SVG 1.1//EN" "http://www.w3.org/Graphics/SVG/1.1/DTD/svg11.dtd">
<svg version="1.1" xmlns="http://www.w3.org/2000/svg" xmlns:xlink="http://www.w3.org/1999/xlink" x="0px" y="0px"
	 width="511.474px" height="307.484px" viewBox="0 0 511.474 307.484" enable-background="new 0 0 511.474 307.484"
	 xml:space="preserve">
<g id="Lin" display="none">
	<circle display="inline" cx="263.481" cy="201.478" r="293.256"/>
	<g display="inline">
		<g>
			<path fill="#FFFFFF" d="M258.182,180.404c0.043-0.426,0.063-0.856,0.063-1.294c0-0.441-0.023-0.878-0.064-1.308l-0.002-0.839
				h-0.127c-1.022-5.957-6.195-10.492-12.442-10.492c-6.248,0-11.422,4.535-12.443,10.492h-0.127v0.834
				c-0.045,0.432-0.068,0.869-0.068,1.313s0.023,0.881,0.068,1.313v63.557H126.88c-3.714,0-5.568-1.854-5.568-5.568V54.65
				c0-9.745-4.297-14.617-12.878-14.617c-8.353,0-12.529,4.873-12.529,14.617v199.423c0,9.973,5.221,14.966,15.662,14.966H243.47
				c9.973,0,14.964-4.178,14.964-12.531c0-0.92-0.07-1.781-0.193-2.602L258.182,180.404z"/>
			<circle fill="#FFFFFF" cx="245.609" cy="133.446" r="17.489"/>
			<path fill="#FFFFFF" d="M411.569,129.478c-12.529-11.834-27.963-17.75-46.289-17.75c-21.578,0-49.529,2.643-63.451,19.577
				c0,0-14.855,16.682-14.855,43.482v84.508c0,9.972,4.754,14.965,14.27,14.965c7.189,0,10.787-4.993,10.787-14.965v-81.788
				c0-9.049,2.074-22.237,12.051-30.823c11.139-9.512,26.811-9.897,41.199-9.897c10.902,0,20.414,3.479,28.539,10.44
				c8.119,7.195,12.18,16.13,12.18,26.798v85.27c0,9.972,4.178,14.965,12.531,14.965c8.352,0,12.527-4.993,12.527-14.965v-85.27
				C431.057,155.927,424.559,141.081,411.569,129.478z"/>
		</g>
		<text transform="matrix(1 0 0 1 146.835 352.9268)" fill="#FFFFFF" font-family="'DFTanKai-W5-WINP-BF'" font-size="50.1555">WEN-CHENG</text>
	</g>
</g>
<g id="圖層_4" display="none">
	<circle display="inline" cx="257.26" cy="154.855" r="293.256"/>
	<g display="inline">
		<g>
			<path fill="#FFFFFF" d="M96.437,14.58c-5.128,0-7.692,3.064-7.692,9.188v105.348c0,10.545-2.564,18.734-7.693,24.574
				c-5.699,6.271-13.676,9.402-23.933,9.402c-7.837,0-14.818-2.277-20.941-6.838c-5.983-4.558-9.76-11.465-11.326-20.727
				c-0.57-4.131-2.637-6.197-6.196-6.197c-5.272,0-7.907,3.136-7.907,9.402c0,10.257,4.345,19.446,13.036,27.565
				c8.83,8.262,20.227,12.395,34.189,12.395c15.099,0,26.711-4.631,34.831-13.889c7.692-8.689,11.539-20.585,11.539-35.687V23.768
				C104.343,17.644,101.705,14.58,96.437,14.58z"/>
			<path fill="#FFFFFF" d="M499.401,88.487c-5.436-12.936-18.219-22.021-33.131-22.021c-19.842,0-35.926,16.085-35.926,35.925
				c0,19.841,16.084,35.926,35.926,35.926c8.258,0,15.838-2.814,21.904-7.495v26.864c0,10.545-2.564,18.732-7.693,24.572
				c-5.699,6.271-13.676,9.4-23.932,9.4c-7.836,0-14.818-2.275-20.941-6.836c-5.006-3.814-8.447-9.295-10.361-16.4V111.34
				c0-13.107-3.273-23.72-9.828-31.839c-7.264-8.688-17.309-13.035-30.129-13.035c-19.063,0-30.879,4.854-38.973,14.54
				c-0.367-0.501-0.707-1.022-1.098-1.505c-7.264-8.688-17.307-13.035-30.129-13.035c-20.15,0-32.211,5.415-40.332,16.24
				c0,0-2.939,4.77-4.295,14.441c-0.541,1.376-0.842,3.046-0.842,5.083v62.824c0,4.701,1.031,14.139-5.234,19.979
				c-7.127,6.555-18.271,5.664-25.112,5.664c-7.836,0-13.888-2.566-18.161-7.693c-2.674-3.15-4.43-7.02-5.312-11.574
				c0.022-0.391,0.063-0.76,0.063-1.178v-64.748c0-11.112-3.492-20.441-10.47-27.994c-6.838-7.549-15.673-11.325-26.497-11.325
				c-12.538,0-22.795,5.7-30.771,17.095V25.371c0-6.123-2.564-9.188-7.692-9.188c-5.272,0-7.907,3.064-7.907,9.188v144.881
				c0,6.266,2.635,9.4,7.907,9.4c5.128,0,7.692-3.135,7.692-9.4v-59.193c0-5.555,3.846-12.394,11.539-20.514
				c5.556-5.84,11.608-8.761,18.163-8.761c6.552,0,11.967,2.28,16.24,6.838c3.011,3.213,4.938,6.966,5.827,11.236
				c-0.095,0.736-0.151,1.52-0.151,2.372v59.193c0,3.738,0.298,7.254,0.831,10.586c0.083,0.92,0.227,1.768,0.447,2.521
				c1.506,7.266,4.344,13.52,8.552,18.73c7.264,8.688,17.307,13.033,30.129,13.033c20.151,0,32.211-5.414,40.333-16.238
				c0,0,2.939-4.771,4.295-14.443c0.541-1.375,0.842-3.045,0.842-5.08v-25.585l37.346-0.001c2.143,0,3.217-2.634,3.217-7.906
				c0-5.128-1.072-7.693-3.219-7.693h-37.344v-21.639c0-4.701-1.031-14.141,5.236-19.979c7.125-6.555,18.27-5.664,25.109-5.664
				c7.836,0,13.887,2.564,18.162,7.693c3.99,4.701,5.984,10.968,5.984,18.805v61.97c0,6.264,2.563,9.4,7.691,9.4
				c0.057,0,0.105-0.012,0.16-0.014c0.057,0.002,0.105,0.014,0.162,0.014c5.129,0,7.695-3.137,7.695-9.4v-62.825
				c0-4.701-1.035-14.141,5.236-19.979c7.123-6.555,18.268-5.664,25.105-5.664c7.836,0,13.891,2.564,18.162,7.693
				c3.992,4.701,5.984,10.968,5.984,18.805v61.97c0,3.123,0.639,5.469,1.914,7.035c1.969,6.219,5.756,11.992,11.436,17.297
				c8.83,8.262,20.227,12.395,34.189,12.395c15.098,0,26.711-4.633,34.83-13.891c7.693-8.688,11.541-20.582,11.541-35.684v-55.355
				C502.94,96.26,501.42,91.573,499.401,88.487z M466.27,122.325c-11.008,0-19.934-8.925-19.934-19.934
				c0-11.008,8.926-19.933,19.934-19.933s19.934,8.925,19.934,19.933C486.204,113.4,477.278,122.325,466.27,122.325z"/>
		</g>
		<text transform="matrix(1 0 0 1 181.5278 285.1357)" fill="#FFFFFF" font-family="'DFTanKai-W5-WINP-BF'" font-size="50.1555">BING-YI</text>
	</g>
</g>
<g id="圖層_4_拷貝">
	<g>
		<path fill="#ECC463" d="M94.474,14.58c-5.128,0-7.692,3.064-7.692,9.188v105.348c0,10.545-2.564,18.734-7.693,24.574
			c-5.699,6.271-13.676,9.402-23.933,9.402c-7.837,0-14.818-2.277-20.941-6.838c-5.983-4.558-9.76-11.465-11.326-20.727
			c-0.57-4.131-2.637-6.197-6.196-6.197c-5.272,0-7.907,3.136-7.907,9.402c0,10.257,4.345,19.446,13.036,27.565
			c8.83,8.262,20.227,12.395,34.189,12.395c15.099,0,26.711-4.631,34.831-13.889c7.692-8.689,11.539-20.585,11.539-35.687V23.768
			C102.38,17.644,99.742,14.58,94.474,14.58z"/>
		<path fill="#ECC463" d="M497.438,88.487c-5.436-12.936-18.219-22.021-33.131-22.021c-19.842,0-35.926,16.085-35.926,35.925
			c0,19.841,16.084,35.926,35.926,35.926c8.258,0,15.838-2.814,21.904-7.495v26.864c0,10.545-2.564,18.732-7.693,24.572
			c-5.699,6.271-13.676,9.4-23.932,9.4c-7.836,0-14.818-2.275-20.941-6.836c-5.006-3.814-8.447-9.295-10.361-16.4V111.34
			c0-13.107-3.273-23.72-9.828-31.839c-7.264-8.688-17.309-13.035-30.129-13.035c-19.063,0-30.879,4.854-38.973,14.54
			c-0.367-0.501-0.707-1.022-1.098-1.505c-7.264-8.688-17.307-13.035-30.129-13.035c-20.15,0-32.211,5.415-40.332,16.24
			c0,0-2.939,4.77-4.295,14.441c-0.541,1.376-0.842,3.046-0.842,5.083v62.824c0,4.701,1.031,14.139-5.234,19.979
			c-7.127,6.555-18.271,5.664-25.112,5.664c-7.836,0-13.888-2.566-18.161-7.693c-2.674-3.15-4.43-7.02-5.312-11.574
			c0.022-0.391,0.063-0.76,0.063-1.178v-64.748c0-11.112-3.492-20.441-10.47-27.994c-6.838-7.549-15.673-11.325-26.497-11.325
			c-12.538,0-22.795,5.7-30.771,17.095V25.371c0-6.123-2.564-9.188-7.692-9.188c-5.272,0-7.907,3.064-7.907,9.188v144.881
			c0,6.266,2.635,9.4,7.907,9.4c5.128,0,7.692-3.135,7.692-9.4v-59.193c0-5.555,3.846-12.394,11.539-20.514
			c5.556-5.84,11.608-8.761,18.163-8.761c6.552,0,11.967,2.28,16.24,6.838c3.011,3.213,4.938,6.966,5.827,11.236
			c-0.095,0.736-0.151,1.52-0.151,2.372v59.193c0,3.738,0.298,7.254,0.831,10.586c0.083,0.92,0.227,1.768,0.447,2.521
			c1.506,7.266,4.344,13.52,8.552,18.73c7.264,8.688,17.307,13.033,30.129,13.033c20.151,0,32.211-5.414,40.333-16.238
			c0,0,2.939-4.771,4.295-14.443c0.541-1.375,0.842-3.045,0.842-5.08v-25.585l37.346-0.001c2.143,0,3.217-2.634,3.217-7.906
			c0-5.128-1.072-7.693-3.219-7.693h-37.344v-21.639c0-4.701-1.031-14.141,5.236-19.979c7.125-6.555,18.27-5.664,25.109-5.664
			c7.836,0,13.887,2.564,18.162,7.693c3.99,4.701,5.984,10.968,5.984,18.805v61.97c0,6.264,2.563,9.4,7.691,9.4
			c0.057,0,0.105-0.012,0.16-0.014c0.057,0.002,0.105,0.014,0.162,0.014c5.129,0,7.695-3.137,7.695-9.4v-62.825
			c0-4.701-1.035-14.141,5.236-19.979c7.123-6.555,18.268-5.664,25.105-5.664c7.836,0,13.891,2.564,18.162,7.693
			c3.992,4.701,5.984,10.968,5.984,18.805v61.97c0,3.123,0.639,5.469,1.914,7.035c1.969,6.219,5.756,11.992,11.436,17.297
			c8.83,8.262,20.227,12.395,34.189,12.395c15.098,0,26.711-4.633,34.83-13.891c7.693-8.688,11.541-20.582,11.541-35.684v-55.355
			C500.977,96.26,499.458,91.573,497.438,88.487z M464.307,122.325c-11.008,0-19.934-8.925-19.934-19.934
			c0-11.008,8.926-19.933,19.934-19.933s19.934,8.925,19.934,19.933C484.241,113.4,475.315,122.325,464.307,122.325z"/>
	</g>
	<g>
		<path fill="#ECC463" d="M208.975,285.136v-35.902h13.543c2.383,0,4.204,0.114,5.461,0.343c1.763,0.294,3.241,0.854,4.433,1.678
			s2.151,1.979,2.878,3.465c0.726,1.486,1.09,3.119,1.09,4.898c0,3.053-0.972,5.637-2.915,7.751s-5.453,3.172-10.531,3.172h-9.208
			v14.596H208.975z M213.726,266.303h9.282c3.069,0,5.249-0.571,6.539-1.714c1.29-1.143,1.935-2.751,1.935-4.825
			c0-1.502-0.38-2.787-1.139-3.856s-1.759-1.775-3-2.119c-0.8-0.212-2.277-0.318-4.433-0.318h-9.184V266.303z"/>
		<path fill="#ECC463" d="M241.889,254.303v-5.069h4.408v5.069H241.889z M241.889,285.136v-26.009h4.408v26.009H241.889z"/>
		<path fill="#ECC463" d="M253.007,285.136v-26.009h3.967v3.698c1.911-2.856,4.669-4.285,8.278-4.285
			c1.567,0,3.008,0.281,4.322,0.845s2.298,1.302,2.951,2.216c0.652,0.915,1.109,2,1.371,3.258c0.164,0.816,0.245,2.245,0.245,4.285
			v15.992h-4.408v-15.82c0-1.796-0.171-3.139-0.515-4.029c-0.342-0.89-0.951-1.6-1.824-2.13s-1.898-0.796-3.073-0.796
			c-1.878,0-3.499,0.596-4.861,1.787c-1.363,1.192-2.045,3.453-2.045,6.784v14.204H253.007z"/>
		<path fill="#ECC463" d="M280.093,287.291l4.286,0.637c0.18,1.322,0.677,2.285,1.494,2.89c1.093,0.816,2.587,1.225,4.48,1.225
			c2.041,0,3.617-0.408,4.727-1.225c1.111-0.816,1.861-1.959,2.254-3.429c0.229-0.897,0.334-2.783,0.318-5.657
			c-1.927,2.27-4.327,3.404-7.2,3.404c-3.575,0-6.343-1.29-8.302-3.869c-1.96-2.58-2.939-5.674-2.939-9.282
			c0-2.481,0.449-4.771,1.348-6.869c0.896-2.098,2.199-3.719,3.906-4.861c1.705-1.143,3.709-1.714,6.012-1.714
			c3.069,0,5.6,1.24,7.592,3.722v-3.135h4.065v22.482c0,4.049-0.413,6.918-1.237,8.608c-0.824,1.689-2.131,3.024-3.918,4.004
			s-3.988,1.47-6.6,1.47c-3.103,0-5.608-0.698-7.52-2.095C280.95,292.201,280.028,290.099,280.093,287.291z M283.743,271.666
			c0,3.413,0.677,5.902,2.032,7.47c1.354,1.567,3.053,2.351,5.094,2.351c2.024,0,3.723-0.779,5.095-2.339
			c1.371-1.559,2.057-4.004,2.057-7.334c0-3.184-0.707-5.584-2.119-7.2s-3.113-2.425-5.105-2.425c-1.959,0-3.625,0.796-4.996,2.388
			S283.743,268.531,283.743,271.666z"/>
	</g>
</g>
</svg>
