<?xml version="1.0" encoding="utf-8"?>
<!-- Generator: Adobe Illustrator 16.0.0, SVG Export Plug-In . SVG Version: 6.00 Build 0)  -->
<!DOCTYPE svg PUBLIC "-//W3C//DTD SVG 1.1//EN" "http://www.w3.org/Graphics/SVG/1.1/DTD/svg11.dtd">
<svg version="1.1" xmlns="http://www.w3.org/2000/svg" xmlns:xlink="http://www.w3.org/1999/xlink" x="0px" y="0px" width="1920px" height="1080px" viewBox="0 0 1920 1080" enable-background="new 0 0 1920 1080" xml:space="preserve">
<g id="圖層_3">
	<g>
		<path fill-rule="evenodd" clip-rule="evenodd" fill="#333" d="M1210.706,615.867c0,1.021,0,2.043,0,3.063
			c-5.43,6.954-10.781,13.972-16.317,20.837c-3.16,3.917-3.912,8.093-2.652,12.887c2.064,7.873,4.083,15.763,5.85,23.707
			c0.335,1.51-0.078,3.737-1.039,4.894c-4.893,5.882-10.001,11.597-15.234,17.179c-0.957,1.022-2.912,1.773-4.293,1.622
			c-8.437-0.931-16.817-2.663-25.266-3.046c-3.635-0.167-8.074,1.391-10.945,3.677c-6.094,4.854-11.478,10.62-16.99,16.176
			c-2.331,2.351-4.41,3.554-7.99,2.427c-4.83-1.517-9.897-2.746-14.926-3.05c-6.577-0.394-10.27-3.451-11.594-9.638
			c-0.796-3.708-3.068-4.019-6.362-3.763c-10.171,0.789-20.365,1.289-30.557,1.817c-28.871,1.489-57.75,2.897-86.621,4.413
			c-36.005,1.889-72.005,3.89-108.01,5.776c-29.043,1.521-58.107,2.689-87.133,4.486c-26.188,1.623-50.249-16.236-55.146-41.619
			c-5.129-26.599,10.284-52.6,35.702-60.546c26.542-8.295,53.031-16.758,79.535-25.174c1.391-0.441,2.704-1.125,4.392-1.839
			c-21.617-15.308-28.892-35.604-22.611-61.454c-2.12,0.801-3.646,1.331-5.137,1.95c-15.664,6.517-31.263,13.199-46.999,19.544
			c-29.033,11.703-61.231-3.868-69.943-33.797c-1.313-4.517-1.813-9.268-2.69-13.91c0-0.341,0-0.682,0-1.022
			c0.309-1.464,0.773-2.914,0.896-4.393c1.092-13.218,2.156-26.436,3.163-39.659c2.493-32.719,4.516-65.482,7.642-98.139
			c1.202-12.554,0.891-24.356-5.702-35.248c-4.086-6.747-2.67-11.692,2.373-17.383c7.749-8.739,7.363-15.375,0.149-24.707
			c-1.249-1.616-2.331-3.404-3.79-4.801c-2.383-2.281-2.128-4.438-0.85-7.242c2.811-6.173,5.812-12.354,7.672-18.838
			c2.293-7.99,6.732-11.125,15.121-11.355c10.356-0.286,15.038-5.577,16.521-15.92c0.336-2.353,0.702-4.711,0.851-7.079
			c0.187-2.994,1.281-4.908,4.362-6.029c6.214-2.26,12.601-4.383,18.304-7.633c7.743-4.413,13.607-3.486,20.13,2.633
			c7.396,6.938,14.465,6.391,22.577,0.02c2.006-1.577,3.833-3.532,6.084-4.601c1.85-0.875,4.444-1.438,6.283-0.836
			c5.305,1.735,10.23,4.8,15.604,6.123c11.141,2.743,16.05,9.305,15.81,20.744c-0.123,5.774,7.101,11.575,12.835,11.899
			c21.053,1.185,42.101,2.486,63.154,3.726c17.453,1.027,34.91,2.026,52.924,3.07c0.356-2.694,0.798-5.156,0.982-7.64
			c0.265-3.555,1.573-5.607,5.44-6.682c8.813-2.445,17.481-5.455,26.11-8.514c3.049-1.08,4.871-0.376,6.983,1.92
			c7.604,8.264,15.406,16.343,23.188,24.44c3.95,4.107,13.925,4.021,17.807-0.076c7.722-8.155,15.535-16.229,23.079-24.546
			c2.199-2.424,4.174-2.729,7.069-1.729c8.813,3.042,17.655,6.019,26.577,8.719c3.059,0.927,4.269,2.308,4.611,5.576
			c1.171,11.144,2.703,22.255,4.224,33.358c0.738,5.383,9.265,11.416,14.499,10.448c11.016-2.037,22.039-4.035,33.034-6.181
			c2.999-0.583,4.968,0.006,6.827,2.703c5.404,7.836,11.077,15.491,16.805,23.097c1.654,2.198,1.776,3.862,0.389,6.315
			c-5.603,9.902-10.966,19.942-16.381,29.952c-1.822,3.366,0.048,14.292,3.239,15.841c12.027,5.831,24.238,11.284,36.38,16.877
			c0,12.6,0,25.196,0,37.796c-11.221,5.153-22.456,10.27-33.655,15.475c-5.678,2.643-8.699,12.117-5.7,17.662
			c5.89,10.894,11.812,21.771,17.807,32.812c-4.345,5.99-8.457,12.041-12.995,17.755c-2.61,3.288-3.49,6.66-3.313,10.768
			c1.125,26.167,2.043,52.344,3.239,78.508c0.063,1.397,1.786,3.456,3.174,3.931c6.086,2.081,12.295,3.866,18.543,5.405
			c3.166,0.775,4.799,2.305,5.769,5.451C1205.712,602.203,1208.302,609.006,1210.706,615.867z M1155.35,500.693
			c-8.122-1.501-16.083-3.026-24.068-4.434c-6.518-1.15-14.578,4.593-15.432,10.984c-1.459,10.944-2.99,21.883-4.148,32.862
			c-0.324,3.062-1.438,4.408-4.277,5.284c-9.075,2.795-18.108,5.75-27.082,8.863c-2.999,1.041-4.872,0.419-7.005-1.924
			c-7.446-8.18-15.143-16.131-22.748-24.167c-4.169-4.4-13.985-4.536-18.16-0.182c-7.773,8.11-15.589,16.184-23.172,24.468
			c-2.185,2.388-4.082,2.747-7.04,1.705c-8.636-3.044-17.304-6.045-26.114-8.515c-3.655-1.021-4.797-2.996-5.202-6.299
			c-1.349-10.958-2.832-21.9-4.212-32.857c-0.623-4.97-8.975-11.357-13.865-10.457c-11.016,2.03-22.037,4.026-33.026,6.197
			c-3.379,0.667-5.59-0.02-7.652-3.063c-5.15-7.599-10.6-15.007-16.189-22.292c-1.986-2.585-1.936-4.52-0.386-7.259
			c5.443-9.607,10.628-19.357,15.892-29.063c2.928-5.403-0.207-14.992-5.798-17.669c-9.956-4.767-19.891-9.586-29.928-14.177
			c-2.817-1.288-4.112-2.79-4.029-6.074c0.233-9.357,0.236-18.726-0.001-28.081c-0.084-3.304,1.252-4.771,4.055-6.056
			c10.185-4.671,20.275-9.552,30.374-14.414c4.976-2.397,8.129-12.157,5.523-16.981c-5.41-10.013-10.79-20.043-16.345-29.975
			c-1.344-2.405-1.343-4.117,0.38-6.385c5.653-7.45,11.226-14.979,16.468-22.719c2.073-3.059,4.326-3.742,7.668-3.064
			c9.81,1.986,19.637,3.887,29.481,5.688c2.418,0.44,5.261,1.208,7.341,0.389c8.108-3.201,10.897-8.219,10.438-17.636
			c-30.464-1.81-60.971-3.619-92.095-5.467c0.731,2.188,0.921,3.791,1.723,4.983c5.146,7.656,3.671,13.872-2.584,20.529
			c-6.677,7.109-6.094,14.424,0.006,22.256c1.672,2.146,3.666,4.136,4.876,6.521c0.849,1.671,1.342,4.152,0.741,5.818
			c-2.418,6.699-6.022,13.032-7.865,19.857c-2.161,8.002-6.753,10.757-14.685,11.316c-11.634,0.823-16.089,5.951-17.261,17.565
			c-0.172,1.692-0.41,3.381-0.473,5.075c-0.121,3.403-1.656,5.345-5.008,6.55c-6.06,2.179-12.2,4.396-17.806,7.502
			c-7.303,4.043-12.876,3.46-19.21-2.419c-7.784-7.228-15.125-6.705-23.477-0.224c-1.882,1.46-3.922,2.765-5.593,4.437
			c-2.169,2.17-4.194,1.973-6.806,0.815c-6.825-3.026-13.624-6.253-20.723-8.489c-6.574-2.071-10.017-5.493-9.398-12.625
			c0.187-2.147-0.515-4.37-0.8-6.561c-0.568-4.398-7.473-10.664-12.768-11.098c-2.857,36.453-5.716,72.903-8.614,109.907
			c21.091-13.299,42.032-14.486,61.992-0.047c19.886,14.384,25.142,34.745,19.446,58.791c2.385-0.921,3.964-1.495,5.513-2.137
			c15.36-6.38,30.737-12.722,46.068-19.174c10.017-4.217,20.386-5.412,30.949-3.165c23.967,5.093,40.763,24.724,42.082,48.743
			c1.264,22.995-13.161,44.225-35.829,52.033c-15.388,5.302-30.959,10.065-46.449,15.069c-12.796,4.135-25.59,8.268-39.145,12.646
			c13.442,8.824,21.539,20.484,24.312,35.378c2.803,15.049-1.013,28.862-10.384,41.94c91.033-4.777,181.08-9.504,271.128-14.229
			c0.124-0.509,0.248-1.017,0.372-1.525c-2.3-1.156-4.489-2.659-6.913-3.403c-7.617-2.338-15.386-4.205-22.951-6.687
			c-1.873-0.613-3.947-2.577-4.657-4.411c-2.564-6.633-4.766-13.429-6.688-20.278c-0.492-1.752-0.064-4.362,0.981-5.842
			c4.615-6.521,9.515-12.854,14.502-19.098c3.148-3.941,3.827-8.172,2.58-12.904c-1.556-5.904-2.611-11.991-4.731-17.684
			c-2.391-6.408-1.082-11.1,3.897-15.618c3.882-3.523,6.864-8.026,10.653-11.674c1.448-1.396,4.097-2.413,6.077-2.238
			c8.118,0.715,16.169,2.464,24.286,2.78c3.625,0.142,8.051-1.325,10.883-3.598c6.215-4.98,11.482-11.13,17.506-16.378
			c1.715-1.495,4.816-2.362,7.094-2.063c6.374,0.837,12.676,2.318,18.948,3.794c2.308,0.541,4.448,1.777,6.487,2.624
			C1156.657,534.966,1156.009,517.992,1155.35,500.693z M1193.073,388.945c1.577-5.714-0.796-8.957-6.271-10.563
			c-2.408-0.706-4.604-2.148-6.891-3.272c-6.994-3.437-15.819-5.311-20.471-10.751c-4.798-5.61-5.731-14.635-7.913-22.292
			c-0.605-2.127-0.277-5.021,0.719-7.019c4.015-8.052,8.121-16.096,12.864-23.729c2.885-4.644,2.978-8.251-0.907-11.999
			c-0.482-0.468-0.93-1.027-1.221-1.628c-1.686-3.485-4.21-4.073-7.935-3.256c-9.604,2.104-19.283,3.899-28.987,5.488
			c-1.925,0.314-4.438-0.327-6.08-1.425c-5.935-3.963-11.679-8.225-17.339-12.574c-1.344-1.031-2.744-2.743-2.993-4.32
			c-1.291-8.216-2.365-16.476-3.237-24.748c-1.112-10.568-1.022-10.501-10.893-13.715c-2.906-0.947-4.821-0.608-6.997,1.813
			c-6.708,7.467-13.639,14.742-20.73,21.844c-1.469,1.473-3.975,2.555-6.059,2.652c-6.96,0.326-13.958,0.328-20.919-0.003
			c-2.07-0.098-4.53-1.236-6.022-2.702c-5.695-5.606-11.658-11.103-16.404-17.469c-5.123-6.873-10.706-7.754-17.568-3.84
			c-1.604,0.917-3.332,2.915-3.606,4.638c-1.385,8.718-2.475,17.489-3.329,26.277c-0.503,5.166-1.939,9.226-6.85,12.048
			c-4.836,2.781-8.993,6.719-13.729,9.702c-1.935,1.222-4.729,2.05-6.929,1.717c-9.22-1.396-18.43-3.009-27.503-5.142
			c-4.457-1.048-6.907-0.132-9.802,3.537c-3.864,4.898-5.031,8.989-0.879,14.141c1.782,2.213,2.84,5.013,4.191,7.563
			c3.262,6.148,8.621,12.126,9.163,18.508c0.56,6.565-3.587,13.533-5.68,20.322c-0.298,0.973-0.406,2.098-0.979,2.872
			c-1.319,1.783-2.552,4.007-4.386,4.965c-7.065,3.692-14.134,7.58-21.615,10.209c-7.683,2.698-10.555,7.119-9.398,15.065
			c0.417,2.861,1.079,4.45,3.785,5.68c9.115,4.143,18.156,8.459,27.068,13.013c1.851,0.946,3.669,2.952,4.407,4.887
			c2.479,6.487,4.66,13.111,6.515,19.805c0.562,2.02,0.306,4.741-0.632,6.613c-3.804,7.588-7.519,15.308-12.234,22.329
			c-4.016,5.979-3.32,10.36,1.183,15.491c2.437,2.778,4.426,3.938,8.118,3.105c7.94-1.792,16.08-2.752,23.955-4.771
			c6.211-1.593,11.057-0.383,15.768,3.838c3.652,3.274,8.101,5.651,11.835,8.846c1.724,1.477,3.33,3.832,3.708,6.013
			c1.564,9.031,3.104,18.113,3.722,27.242c0.358,5.313,2.426,7.487,7.266,9.145c5.328,1.828,9.192,1.605,12.46-3.311
			c1.297-1.952,3.229-3.487,4.888-5.198c5.434-5.606,9.95-13.378,16.574-16.194c6.644-2.826,15.399-0.938,23.209-0.617
			c2.382,0.099,5.257,1.27,6.942,2.928c6.912,6.8,13.555,13.88,20.072,21.062c2.32,2.557,4.326,3.37,7.785,2.142
			c9.498-3.373,9.498-3.202,10.518-13.445c0.437-4.388,1.842-8.772,1.681-13.116c-0.407-10.897,4.376-18.209,13.86-23.052
			c2.691-1.378,4.816-3.882,7.528-5.201c2.248-1.1,5.1-2.003,7.471-1.627c9.712,1.536,19.347,3.559,28.995,5.486
			c2.756,0.55,4.939,0.294,6.43-2.498c0.954-1.785,2.148-3.522,3.559-4.963c2.361-2.405,1.965-4.525,0.421-7.248
			c-4.946-8.714-9.764-17.507-14.309-26.435c-0.936-1.838-1.098-4.554-0.547-6.576c1.819-6.704,3.956-13.338,6.353-19.858
			c0.67-1.819,2.357-3.73,4.084-4.611c8.313-4.247,16.683-8.436,25.271-12.074C1191.889,396.697,1194.717,394.34,1193.073,388.945z M718.681,294.406c0.518,0.03,1.035,0.062,1.55,0.092c-1.195,4.942-0.908,11.231-3.907,14.541
			c-5.839,6.445-6.094,12.189-1.757,18.798c1.123,1.712,3.369,3.876,5.049,3.834c7.87-0.206,13.59,3.149,18.246,9.124
			c1.454,1.864,3.179,3.594,5.042,5.046c3.201,2.488,5.063,5.802,4.703,9.624c-0.701,7.493,3.317,10.699,9.75,12.268
			c0.814,0.2,1.57,0.919,2.351,0.917c1.668-0.003,4.034,0.318,4.887-0.613c6.297-6.899,14.264-7.109,22.806-7.187
			c7.042-0.063,12.977,1.118,17.966,6.266c1.094,1.129,3.125,2.602,4.22,2.266c4.195-1.287,8.721-2.575,12.04-5.224
			c1.8-1.436,1.144-5.703,2.086-8.53c1.023-3.067,2.264-6.182,4.062-8.836c1.688-2.488,4.525-4.182,6.331-6.612
			c4.422-5.959,10.354-8.101,17.517-8.443c1.773-0.086,3.792-2.154,5.051-3.805c1.295-1.695,1.613-4.099,2.683-6.009
			c1.771-3.158,1.32-5.797-1.271-8.186c-4.993-4.607-6.732-10.277-5.888-16.969c0.336-2.678,0.299-5.464-0.002-8.151
			c-0.49-4.382,0.725-8.105,3.922-10.977c4.622-4.149,5.219-8.651,1.955-13.83c-0.444-0.709-0.756-1.531-0.978-2.344
			c-0.8-2.952-2.451-4.587-5.748-4.459c-7.747,0.302-13.547-3.339-18.133-9.298c-0.515-0.669-1.151-1.261-1.798-1.805
			c-4.99-4.198-8.621-8.97-8.109-16.052c0.27-3.748-1.544-6.396-5.525-7.274c-1.468-0.321-2.91-0.991-4.219-1.753
			c-3.231-1.878-6.018-1.627-8.618,1.18c-4.466,4.824-9.976,6.639-16.513,5.727c-2.334-0.328-4.776-0.258-7.133-0.011
			c-5.198,0.544-9.773-0.537-13.336-4.56c-3.44-3.885-7.229-4.504-11.648-1.672c-1.266,0.811-3.066,0.922-4.128,1.893
			c-1.576,1.438-3.894,3.395-3.841,5.065c0.26,8.153-3.676,13.767-9.593,18.609c-2.226,1.822-3.924,4.322-6.226,6.018
			c-1.936,1.424-4.404,2.999-6.634,2.987c-7.354-0.031-12.217,2.617-13.647,10.213c-0.093,0.491-0.298,0.988-0.556,1.418
			c-1.385,2.307-1.334,4.369,0.722,6.328C718.216,279.562,720.863,286.188,718.681,294.406z M1169.629,681.335
			c4.948,0.103,9.625-5.599,8.568-10.086c-1.05-4.458-1.919-8.978-3.3-13.331c-3.536-11.155-1.334-20.95,6.202-29.788
			c2.977-3.489,5.802-7.146,8.293-10.991c0.917-1.42,1.058-3.627,0.887-5.413c-0.456-4.842-3.39-7.296-8.178-8.134
			c-3.488-0.608-6.815-2.086-10.291-2.834c-11.432-2.458-18.839-9.238-22.646-20.243c-1.327-3.843-3.153-7.512-4.732-11.268
			c-2.555-6.083-9.745-7.575-14.494-2.991c-3.798,3.664-7.594,7.325-11.383,11.001c-6.517,6.325-14.397,8.622-23.272,7.718
			c-5.408-0.554-10.847-1.073-16.157-2.162c-3.005-0.618-4.506,0.497-6.552,2.356c-3.422,3.112-3.678,6.295-2.246,10.376
			c1.228,3.506,1.604,7.301,2.721,10.854c3.377,10.735,1.502,20.313-5.756,28.923c-2.41,2.859-4.575,5.923-6.844,8.9
			c-5.621,7.377-3.679,13.404,5.136,15.939c3.259,0.937,6.479,2.056,9.782,2.793c11.698,2.609,19.59,9.376,23.535,20.785
			c1.386,4.003,3.169,7.871,4.84,11.773c2.252,5.251,9.626,6.812,13.711,2.899c3.932-3.768,7.793-7.609,11.709-11.394
			c6.314-6.095,13.816-8.834,22.583-7.837C1157.821,679.873,1163.888,680.642,1169.629,681.335z M897.165,545.443
			c0.042-19.177-15.441-34.785-34.541-34.823c-19.112-0.039-34.85,15.511-34.949,34.532c-0.099,18.877,15.75,34.866,34.656,34.964
			C881.282,580.21,897.125,564.441,897.165,545.443z M766.045,701.769c19.191,0.192,34.878-14.788,35.127-33.546
			c0.261-19.67-14.712-35.3-34.173-35.672c-18.837-0.362-34.951,15.5-35.009,34.459
			C731.936,685.975,747.225,701.582,766.045,701.769z M738.159,536.359c18.554,0.105,33.329-14.385,33.3-32.655
			c-0.03-17.845-15.036-32.799-32.917-32.806c-17.763-0.008-32.466,14.631-32.554,32.413
			C705.896,521.78,719.987,536.256,738.159,536.359z"/>
		<path fill-rule="evenodd" clip-rule="evenodd" fill="none" d="M1210.706,369.698c-12.142-5.593-24.353-11.046-36.38-16.877
			c-3.191-1.549-5.062-12.475-3.239-15.841c5.415-10.01,10.778-20.05,16.381-29.952c1.388-2.453,1.266-4.117-0.389-6.315
			c-5.728-7.605-11.4-15.261-16.805-23.097c-1.859-2.697-3.828-3.286-6.827-2.703c-10.995,2.146-22.019,4.144-33.034,6.181
			c-5.234,0.968-13.761-5.065-14.499-10.448c-1.521-11.104-3.053-22.215-4.224-33.358c-0.343-3.269-1.553-4.649-4.611-5.576
			c-8.922-2.7-17.765-5.677-26.577-8.719c-2.896-0.999-4.87-0.694-7.069,1.729c-7.544,8.317-15.357,16.391-23.079,24.546
			c-3.882,4.098-13.856,4.184-17.807,0.076c-7.782-8.098-15.585-16.177-23.188-24.44c-2.112-2.296-3.935-3-6.983-1.92
			c-8.629,3.059-17.297,6.068-26.11,8.514c-3.867,1.074-5.176,3.127-5.44,6.682c-0.185,2.483-0.626,4.945-0.982,7.64
			c-18.014-1.044-35.471-2.043-52.924-3.07c-21.054-1.239-42.102-2.541-63.154-3.726c-5.734-0.324-12.958-6.125-12.835-11.899
			c0.24-11.439-4.669-18.001-15.81-20.744c-5.374-1.323-10.3-4.388-15.604-6.123c-1.839-0.603-4.434-0.039-6.283,0.836
			c-2.251,1.068-4.078,3.023-6.084,4.601c-8.112,6.371-15.182,6.918-22.577-0.02c-6.522-6.119-12.387-7.046-20.13-2.633
			c-5.703,3.25-12.09,5.373-18.304,7.633c-3.081,1.121-4.176,3.035-4.362,6.029c-0.148,2.368-0.515,4.727-0.851,7.079
			c-1.483,10.343-6.165,15.634-16.521,15.92c-8.389,0.23-12.828,3.365-15.121,11.355c-1.86,6.484-4.861,12.665-7.672,18.838
			c-1.278,2.804-1.533,4.961,0.85,7.242c1.459,1.396,2.541,3.185,3.79,4.801c7.214,9.332,7.6,15.968-0.149,24.707
			c-5.043,5.69-6.459,10.636-2.373,17.383c6.593,10.892,6.904,22.694,5.702,35.248c-3.126,32.656-5.148,65.42-7.642,98.139
			c-1.007,13.223-2.071,26.44-3.163,39.659c-0.122,1.479-0.587,2.929-0.896,4.393c0-101.366,0-202.731,0-304.389
			c74.225,0,148.449,0,222.675,0c-1.349,0.683-2.718,1.328-4.041,2.058c-7.677,4.229-11.088,13.244-8.098,21.366
			c2.97,8.069,11.375,12.755,20.026,11.159c8.077-1.487,14.005-9.139,13.815-17.716c-0.188-8.603-5.597-13.28-12.512-16.867
			c86.482,0,172.966,0,259.446,0c-1.687,0.718-3.383,1.412-5.058,2.159c-13.794,6.15-19.58,22.556-12.681,35.928
			c6.908,13.388,23.684,18.211,36.624,10.618c6.673-3.918,10.174-10.12,12.779-17.04
			C1210.706,275.726,1210.706,322.713,1210.706,369.698z"/>
		<path fill-rule="evenodd" clip-rule="evenodd" fill="none" d="M1210.706,615.867c-2.404-6.861-4.994-13.664-7.133-20.607
			c-0.97-3.146-2.603-4.676-5.769-5.451c-6.248-1.539-12.457-3.324-18.543-5.405c-1.388-0.475-3.11-2.533-3.174-3.931
			c-1.196-26.164-2.114-52.341-3.239-78.508c-0.177-4.107,0.703-7.479,3.313-10.768c4.538-5.715,8.65-11.765,12.995-17.755
			c-5.995-11.041-11.917-21.918-17.807-32.812c-2.999-5.545,0.022-15.02,5.7-17.662c11.199-5.205,22.435-10.321,33.655-15.475
			C1210.706,476.951,1210.706,546.408,1210.706,615.867z"/>
		<path fill-rule="evenodd" clip-rule="evenodd" fill="#212121" d="M1210.706,228.741c-2.605,6.92-6.106,13.122-12.779,17.04
			c-12.94,7.593-29.716,2.77-36.624-10.618c-6.899-13.372-1.113-29.777,12.681-35.928c1.675-0.747,3.371-1.441,5.058-2.159
			c3.745,0,7.49,0,11.236,0c10.238,3.38,17.025,10.213,20.429,20.429C1210.706,221.25,1210.706,224.996,1210.706,228.741z M1193.241,223.272c0.061-4.385-3.866-8.496-8.319-8.719c-4.547-0.225-8.9,3.937-8.947,8.555c-0.046,4.418,3.832,8.49,8.272,8.689
			C1188.814,232.001,1193.18,227.864,1193.241,223.272z"/>
		<path fill-rule="evenodd" clip-rule="evenodd" fill="#212121" d="M919.595,197.076c6.915,3.587,12.323,8.265,12.512,16.867
			c0.189,8.577-5.738,16.229-13.815,17.716c-8.651,1.596-17.057-3.09-20.026-11.159c-2.99-8.122,0.421-17.138,8.098-21.366
			c1.323-0.729,2.692-1.375,4.041-2.058C913.467,197.076,916.531,197.076,919.595,197.076z"/>
		<path fill-rule="evenodd" clip-rule="evenodd" fill="none" d="M1210.706,217.504c-3.403-10.216-10.19-17.049-20.429-20.429
			c6.809,0,13.619,0,20.429,0C1210.706,203.885,1210.706,210.696,1210.706,217.504z"/>
		<path fill-rule="evenodd" clip-rule="evenodd" fill="#64BEB1" d="M1193.073,388.945c1.644,5.396-1.185,7.752-5.878,9.74
			c-8.589,3.639-16.958,7.827-25.271,12.074c-1.727,0.881-3.414,2.792-4.084,4.611c-2.396,6.521-4.533,13.154-6.353,19.858
			c-0.551,2.022-0.389,4.738,0.547,6.576c4.545,8.928,9.362,17.721,14.309,26.435c1.544,2.723,1.94,4.843-0.421,7.248
			c-1.41,1.44-2.604,3.178-3.559,4.963c-1.49,2.792-3.674,3.048-6.43,2.498c-9.648-1.928-19.283-3.95-28.995-5.486
			c-2.371-0.376-5.223,0.527-7.471,1.627c-2.712,1.319-4.837,3.823-7.528,5.201c-9.484,4.843-14.268,12.155-13.86,23.052
			c0.161,4.344-1.244,8.729-1.681,13.116c-1.02,10.243-1.02,10.072-10.518,13.445c-3.459,1.229-5.465,0.415-7.785-2.142
			c-6.518-7.182-13.16-14.262-20.072-21.062c-1.686-1.658-4.561-2.829-6.942-2.928c-7.81-0.32-16.565-2.209-23.209,0.617
			c-6.624,2.816-11.141,10.588-16.574,16.194c-1.658,1.711-3.591,3.246-4.888,5.198c-3.268,4.916-7.132,5.139-12.46,3.311
			c-4.84-1.657-6.907-3.832-7.266-9.145c-0.617-9.129-2.157-18.211-3.722-27.242c-0.378-2.181-1.984-4.536-3.708-6.013
			c-3.734-3.195-8.183-5.572-11.835-8.846c-4.711-4.221-9.557-5.431-15.768-3.838c-7.875,2.02-16.015,2.979-23.955,4.771
			c-3.692,0.832-5.682-0.327-8.118-3.105c-4.503-5.131-5.198-9.513-1.183-15.491c4.716-7.021,8.431-14.741,12.234-22.329
			c0.938-1.872,1.193-4.594,0.632-6.613c-1.854-6.693-4.035-13.317-6.515-19.805c-0.738-1.935-2.557-3.94-4.407-4.887
			c-8.912-4.554-17.953-8.87-27.068-13.013c-2.706-1.229-3.368-2.818-3.785-5.68c-1.156-7.946,1.716-12.367,9.398-15.065
			c7.481-2.629,14.55-6.517,21.615-10.209c1.834-0.958,3.066-3.182,4.386-4.965c0.573-0.774,0.682-1.899,0.979-2.872
			c2.093-6.789,6.239-13.757,5.68-20.322c-0.542-6.382-5.901-12.359-9.163-18.508c-1.352-2.55-2.409-5.35-4.191-7.563
			c-4.152-5.151-2.985-9.242,0.879-14.141c2.895-3.669,5.345-4.585,9.802-3.537c9.073,2.133,18.283,3.746,27.503,5.142
			c2.199,0.333,4.994-0.495,6.929-1.717c4.736-2.983,8.894-6.921,13.729-9.702c4.91-2.822,6.347-6.882,6.85-12.048
			c0.854-8.788,1.944-17.56,3.329-26.277c0.274-1.723,2.003-3.721,3.606-4.638c6.862-3.914,12.445-3.033,17.568,3.84
			c4.746,6.366,10.709,11.862,16.404,17.469c1.492,1.466,3.952,2.604,6.022,2.702c6.961,0.331,13.959,0.329,20.919,0.003
			c2.084-0.098,4.59-1.18,6.059-2.652c7.092-7.102,14.022-14.377,20.73-21.844c2.176-2.421,4.091-2.76,6.997-1.813
			c9.87,3.214,9.78,3.146,10.893,13.715c0.872,8.272,1.946,16.532,3.237,24.748c0.249,1.577,1.649,3.289,2.993,4.32
			c5.66,4.35,11.404,8.611,17.339,12.574c1.643,1.098,4.155,1.739,6.08,1.425c9.704-1.589,19.384-3.385,28.987-5.488
			c3.725-0.817,6.249-0.229,7.935,3.256c0.291,0.601,0.738,1.16,1.221,1.628c3.885,3.748,3.792,7.355,0.907,11.999
			c-4.743,7.633-8.85,15.677-12.864,23.729c-0.996,1.998-1.324,4.892-0.719,7.019c2.182,7.657,3.115,16.682,7.913,22.292
			c4.651,5.44,13.477,7.314,20.471,10.751c2.286,1.124,4.482,2.566,6.891,3.272C1192.277,379.988,1194.65,383.231,1193.073,388.945z M1123.799,388.242c-0.1-47.739-39.362-86.871-87.171-86.881c-48.01-0.01-87.316,39.311-87.286,87.314
			c0.03,47.91,39.52,87.254,87.482,87.158C1084.809,475.74,1123.897,436.373,1123.799,388.242z"/>
		<path fill-rule="evenodd" clip-rule="evenodd" fill="#F7CB5D" d="M718.681,294.406c2.183-8.218-0.465-14.844-6.271-20.386
			c-2.056-1.959-2.106-4.021-0.722-6.328c0.258-0.43,0.463-0.927,0.556-1.418c1.431-7.596,6.293-10.244,13.647-10.213
			c2.229,0.012,4.698-1.563,6.634-2.987c2.302-1.695,4-4.195,6.226-6.018c5.917-4.843,9.853-10.456,9.593-18.609
			c-0.053-1.671,2.265-3.627,3.841-5.065c1.062-0.971,2.862-1.082,4.128-1.893c4.419-2.832,8.208-2.213,11.648,1.672
			c3.563,4.022,8.138,5.104,13.336,4.56c2.356-0.247,4.799-0.317,7.133,0.011c6.537,0.912,12.047-0.902,16.513-5.727
			c2.601-2.807,5.387-3.058,8.618-1.18c1.309,0.762,2.751,1.432,4.219,1.753c3.981,0.878,5.795,3.526,5.525,7.274
			c-0.512,7.082,3.119,11.854,8.109,16.052c0.646,0.544,1.283,1.136,1.798,1.805c4.586,5.959,10.386,9.6,18.133,9.298
			c3.297-0.128,4.948,1.507,5.748,4.459c0.222,0.813,0.533,1.635,0.978,2.344c3.264,5.179,2.667,9.681-1.955,13.83
			c-3.197,2.871-4.412,6.595-3.922,10.977c0.301,2.688,0.338,5.474,0.002,8.151c-0.845,6.691,0.895,12.361,5.888,16.969
			c2.591,2.389,3.042,5.027,1.271,8.186c-1.069,1.91-1.388,4.313-2.683,6.009c-1.259,1.65-3.277,3.719-5.051,3.805
			c-7.163,0.343-13.095,2.484-17.517,8.443c-1.806,2.431-4.643,4.124-6.331,6.612c-1.798,2.654-3.038,5.769-4.062,8.836
			c-0.942,2.827-0.286,7.095-2.086,8.53c-3.319,2.648-7.845,3.937-12.04,5.224c-1.095,0.336-3.126-1.137-4.22-2.266
			c-4.989-5.147-10.924-6.328-17.966-6.266c-8.542,0.077-16.509,0.287-22.806,7.187c-0.853,0.932-3.219,0.61-4.887,0.613
			c-0.78,0.002-1.536-0.717-2.351-0.917c-6.433-1.568-10.451-4.774-9.75-12.268c0.36-3.822-1.502-7.136-4.703-9.624
			c-1.863-1.452-3.588-3.182-5.042-5.046c-4.656-5.975-10.376-9.33-18.246-9.124c-1.68,0.042-3.926-2.122-5.049-3.834
			c-4.337-6.608-4.082-12.353,1.757-18.798c2.999-3.31,2.712-9.599,3.907-14.541C719.716,294.467,719.198,294.436,718.681,294.406z M785.6,339.175c24.838,0.035,44.922-19.81,45.051-44.508c0.129-24.797-20.199-45.326-44.918-45.365
			c-24.652-0.039-44.829,20.052-44.898,44.71C740.763,319.232,760.495,339.142,785.6,339.175z"/>
		<path fill-rule="evenodd" clip-rule="evenodd" fill="#E76D58" d="M1169.629,681.335c-5.741-0.693-11.808-1.462-17.884-2.152
			c-8.767-0.997-16.269,1.742-22.583,7.837c-3.916,3.784-7.777,7.626-11.709,11.394c-4.085,3.912-11.459,2.352-13.711-2.899
			c-1.671-3.902-3.454-7.771-4.84-11.773c-3.945-11.409-11.837-18.176-23.535-20.785c-3.304-0.737-6.523-1.856-9.782-2.793
			c-8.814-2.535-10.757-8.563-5.136-15.939c2.269-2.978,4.434-6.041,6.844-8.9c7.258-8.609,9.133-18.188,5.756-28.923
			c-1.117-3.554-1.493-7.349-2.721-10.854c-1.432-4.081-1.176-7.264,2.246-10.376c2.046-1.859,3.547-2.975,6.552-2.356
			c5.311,1.089,10.749,1.608,16.157,2.162c8.875,0.904,16.756-1.393,23.272-7.718c3.789-3.676,7.585-7.337,11.383-11.001
			c4.749-4.584,11.939-3.092,14.494,2.991c1.579,3.756,3.405,7.425,4.732,11.268c3.807,11.005,11.214,17.785,22.646,20.243
			c3.476,0.748,6.803,2.226,10.291,2.834c4.788,0.838,7.722,3.292,8.178,8.134c0.171,1.786,0.03,3.993-0.887,5.413
			c-2.491,3.845-5.316,7.502-8.293,10.991c-7.536,8.838-9.738,18.633-6.202,29.788c1.381,4.354,2.25,8.873,3.3,13.331
			C1179.254,675.736,1174.577,681.438,1169.629,681.335z M1080.021,632.228c-0.04,23.876,19.472,43.649,43.234,43.808
			c24.11,0.163,43.889-19.391,44.034-43.536c0.145-23.949-19.908-44.042-43.776-43.864
			C1099.598,588.811,1080.062,608.393,1080.021,632.228z"/>
		<path fill-rule="evenodd" clip-rule="evenodd" fill="#EDEDED" d="M897.165,545.443c-0.04,18.998-15.883,34.767-34.834,34.673
			c-18.906-0.098-34.755-16.087-34.656-34.964c0.1-19.021,15.837-34.571,34.949-34.532
			C881.724,510.658,897.207,526.267,897.165,545.443z M862.453,527.943c-9.844,0.005-17.402,7.555-17.4,17.373
			c0.004,9.734,7.686,17.408,17.427,17.409c9.828,0.001,17.351-7.555,17.353-17.428
			C879.834,535.406,872.357,527.937,862.453,527.943z"/>
		<path fill-rule="evenodd" clip-rule="evenodd" fill="#EDEDED" d="M766.045,701.769c-18.82-0.187-34.109-15.794-34.055-34.759
			c0.058-18.959,16.172-34.821,35.009-34.459c19.461,0.372,34.434,16.002,34.173,35.672
			C800.923,686.98,785.236,701.961,766.045,701.769z M766.548,684.587c9.716,0.079,17.577-7.606,17.671-17.272
			c0.093-9.596-7.766-17.592-17.363-17.667c-9.524-0.077-17.619,7.855-17.72,17.367C749.031,676.611,756.857,684.51,766.548,684.587
			z"/>
		<path fill-rule="evenodd" clip-rule="evenodd" fill="#EDEDED" d="M738.159,536.359c-18.172-0.104-32.264-14.579-32.171-33.049
			c0.088-17.781,14.791-32.42,32.554-32.413c17.881,0.007,32.887,14.961,32.917,32.806
			C771.488,521.975,756.713,536.465,738.159,536.359z M723.18,501.922c0.077,9.715,7.904,17.419,17.59,17.314
			c9.669-0.102,17.447-8.004,17.362-17.634c-0.086-9.518-8.194-17.496-17.686-17.399
			C730.812,484.298,723.102,492.209,723.18,501.922z"/>
		<path fill-rule="evenodd" clip-rule="evenodd" fill="none" d="M1193.241,223.272c-0.062,4.592-4.427,8.729-8.994,8.525
			c-4.44-0.199-8.318-4.271-8.272-8.689c0.047-4.618,4.4-8.779,8.947-8.555C1189.375,214.776,1193.302,218.887,1193.241,223.272z"/>
		<path fill-rule="evenodd" clip-rule="evenodd" fill="#212121" d="M1123.799,388.242c0.099,48.131-38.99,87.498-86.975,87.592
			c-47.963,0.096-87.452-39.248-87.482-87.158c-0.03-48.004,39.276-87.324,87.286-87.314
			C1084.437,301.371,1123.699,340.502,1123.799,388.242z M1036.761,458.08c38.445-0.178,69.426-31.225,69.381-69.524
			c-0.049-38.546-31.612-69.874-69.966-69.44c-38.6,0.438-69.254,31.436-69.014,69.786
			C967.406,427.439,998.414,458.259,1036.761,458.08z"/>
		<path fill-rule="evenodd" clip-rule="evenodd" fill="#212121" d="M785.6,339.175c-25.104-0.033-44.837-19.943-44.766-45.163
			c0.069-24.658,20.246-44.749,44.898-44.71c24.719,0.039,45.047,20.568,44.918,45.365
			C830.521,319.366,810.438,339.21,785.6,339.175z M785.469,267.167c-15.047,0.099-27.31,12.363-27.262,27.262
			c0.047,15.052,12.728,27.473,27.858,27.291c14.893-0.181,27.171-12.794,26.918-27.652
			C812.727,278.859,800.665,267.068,785.469,267.167z"/>
		<path fill-rule="evenodd" clip-rule="evenodd" fill="#212121" d="M1080.021,632.228c0.04-23.835,19.576-43.417,43.492-43.593
			c23.868-0.178,43.921,19.915,43.776,43.864c-0.146,24.146-19.924,43.699-44.034,43.536
			C1099.493,675.877,1079.981,656.104,1080.021,632.228z M1149.523,632.772c0.113-14.599-10.992-26.109-25.328-26.255
			c-14.748-0.149-26.436,11.136-26.587,25.672c-0.147,14.158,11.442,25.93,25.739,26.146
			C1137.591,658.551,1149.417,647.001,1149.523,632.772z"/>
		<path fill-rule="evenodd" clip-rule="evenodd" fill="#212121" d="M862.453,527.943c9.904-0.007,17.381,7.463,17.379,17.354
			c-0.002,9.873-7.524,17.429-17.353,17.428c-9.741-0.001-17.423-7.675-17.427-17.409
			C845.051,535.498,852.609,527.948,862.453,527.943z"/>
		<path fill-rule="evenodd" clip-rule="evenodd" fill="#212121" d="M766.548,684.587c-9.69-0.077-17.517-7.976-17.412-17.572
			c0.101-9.512,8.195-17.444,17.72-17.367c9.598,0.075,17.456,8.071,17.363,17.667C784.125,676.98,776.264,684.666,766.548,684.587z
			"/>
		<path fill-rule="evenodd" clip-rule="evenodd" fill="#212121" d="M723.18,501.922c-0.078-9.713,7.632-17.624,17.267-17.718
			c9.491-0.097,17.6,7.881,17.686,17.399c0.085,9.63-7.693,17.532-17.362,17.634C731.084,519.341,723.257,511.637,723.18,501.922z"
			/>
		<path fill-rule="evenodd" clip-rule="evenodd" fill="none" d="M1036.761,458.08c-38.347,0.18-69.354-30.641-69.599-69.179
			c-0.24-38.351,30.414-69.349,69.014-69.786c38.354-0.434,69.917,30.895,69.966,69.44
			C1106.187,426.855,1075.206,457.902,1036.761,458.08z M1089.02,388.692c0.06-28.588-23.555-52.351-52.195-52.522
			c-28.528-0.173-52.409,23.431-52.677,52.063c-0.269,28.633,23.768,52.815,52.485,52.807
			C1065.175,441.031,1088.958,417.264,1089.02,388.692z"/>
		<path fill-rule="evenodd" clip-rule="evenodd" fill="#212121" d="M1089.02,388.692c-0.062,28.572-23.845,52.339-52.387,52.347
			c-28.718,0.009-52.754-24.174-52.485-52.807c0.268-28.632,24.148-52.235,52.677-52.063
			C1065.465,336.341,1089.079,360.104,1089.02,388.692z M1002.052,388.444c-0.067,19.389,15.033,34.64,34.383,34.722
			c19.323,0.083,34.633-15.087,34.729-34.415c0.099-19.327-15.07-34.62-34.423-34.706
			C1017.357,353.96,1002.119,369.07,1002.052,388.444z"/>
		<path fill-rule="evenodd" clip-rule="evenodd" fill="#64BEB1" d="M1002.052,388.444c0.067-19.374,15.306-34.483,34.689-34.399
			c19.353,0.086,34.521,15.379,34.423,34.706c-0.097,19.328-15.406,34.498-34.729,34.415
			C1017.085,423.083,1001.984,407.833,1002.052,388.444z"/>
	</g>
</g>
<g id="圖層_5">
	<text transform="matrix(1 0 0 1 555.4419 906.3633)" fill="#fff" font-family="'Quicksand'" font-size="89.25">Under Construction</text>
	<path fill="#333" d="M525.58,940.267c-0.185,0-0.343-0.023-0.48-0.069c-0.137-0.047-0.298-0.068-0.479-0.068
		c-7.317-1.646-12.872-3.703-16.666-6.172c-3.796-2.47-6.333-5.466-7.612-8.984c-1.282-3.521-1.921-7.568-1.921-12.14v-10.836
		c0-3.566-0.479-6.996-1.44-10.288c-0.96-3.292-2.63-5.987-5.006-8.093c-2.379-2.103-5.717-3.154-10.014-3.154h-0.823
		c-0.732,0-1.371-0.274-1.92-0.823s-0.823-1.188-0.823-1.92c0-0.731,0.274-1.325,0.823-1.783c0.549-0.457,1.188-0.687,1.92-0.687
		h0.823c4.479,0,7.908-1.05,10.288-3.154c2.376-2.103,3.999-4.801,4.869-8.093c0.868-3.292,1.303-6.722,1.303-10.288v-10.836
		c0-4.754,0.686-8.663,2.058-11.728c1.372-3.063,3.245-5.531,5.624-7.407c2.377-1.873,5.12-3.429,8.229-4.663
		c3.108-1.235,6.447-2.354,10.014-3.361c1.554-0.456,2.537-0.364,2.949,0.274c0.411,0.642,0.617,1.189,0.617,1.646
		c0,0.549-0.185,1.052-0.549,1.509c-0.366,0.459-0.915,0.778-1.646,0.96c-6.127,1.83-10.746,3.703-13.854,5.624
		c-3.109,1.92-5.212,4.275-6.31,7.063c-1.098,2.791-1.646,6.426-1.646,10.905v10.287c0,5.854-1.052,11.042-3.154,15.568
		c-2.104,4.526-5.167,7.294-9.19,8.299l-0.274-0.137c4.298,1.097,7.476,3.888,9.533,8.367c2.058,4.481,3.086,9.693,3.086,15.637
		v10.287c0,4.39,0.525,8.024,1.578,10.905c1.05,2.88,3.154,5.28,6.31,7.201c3.154,1.92,7.795,3.748,13.922,5.486
		c1.646,0.457,2.332,1.509,2.058,3.155c-0.092,0.364-0.343,0.707-0.754,1.028C526.608,940.105,526.129,940.267,525.58,940.267z"/>
	<path fill="#333" d="M1370.737,940.261c-0.915,0-1.556-0.253-1.92-0.755c-0.366-0.504-0.549-0.983-0.549-1.44
		c0-0.548,0.206-1.052,0.617-1.509c0.412-0.458,0.937-0.777,1.578-0.96c6.125-1.83,10.743-3.703,13.854-5.624
		c3.107-1.92,5.212-4.299,6.31-7.133c1.098-2.835,1.646-6.446,1.646-10.836v-10.287c0-5.852,1.074-11.063,3.224-15.637
		c2.147-4.572,5.188-7.315,9.122-8.23l0.274,0.138c-4.208-1.098-7.362-3.91-9.465-8.437c-2.104-4.526-3.155-9.715-3.155-15.568
		v-10.287c0-4.479-0.526-8.138-1.577-10.974c-1.052-2.833-3.133-5.233-6.241-7.201c-3.109-1.965-7.773-3.771-13.99-5.418
		c-1.646-0.456-2.332-1.509-2.058-3.154c0.182-0.457,0.456-0.823,0.822-1.098c0.364-0.274,0.823-0.412,1.372-0.412
		c0.183,0,0.364,0.024,0.549,0.069c0.182,0.047,0.319,0.068,0.411,0.068c7.407,1.556,12.983,3.59,16.734,6.104
		c3.749,2.517,6.263,5.534,7.544,9.054c1.28,3.521,1.921,7.567,1.921,12.139v10.836c0,3.566,0.479,6.996,1.44,10.288
		c0.96,3.292,2.627,5.99,5.006,8.093c2.377,2.104,5.714,3.154,10.014,3.154h0.823c0.73,0,1.371,0.274,1.92,0.823
		s0.823,1.189,0.823,1.921c0,0.641-0.274,1.213-0.823,1.714c-0.549,0.504-1.189,0.755-1.92,0.755h-0.823
		c-4.481,0-7.911,1.052-10.288,3.154c-2.379,2.105-4.001,4.801-4.869,8.093c-0.87,3.292-1.303,6.722-1.303,10.288v10.836
		c0,3.382-0.436,6.263-1.304,8.642c-0.87,2.377-2.286,4.503-4.252,6.378c-1.968,1.873-4.642,3.749-8.024,5.624
		c-3.384,1.873-7.591,4.092-12.619,6.652c-0.092,0.09-0.206,0.138-0.343,0.138S1370.92,940.261,1370.737,940.261z"/>
</g>
</svg>
