<?xml version="1.0" encoding="utf-8"?>
<!-- Generator: Adobe Illustrator 16.0.0, SVG Export Plug-In . SVG Version: 6.00 Build 0)  -->
<!DOCTYPE svg PUBLIC "-//W3C//DTD SVG 1.1//EN" "http://www.w3.org/Graphics/SVG/1.1/DTD/svg11.dtd">
<svg version="1.1" xmlns="http://www.w3.org/2000/svg" xmlns:xlink="http://www.w3.org/1999/xlink" x="0px" y="0px" width="1920px"
	 height="1080px" viewBox="0 0 1920 1080" enable-background="new 0 0 1920 1080" xml:space="preserve">
<g id="圖層_3">
	<g>
		<rect x="120.724" y="250.941" fill="#B390C1" width="75.033" height="15.842"/>
		<rect x="184.341" y="393.359" fill="#B390C1" width="43.265" height="15.842"/>
		<rect x="120.724" y="479.503" fill="#B390C1" width="10.59" height="15.842"/>
		<rect x="174.885" y="565.316" fill="#B390C1" width="71.388" height="15.842"/>
		<rect x="328.643" y="565.316" fill="#B390C1" width="70.152" height="15.842"/>
		<rect x="379.141" y="707.9" fill="#B390C1" width="52.438" height="15.842"/>
		<rect x="826.691" y="707.9" fill="#B390C1" width="62.339" height="15.842"/>
		<rect x="134.756" y="479.503" fill="#78A1D5" width="48.789" height="15.842"/>
		<rect x="120.724" y="393.359" fill="#82CEEE" width="10.59" height="15.842"/>
		<rect x="278.847" y="393.359" fill="#82CEEE" width="20.051" height="15.842"/>
		<rect x="230.082" y="393.359" fill="#82CEEE" width="20.051" height="15.842"/>
		<rect x="252.567" y="393.359" fill="#BEDB8C" width="23.804" height="15.842"/>
		<rect x="409.012" y="565.316" fill="#BEDB8C" width="73.964" height="15.842"/>
		<rect x="440.202" y="707.9" fill="#BEDB8C" width="378.032" height="15.842"/>
		<rect x="120.724" y="308.999" fill="#E56E5A" width="133.122" height="15.842"/>
		<rect x="134.756" y="393.359" fill="#E56E5A" width="41.115" height="15.842"/>
		<rect x="120.724" y="565.316" fill="#E56E5A" width="49.289" height="15.842"/>
		<rect x="261.419" y="679.186" fill="#E56E5A" width="61.115" height="15.843"/>
		<rect x="333.161" y="707.9" fill="#E56E5A" width="36.533" height="15.842"/>
		<rect x="261.419" y="964.679" fill="#E56E5A" width="61.115" height="15.843"/>
		<rect x="261.419" y="565.316" fill="#F6BA49" width="61.115" height="15.842"/>
		<rect x="191.988" y="653.094" fill="#F6BA49" width="56.907" height="15.843"/>
		<rect x="332.095" y="737.887" fill="#F6BA49" width="76.917" height="15.843"/>
		<rect x="332.095" y="907.536" fill="#F6BA49" width="162.689" height="15.843"/>
		<rect x="332.095" y="993.351" fill="#F6BA49" width="54.431" height="15.843"/>
		<rect x="406.747" y="766.931" fill="#F6BA49" width="118.401" height="15.842"/>
		<rect x="478.039" y="795.978" fill="#F6BA49" width="134.904" height="15.843"/>
		<rect x="545.491" y="823.04" fill="#F6BA49" width="60.188" height="15.843"/>
		<rect x="545.491" y="851.426" fill="#F6BA49" width="60.188" height="15.843"/>
		<rect x="332.095" y="679.186" fill="#F6BA49" width="226.223" height="15.843"/>
		<rect x="201.317" y="250.941" fill="#EEF7F9" width="246.599" height="15.842"/>
		<rect x="120.724" y="337.326" fill="#EEF7F9" width="2.529" height="15.842"/>
		<rect x="120.724" y="366.041" fill="#EEF7F9" width="2.529" height="15.842"/>
		<rect x="120.724" y="423.14" fill="#EEF7F9" width="2.529" height="15.843"/>
		<rect x="120.724" y="451.854" fill="#EEF7F9" width="2.529" height="15.842"/>
		<rect x="120.724" y="507.9" fill="#EEF7F9" width="2.529" height="15.843"/>
		<rect x="120.724" y="536.615" fill="#EEF7F9" width="2.529" height="15.842"/>
		<rect x="186.763" y="479.503" fill="#EEF7F9" width="33.913" height="15.842"/>
		<rect x="191.988" y="591.886" fill="#B390C1" width="10.59" height="15.843"/>
		<rect x="206.021" y="591.886" fill="#78A1D5" width="48.788" height="15.843"/>
		<rect x="258.027" y="591.886" fill="#EEF7F9" width="111.667" height="15.843"/>
		<rect x="612.943" y="823.04" fill="#EEF7F9" width="111.667" height="15.843"/>
		<rect x="612.943" y="850.405" fill="#EEF7F9" width="111.667" height="15.842"/>
	</g>
</g>
<g id="圖層_1">
	<g>
		<rect x="447.798" y="354.131" fill="#78A1D5" width="24.839" height="16.131"/>
		<rect x="625.087" y="382.864" fill="#78A1D5" width="18.18" height="16.131"/>
		<rect x="533.862" y="879.012" fill="#78A1D5" width="18.18" height="16.132"/>
		<rect x="336.927" y="297.169" fill="#82CEEE" width="83.011" height="16.131"/>
		<rect x="336.927" y="324.39" fill="#82CEEE" width="128.379" height="16.131"/>
		<rect x="336.927" y="354.131" fill="#82CEEE" width="101.158" height="16.131"/>
		<rect x="336.927" y="382.864" fill="#82CEEE" width="175.168" height="16.131"/>
		<rect x="336.927" y="413.11" fill="#82CEEE" width="128.379" height="16.131"/>
		<rect x="336.927" y="442.515" fill="#82CEEE" width="179.292" height="16.13"/>
		<rect x="336.872" y="530.563" fill="#82CEEE" width="132.131" height="16.131"/>
		<rect x="361.74" y="617.937" fill="#82CEEE" width="95.5" height="16.131"/>
		<rect x="385.937" y="675.359" fill="#82CEEE" width="95.5" height="16.131"/>
		<rect x="385.937" y="730.475" fill="#82CEEE" width="40.723" height="16.131"/>
		<rect x="385.937" y="705.271" fill="#82CEEE" width="40.723" height="16.131"/>
		<rect x="385.937" y="762.736" fill="#82CEEE" width="91.467" height="16.131"/>
		<rect x="385.937" y="790.966" fill="#82CEEE" width="67.608" height="16.131"/>
		<rect x="385.937" y="821.211" fill="#82CEEE" width="76.681" height="16.131"/>
		<rect x="385.937" y="848.767" fill="#82CEEE" width="160.024" height="16.131"/>
		<rect x="385.937" y="879.012" fill="#82CEEE" width="139.188" height="16.132"/>
		<rect x="485.953" y="762.736" fill="#BEDB8C" width="24.237" height="16.131"/>
		<rect x="336.872" y="585.734" fill="#E56E5A" width="12.493" height="16.131"/>
		<rect x="465.81" y="617.937" fill="#E56E5A" width="83.175" height="16.131"/>
		<rect x="476.9" y="530.563" fill="#E56E5A" width="55.954" height="16.131"/>
		<rect x="528.217" y="442.515" fill="#E56E5A" width="55.954" height="16.13"/>
		<rect x="472.637" y="413.11" fill="#E56E5A" width="14.345" height="16.131"/>
		<rect x="428.781" y="297.169" fill="#E56E5A" width="58.201" height="16.131"/>
		<rect x="472.637" y="324.39" fill="#E56E5A" width="115.667" height="16.131"/>
		<rect x="477.037" y="354.131" fill="#E56E5A" width="39.183" height="16.131"/>
		<rect x="520.893" y="382.864" fill="#E56E5A" width="98.665" height="16.131"/>
		<rect x="648.476" y="382.864" fill="#E56E5A" width="77.445" height="16.131"/>
		<rect x="486.629" y="675.359" fill="#E56E5A" width="101.17" height="16.131"/>
		<rect x="436.044" y="705.271" fill="#E56E5A" width="55.475" height="16.131"/>
		<rect x="434.88" y="730.475" fill="#E56E5A" width="63.191" height="16.131"/>
		<rect x="459.923" y="790.966" fill="#E56E5A" width="38.148" height="16.131"/>
		<rect x="470.429" y="821.211" fill="#E56E5A" width="38.148" height="16.131"/>
		<rect x="552.042" y="848.767" fill="#E56E5A" width="61.971" height="16.131"/>
		<rect x="556.815" y="879.012" fill="#E56E5A" width="69.296" height="16.132"/>
		<rect x="361.74" y="646.839" fill="#E56E5A" width="17.871" height="16.131"/>
		<rect x="287.697" y="209.794" fill="#F6BA49" width="126.192" height="16.131"/>
		<rect x="313.57" y="267.78" fill="#F6BA49" width="71.586" height="16.131"/>
		<rect x="313.57" y="501.003" fill="#F6BA49" width="100.319" height="16.131"/>
		<rect x="382.605" y="646.839" fill="#B390C1" width="83.205" height="16.131"/>
	</g>
</g>
</svg>
