<?xml version="1.0" encoding="utf-8"?>
<!-- Generator: Adobe Illustrator 26.0.1, SVG Export Plug-In . SVG Version: 6.00 Build 0)  -->
<svg version="1.1" id="圖層_1" xmlns="http://www.w3.org/2000/svg" xmlns:xlink="http://www.w3.org/1999/xlink" x="0px" y="0px"
	 viewBox="0 0 102.75 148.99" style="enable-background:new 0 0 102.75 148.99;" xml:space="preserve">
<style type="text/css">
	.st0{fill:#fff;}
</style>
<g>
	<g>
		<g>
			<path class="st0" d="M48.84,5.99c0,3.31-2.68,5.99-5.99,5.99c-3.31,0-5.99-2.68-5.99-5.99c0-3.31,2.68-5.99,5.99-5.99
				C46.16,0,48.84,2.68,48.84,5.99z"/>
			<path class="st0" d="M95.79,38c0-11.55-9.4-20.95-20.95-20.95c-3.56,0-6.91,0.9-9.85,2.47L65,19.52l-0.03,0.02l-0.01-0.02
				l-4.43,2.54l-0.01,0.01v0l-11.65,6.69v-5.71h-0.04c-0.18-3.15-2.78-5.65-5.97-5.65c-3.19,0-5.79,2.5-5.97,5.65h-0.01v0.29
				c0,0.02,0,0.03,0,0.05c0,0.02,0,0.03,0,0.05v12.21L18.16,46.37l0,0.01c-6.65,3.52-11.2,10.5-11.2,18.53
				c0,11.55,9.4,20.95,20.95,20.95c11.44,0,20.76-9.22,20.94-20.62h0.02v-0.33c0,0,0,0,0,0v-3.52h0v-18.8l22.06-12.66l0.01,0.02
				c1.18-0.57,2.5-0.9,3.89-0.9c4.94,0,8.95,4.02,8.95,8.95c0,2.79-1.29,5.29-3.3,6.94l-4.66,3.09l0,0L56.59,60.65l0,0.01
				c-1.62,0.98-2.71,2.75-2.71,4.78c0,0.08,0.01,0.15,0.01,0.23h-0.01v23.79v23.79c0,1.66,1.34,3,3,3c1.66,0,3-1.34,3-3l0,0V94.86
				c0.08,0,0.16,0.01,0.24,0.01c3.07,0,5.57-2.4,5.76-5.42h0.01v-0.12c0-0.08,0.01-0.16,0.01-0.23s-0.01-0.16-0.01-0.23V68.9
				l21.2-13.91l-0.01-0.02C92.34,51.16,95.79,44.98,95.79,38z M27.92,73.86c-4.94,0-8.95-4.02-8.95-8.95c0-3.62,2.16-6.74,5.25-8.15
				l3.69-2.14l8.96-5.14v15.44C36.87,69.85,32.85,73.86,27.92,73.86z"/>
		</g>
	</g>
	<g>
		<path class="st0" d="M3.32,128.99H7.3v10.21c0,1.22-0.33,2.23-0.97,3c-0.63,0.75-1.49,1.12-2.63,1.12c-1.14,0-2.1-0.44-2.92-1.34L0,141.12
			v2.25l0.16,0.13c1.04,0.89,2.2,1.33,3.46,1.33h0.22c1.51,0,2.75-0.54,3.69-1.62c0.92-1.06,1.39-2.44,1.39-4.11v-11.65H3.32V128.99
			z"/>
		<path class="st0" d="M15.78,133.69c-1.37,0-2.47,0.4-3.28,1.18v-7.38h-1.59v17.03h1.59v-6.09c0-0.87,0.32-1.61,0.99-2.26
			c0.66-0.65,1.41-0.97,2.29-0.97c0.87,0,1.6,0.31,2.22,0.95c0.62,0.64,0.93,1.39,0.93,2.28v6.09h1.59v-6.09
			c0-1.31-0.46-2.44-1.37-3.35C18.24,134.15,17.1,133.69,15.78,133.69z"/>
		<path class="st0" d="M29.78,140.02c0,0.87-0.33,1.61-0.99,2.26c-0.67,0.65-1.43,0.97-2.3,0.97c-0.87,0-1.59-0.31-2.21-0.96
			c-0.62-0.65-0.92-1.4-0.92-2.27v-6.09h-1.59v6.09c0,1.31,0.46,2.43,1.36,3.35c0.9,0.92,2.03,1.38,3.36,1.38
			c1.38,0,2.48-0.42,3.3-1.24v1h1.59v-10.59h-1.59V140.02z"/>
		<path class="st0" d="M41.82,135.32c-0.3-0.32-0.67-0.6-1.08-0.84c-0.91-0.53-1.87-0.79-2.86-0.79c-1.52,0-2.85,0.55-3.93,1.63
			c-1.09,1.08-1.64,2.39-1.64,3.9c0,1.51,0.55,2.82,1.64,3.9c1.09,1.08,2.41,1.63,3.93,1.63c1,0,1.94-0.26,2.81-0.77
			c0.43-0.25,0.81-0.55,1.13-0.9v1.43h1.59v-10.59h-1.59V135.32z M40.68,136.39c0.79,0.81,1.18,1.74,1.18,2.84
			c0,1.1-0.38,2.03-1.16,2.83c-0.78,0.8-1.69,1.19-2.79,1.19c-1.1,0-2.02-0.39-2.83-1.19c-0.8-0.8-1.19-1.72-1.19-2.82
			c0-1.09,0.39-2.02,1.2-2.84c0.8-0.82,1.72-1.21,2.81-1.21C38.98,135.19,39.9,135.58,40.68,136.39z"/>
		<path class="st0" d="M49.97,133.69c-1.38,0-2.48,0.42-3.3,1.24v-1h-1.59v10.59h1.59v-6.09c0-0.87,0.33-1.61,0.99-2.26
			c0.67-0.65,1.43-0.97,2.3-0.97c0.87,0,1.59,0.31,2.21,0.96c0.62,0.65,0.92,1.4,0.92,2.27v6.09h1.59v-6.09
			c0-1.31-0.46-2.43-1.36-3.35C52.43,134.15,51.3,133.69,49.97,133.69z"/>
		<path class="st0" d="M65.37,135.35c-0.32-0.34-0.7-0.63-1.13-0.88c-0.88-0.5-1.83-0.76-2.84-0.76c-1.52,0-2.85,0.55-3.93,1.63
			c-1.09,1.08-1.64,2.39-1.64,3.9s0.55,2.82,1.64,3.9c1.09,1.08,2.41,1.63,3.93,1.63c0.97,0,1.91-0.26,2.81-0.77
			c0.44-0.25,0.83-0.55,1.16-0.88v0.04c0,1.35-0.36,2.43-1.08,3.19c-0.72,0.77-1.63,1.14-2.77,1.14c-0.75,0-1.49-0.21-2.22-0.63
			c-0.72-0.41-1.25-0.93-1.58-1.55l-0.84-1.56v2.91l0.08,0.12c0.47,0.66,1.14,1.2,1.98,1.61c0.83,0.4,1.7,0.6,2.58,0.6
			c1.61,0,2.94-0.53,3.94-1.58c1-1.05,1.5-2.47,1.5-4.25v-9.23h-1.59V135.35z M64.23,136.4c0.78,0.8,1.16,1.73,1.16,2.84
			c0,1.11-0.38,2.04-1.17,2.84c-0.78,0.8-1.69,1.19-2.79,1.19c-1.1,0-2.02-0.39-2.83-1.19c-0.8-0.8-1.19-1.73-1.19-2.84
			c0-1.11,0.39-2.04,1.19-2.84c0.8-0.8,1.73-1.19,2.83-1.19C62.54,135.21,63.45,135.6,64.23,136.4z"/>
		<path class="st0" d="M70.11,127.47h-1.16v17.05h1.61v-5.89c1.31-0.07,2.53-0.61,3.61-1.62c1.17-1.09,1.77-2.41,1.77-3.93
			c0-1.51-0.57-2.84-1.71-3.95C73.1,128.03,71.71,127.47,70.11,127.47z M70.56,137.13V129c0.95,0.06,1.78,0.46,2.54,1.22
			c0.83,0.83,1.24,1.76,1.24,2.87c0,1.1-0.4,2.04-1.21,2.85C72.37,136.67,71.53,137.06,70.56,137.13z"/>
		<path class="st0" d="M78.12,130.42c-0.66,0-1.07,0.39-1.07,1.03s0.41,1.03,1.07,1.03c0.66,0,1.07-0.4,1.07-1.03S78.78,130.42,78.12,130.42z"/>
		<rect class="st0" x="77.33" y="133.95" width="1.59" height="10.57"/>
		<path class="st0" d="M85.76,133.69c-1.38,0-2.48,0.42-3.3,1.24v-1h-1.59v10.59h1.59v-6.09c0-0.87,0.33-1.61,0.99-2.26
			c0.67-0.65,1.43-0.97,2.3-0.97c0.87,0,1.59,0.31,2.21,0.96c0.62,0.65,0.92,1.4,0.92,2.27v6.09h1.59v-6.09
			c0-1.31-0.46-2.43-1.36-3.35C88.22,134.15,87.09,133.69,85.76,133.69z"/>
		<path class="st0" d="M101.16,135.35c-0.32-0.34-0.7-0.63-1.13-0.88c-0.88-0.5-1.83-0.76-2.84-0.76c-1.52,0-2.85,0.55-3.93,1.63
			c-1.09,1.08-1.64,2.39-1.64,3.9s0.55,2.82,1.64,3.9c1.09,1.08,2.41,1.63,3.93,1.63c0.97,0,1.91-0.26,2.81-0.77
			c0.44-0.25,0.83-0.55,1.16-0.88v0.04c0,1.35-0.36,2.43-1.08,3.19c-0.72,0.77-1.63,1.14-2.77,1.14c-0.75,0-1.49-0.21-2.22-0.63
			c-0.72-0.41-1.25-0.93-1.58-1.55l-0.84-1.56v2.91l0.08,0.12c0.47,0.66,1.14,1.2,1.98,1.61c0.83,0.4,1.7,0.6,2.58,0.6
			c1.61,0,2.94-0.53,3.94-1.58c1-1.05,1.5-2.47,1.5-4.25v-9.23h-1.59V135.35z M100.02,136.4c0.78,0.8,1.16,1.73,1.16,2.84
			c0,1.11-0.38,2.04-1.17,2.84c-0.78,0.8-1.69,1.19-2.79,1.19c-1.1,0-2.02-0.39-2.83-1.19c-0.8-0.8-1.19-1.73-1.19-2.84
			c0-1.11,0.39-2.04,1.19-2.84c0.8-0.8,1.73-1.19,2.83-1.19C98.32,135.21,99.24,135.6,100.02,136.4z"/>
	</g>
</g>
</svg>
