<svg id="圖層_1" data-name="圖層 1" xmlns="http://www.w3.org/2000/svg" viewBox="0 0 215.7 196.58"><defs><style>.cls-1{fill:#7a7b7c;}.cls-2{fill:#ababac;}.cls-3{fill:#ccc;}</style></defs><path class="cls-1" d="M156.51,87.26H110.9l-3.44,3.45h50.77A1.73,1.73,0,0,0,160,89V38.21l-3.45,3.45ZM158.23,0H40.43A1.73,1.73,0,0,0,38.7,1.72V89a1.73,1.73,0,0,0,1.73,1.72H98l3.45-3.45H42.15V3.44H156.51v28.8L160,28.79V1.72A1.73,1.73,0,0,0,158.23,0Z"/><path class="cls-2" d="M121.61,50.64l7.86,8.64L127,61.72l-7-7.64-11.49,8a1.72,1.72,0,0,1-2.21-.21L87.85,43,60.79,73.64a1.72,1.72,0,0,1-2.59-2.27h0L86.49,39.29a1.73,1.73,0,0,1,1.24-.59,1.76,1.76,0,0,1,1.28.52L107.85,58.4l11.53-8A1.72,1.72,0,0,1,121.61,50.64Z"/><path class="cls-2" d="M140.33,73.79a1.72,1.72,0,0,1-2.42-.1v0l-6.38-7L134,64.23l6.49,7.14a1.71,1.71,0,0,1-.12,2.42Z"/><path class="cls-2" d="M122.48,19a8.73,8.73,0,1,0,8.73,8.73A8.73,8.73,0,0,0,122.48,19Zm0,14a5.28,5.28,0,1,1,5.28-5.28h0A5.29,5.29,0,0,1,122.48,33Z"/><path class="cls-1" d="M92.41,106a1.73,1.73,0,0,1-1.22-2.94l82.87-82.87a1.7,1.7,0,0,1,2.4,0l0,0a1.72,1.72,0,0,1,0,2.43L93.62,105.49A1.67,1.67,0,0,1,92.41,106Z"/><path class="cls-3" d="M28,184.54h-4.8L3.67,154.48h-.2q.07,1.2.18,2.73c.06,1,.11,2.1.16,3.25s.06,2.33.06,3.52v20.56H0V148.79H4.77l19.44,30h.17q0-.85-.12-2.43c-.05-1.06-.1-2.19-.14-3.41s-.06-2.34-.06-3.39V148.79H28Z"/><path class="cls-3" d="M60.26,171.07a18.73,18.73,0,0,1-.85,5.9,12.12,12.12,0,0,1-2.47,4.38A10.49,10.49,0,0,1,53,184.08a13.49,13.49,0,0,1-5.18,1,12.67,12.67,0,0,1-4.93-1,10.66,10.66,0,0,1-3.87-2.73A12.38,12.38,0,0,1,36.53,177a18.17,18.17,0,0,1-.89-5.9,17.29,17.29,0,0,1,1.49-7.5,10.67,10.67,0,0,1,4.27-4.72A12.89,12.89,0,0,1,48,157.22a12.34,12.34,0,0,1,6.42,1.64,11,11,0,0,1,4.28,4.74A16.75,16.75,0,0,1,60.26,171.07Zm-20.41,0a16.45,16.45,0,0,0,.86,5.61,7.06,7.06,0,0,0,7.24,5,7.63,7.63,0,0,0,4.59-1.3,7.54,7.54,0,0,0,2.66-3.67,16.69,16.69,0,0,0,.85-5.61,16.29,16.29,0,0,0-.85-5.54A7.42,7.42,0,0,0,52.55,162a7.79,7.79,0,0,0-4.62-1.27c-2.79,0-4.84.92-6.13,2.76A13.06,13.06,0,0,0,39.85,171.07Z"/><path class="cls-3" d="M82.39,147.67a2.5,2.5,0,0,1,1.73.65,3.19,3.19,0,0,1,0,4,2.62,2.62,0,0,1-3.48,0,3.24,3.24,0,0,1,0-4A2.46,2.46,0,0,1,82.39,147.67Zm2,10V184.5H80.32V157.71Z"/><path class="cls-3" d="M122.1,157.22c3,0,5.17.77,6.68,2.31s2.26,4,2.25,7.43v17.58h-4V167.16a7.31,7.31,0,0,0-1.41-4.89,5.23,5.23,0,0,0-4.17-1.62c-2.6,0-4.48.75-5.66,2.25s-1.76,3.71-1.76,6.63v15h-4V167.16a9.2,9.2,0,0,0-.62-3.63,4.5,4.5,0,0,0-1.86-2.16,6.19,6.19,0,0,0-3.13-.72,7.4,7.4,0,0,0-4.28,1.1A6.09,6.09,0,0,0,97.8,165a17.09,17.09,0,0,0-.72,5.32v14.2H93V157.71H96.3l.61,3.79h.22a8.2,8.2,0,0,1,2-2.35,9.1,9.1,0,0,1,2.74-1.44,10.37,10.37,0,0,1,3.23-.49,10.5,10.5,0,0,1,5.13,1.14,6.65,6.65,0,0,1,3,3.46h.22a8.4,8.4,0,0,1,3.62-3.46A11.26,11.26,0,0,1,122.1,157.22Z"/><path class="cls-3" d="M149.41,157.27q4.8,0,7.13,2.15c1.55,1.43,2.33,3.73,2.32,6.88v18.24h-3l-.78-4h-.2a14,14,0,0,1-2.35,2.46,8.45,8.45,0,0,1-2.83,1.49,13,13,0,0,1-3.92.51,10.5,10.5,0,0,1-4.35-.86,6.81,6.81,0,0,1-3-2.59,8.21,8.21,0,0,1-1.08-4.41,7,7,0,0,1,3.18-6.17q3.18-2.15,9.69-2.35l4.63-.2v-1.63c0-2.31-.5-3.94-1.5-4.87a5.92,5.92,0,0,0-4.21-1.39,12.9,12.9,0,0,0-4,.61,29,29,0,0,0-3.62,1.44l-1.25-3.08a22,22,0,0,1,4.16-1.59A18.2,18.2,0,0,1,149.41,157.27Zm5.44,14-4.09.17c-3.35.13-5.7.68-7.07,1.64a4.7,4.7,0,0,0-2.06,4.09,4.08,4.08,0,0,0,1.4,3.4,5.8,5.8,0,0,0,3.69,1.1,8.59,8.59,0,0,0,5.85-2c1.52-1.32,2.28-3.31,2.28-6Z"/><path class="cls-3" d="M174.72,196.58q-5.28,0-8.15-2a6.31,6.31,0,0,1-2.86-5.52,6.22,6.22,0,0,1,1.6-4.31,7.94,7.94,0,0,1,4.45-2.37,4.76,4.76,0,0,1-1.8-1.47,3.59,3.59,0,0,1-.75-2.25,4.23,4.23,0,0,1,.82-2.59,8.74,8.74,0,0,1,2.51-2.14,7.28,7.28,0,0,1-3.42-2.9,8.7,8.7,0,0,1-1.31-4.76,9.56,9.56,0,0,1,1.2-4.93,7.8,7.8,0,0,1,3.48-3.12,12.88,12.88,0,0,1,5.51-1.08,11.09,11.09,0,0,1,1.43.06c.43.06.94.1,1.38.17a9.1,9.1,0,0,1,1.15.26h9.21v2.62l-4.95.61a8.79,8.79,0,0,1,1.23,2.3,9,9,0,0,1,.49,3,8,8,0,0,1-2.72,6.37,11,11,0,0,1-7.47,2.37,13.65,13.65,0,0,1-2.3-.2,5.76,5.76,0,0,0-1.82,1.47A3,3,0,0,0,171,178a1.66,1.66,0,0,0,.48,1.25,2.88,2.88,0,0,0,1.38.67,10,10,0,0,0,2.18.21h4.73q4.38,0,6.72,1.84a6.42,6.42,0,0,1,2.33,5.36,7.68,7.68,0,0,1-3.62,6.83Q181.58,196.58,174.72,196.58Zm.13-3.18a18.74,18.74,0,0,0,5.52-.68,6.87,6.87,0,0,0,3.28-1.93,4.46,4.46,0,0,0,1.09-3,3.55,3.55,0,0,0-.74-2.43,3.69,3.69,0,0,0-2.15-1.1,17.65,17.65,0,0,0-3.48-.29h-4.65a8.12,8.12,0,0,0-3.16.57,4.49,4.49,0,0,0-2.07,1.66,5,5,0,0,0-.72,2.74,3.68,3.68,0,0,0,1.84,3.32A10,10,0,0,0,174.85,193.4ZM175.9,172a5.94,5.94,0,0,0,4.38-1.47,5.82,5.82,0,0,0,1.47-4.29,6.18,6.18,0,0,0-1.49-4.51,6,6,0,0,0-4.41-1.51,5.7,5.7,0,0,0-4.3,1.56,6.28,6.28,0,0,0-1.5,4.54,5.61,5.61,0,0,0,1.52,4.21A6,6,0,0,0,175.9,172Z"/><path class="cls-3" d="M204.78,157.22a11,11,0,0,1,5.88,1.52A9.73,9.73,0,0,1,214.4,163a14.59,14.59,0,0,1,1.3,6.38v2.52H197.17q.08,4.73,2.35,7.2a8.31,8.31,0,0,0,6.41,2.47,19.51,19.51,0,0,0,4.51-.46,24.28,24.28,0,0,0,4.06-1.38v3.58a20,20,0,0,1-4,1.32,23.25,23.25,0,0,1-4.71.42,13.88,13.88,0,0,1-6.74-1.58,10.83,10.83,0,0,1-4.5-4.66A16.15,16.15,0,0,1,193,171.3a17.89,17.89,0,0,1,1.46-7.5,10.8,10.8,0,0,1,10.36-6.6Zm0,3.33a6.63,6.63,0,0,0-5.18,2.13,10,10,0,0,0-2.31,6h14.2a12,12,0,0,0-.74-4.23,6.23,6.23,0,0,0-2.2-2.84,6.54,6.54,0,0,0-3.82-1.06Z"/></svg>