<svg id="圖層_1" data-name="圖層 1" xmlns="http://www.w3.org/2000/svg" viewBox="0 0 272.21 41.98"><defs><style>.cls-1{fill:#fff;}</style></defs><path class="cls-1" d="M32.65,5.47a1.91,1.91,0,0,0-1.19,1.21,9.59,9.59,0,0,0-.31,2.9V35.67a9.51,9.51,0,0,0,.31,2.89,1.93,1.93,0,0,0,1.19,1.22,10.36,10.36,0,0,0,2.76.42v1c-1.48-.11-3.72-.16-6.74-.16q-4.26,0-6.68.16v-1a10.51,10.51,0,0,0,2.76-.42,1.93,1.93,0,0,0,1.19-1.22,9.51,9.51,0,0,0,.31-2.89V23H9.15V35.67a9.44,9.44,0,0,0,.32,2.89,1.93,1.93,0,0,0,1.18,1.22,10.53,10.53,0,0,0,2.77.42v1c-1.62-.11-3.84-.16-6.69-.16-3,0-5.26,0-6.73.16v-1a10.51,10.51,0,0,0,2.76-.42A1.93,1.93,0,0,0,4,38.56a9.51,9.51,0,0,0,.31-2.89V9.58A9.59,9.59,0,0,0,4,6.68,1.91,1.91,0,0,0,2.76,5.47,10.51,10.51,0,0,0,0,5.05V4c1.47.1,3.72.16,6.73.16,2.81,0,5-.06,6.69-.16v1a10.53,10.53,0,0,0-2.77.42A1.92,1.92,0,0,0,9.47,6.68a9.52,9.52,0,0,0-.32,2.9V22h17.1V9.58a9.59,9.59,0,0,0-.31-2.9,1.91,1.91,0,0,0-1.19-1.21A10.51,10.51,0,0,0,22,5.05V4c1.61.1,3.84.16,6.68.16,3,0,5.26-.06,6.74-.16v1A10.36,10.36,0,0,0,32.65,5.47Z"/><path class="cls-1" d="M61,34.93a10.53,10.53,0,0,1-3.55,5A9.8,9.8,0,0,1,51.19,42a11.94,11.94,0,0,1-6.47-1.71,11,11,0,0,1-4.18-4.78,16.51,16.51,0,0,1-1.45-7.13,19.79,19.79,0,0,1,1.47-7.95,11.75,11.75,0,0,1,4.16-5.18A10.89,10.89,0,0,1,51,13.42q4.74,0,7.29,2.86T60.82,25H44.35a33.42,33.42,0,0,0-.16,3.37,15,15,0,0,0,1.13,6,9.74,9.74,0,0,0,3,4,6.49,6.49,0,0,0,3.92,1.4,8.23,8.23,0,0,0,4.47-1.22A9,9,0,0,0,60,34.51ZM46.51,16.84A14.12,14.12,0,0,0,44.3,24H55.77a15.12,15.12,0,0,0-1.19-6.84,4.1,4.1,0,0,0-3.81-2.73A5.18,5.18,0,0,0,46.51,16.84Z"/><path class="cls-1" d="M73.18,36.36a3.93,3.93,0,0,0,.9,3,4.61,4.61,0,0,0,3.1.81v1.11Q72.34,41,70.81,41c-1,0-3.14.07-6.36.21V40.14a4.61,4.61,0,0,0,3.1-.81,3.93,3.93,0,0,0,.9-3v-30a5.56,5.56,0,0,0-.9-3.52,3.77,3.77,0,0,0-3.1-1.11V.58c1.09.1,2.17.16,3.26.16A17.21,17.21,0,0,0,73.18,0Z"/><path class="cls-1" d="M88.23,36.36a4,4,0,0,0,.89,3,4.64,4.64,0,0,0,3.11.81v1.11Q87.39,41,85.86,41t-6.36.21V40.14a4.63,4.63,0,0,0,3.1-.81,3.93,3.93,0,0,0,.89-3v-30a5.57,5.57,0,0,0-.89-3.52,3.78,3.78,0,0,0-3.1-1.11V.58c1.08.1,2.17.16,3.26.16A17.21,17.21,0,0,0,88.23,0Z"/><path class="cls-1" d="M115.93,17q3.28,3.54,3.29,10.76t-3.29,10.73a12.4,12.4,0,0,1-17.31,0q-3.28-3.52-3.29-10.73T98.62,17a12.33,12.33,0,0,1,17.31,0Zm-13.65.73q-1.84,3.24-1.84,10t1.84,10a5.49,5.49,0,0,0,10,0q1.85-3.21,1.84-10t-1.84-10q-1.84-3.22-5-3.23A5.58,5.58,0,0,0,102.28,17.7Z"/><path class="cls-1" d="M180.77,4v1c-2,.46-3.35,2-4.15,4.58l-10,31.88h-.84l-9.15-27.09-8.37,27.09h-.84L136.32,8.42q-1.11-3.27-3.63-3.37V4c1.43.1,3.31.16,5.62.16,2.53,0,4.42-.06,5.69-.16v1a4,4,0,0,0-2,.53,1.5,1.5,0,0,0-.58,1.31A9.08,9.08,0,0,0,142,9.47l7.68,23.47,6.42-20.37-1.42-4.15q-1.05-3.27-3.11-3.37V4c1.27.1,3,.16,5.11.16,3,0,5.26-.06,6.73-.16v1a9,9,0,0,0-2.79.45A1.42,1.42,0,0,0,159.83,7a8.51,8.51,0,0,0,.53,2.52l7.58,23.41,6.47-20.36a14.38,14.38,0,0,0,.84-4.26,2.75,2.75,0,0,0-1.05-2.45,6.7,6.7,0,0,0-3.42-.76V4c2,.1,4,.16,6.05.16C178.41,4.16,179.72,4.1,180.77,4Z"/><path class="cls-1" d="M200.11,17q3.28,3.54,3.29,10.76t-3.29,10.73a12.4,12.4,0,0,1-17.31,0q-3.28-3.52-3.29-10.73T182.8,17a12.33,12.33,0,0,1,17.31,0Zm-13.65.73q-1.85,3.24-1.85,10t1.85,10a5.49,5.49,0,0,0,10,0q1.85-3.21,1.84-10t-1.84-10a5.48,5.48,0,0,0-10,0Z"/><path class="cls-1" d="M227.2,14.63a3.79,3.79,0,0,1,1.34,2.94,3.51,3.51,0,0,1-.81,2.34,2.7,2.7,0,0,1-2.18,1,2.86,2.86,0,0,1-2-.74,2.57,2.57,0,0,1-.81-2,3.25,3.25,0,0,1,1.79-2.84,1.28,1.28,0,0,0-1.11-.53,5.28,5.28,0,0,0-3.73,1.61,11.09,11.09,0,0,0-2.63,3.92,11.39,11.39,0,0,0-1,4.37V35.83a3.79,3.79,0,0,0,1.39,3.37,7.53,7.53,0,0,0,4.19.94v1.11l-1.27,0c-3.57-.11-5.86-.16-6.84-.16s-3,.07-6.21.21V40.14a4.64,4.64,0,0,0,3.11-.81,4,4,0,0,0,.89-3V19.89a5.65,5.65,0,0,0-.89-3.53,3.82,3.82,0,0,0-3.11-1.1V14.15c1.13.11,2.21.16,3.27.16a16.93,16.93,0,0,0,5.47-.74v6.58a12.52,12.52,0,0,1,3-4.68,6.42,6.42,0,0,1,4.61-2.05A4.92,4.92,0,0,1,227.2,14.63Z"/><path class="cls-1" d="M238.12,36.36a4,4,0,0,0,.89,3,4.66,4.66,0,0,0,3.11.81v1.11q-4.85-.21-6.37-.21c-1,0-3.14.07-6.36.21V40.14a4.63,4.63,0,0,0,3.1-.81,3.93,3.93,0,0,0,.9-3v-30a5.56,5.56,0,0,0-.9-3.52,3.78,3.78,0,0,0-3.1-1.11V.58c1.08.1,2.17.16,3.26.16A17.21,17.21,0,0,0,238.12,0Z"/><path class="cls-1" d="M269.11,39a3.77,3.77,0,0,0,3.1,1.1v1.11a32.34,32.34,0,0,0-3.26-.16,16.93,16.93,0,0,0-5.47.74V37.14a7.51,7.51,0,0,1-2.84,3.61A8.33,8.33,0,0,1,256,42a9.53,9.53,0,0,1-7.92-3.63q-2.86-3.63-2.81-10.62a17.48,17.48,0,0,1,1.6-7.82,11.11,11.11,0,0,1,10.29-6.49,8.58,8.58,0,0,1,3.65.76,6.14,6.14,0,0,1,2.66,2.34V6.31a5.56,5.56,0,0,0-.9-3.52,3.77,3.77,0,0,0-3.1-1.11V.58c1.12.1,2.21.16,3.26.16A17.16,17.16,0,0,0,268.21,0V35.51A5.58,5.58,0,0,0,269.11,39Zm-7.89-.21a8.62,8.62,0,0,0,2.26-4.47V18.68a5.68,5.68,0,0,0-5.89-4q-3.27,0-5.26,3.34t-2,9.76q-.06,6.32,1.79,9.49a5.84,5.84,0,0,0,5.36,3.19A5.19,5.19,0,0,0,261.22,38.83Z"/></svg>