<svg id="圖層_1" data-name="圖層 1" xmlns="http://www.w3.org/2000/svg" viewBox="0 0 225.43 216.25"><defs><style>.cls-1{fill:#fff;}.cls-2{fill:#1a499d;}</style></defs><path class="cls-1" d="M180.19,216.25A45.26,45.26,0,0,1,137.44,156a18.92,18.92,0,0,0-27.7-22.39c-1.33.81-2.72,1.6-4.1,2.33A72.11,72.11,0,1,1,141,93.54a73.42,73.42,0,0,1-4.21,10.57,18.92,18.92,0,0,0,24.75,25.59,45.28,45.28,0,1,1,18.7,86.55ZM57.83,30.61a41,41,0,0,0-19.26,4.77,41.51,41.51,0,0,0,19.34,78.25,41.12,41.12,0,0,0,19.27-4.77A41.51,41.51,0,0,0,57.83,30.61Z"/><circle class="cls-2" cx="180.1" cy="71.96" r="16.57"/></svg>