<?xml version="1.0" encoding="utf-8"?>
<!-- Generator: Adobe Illustrator 16.0.0, SVG Export Plug-In . SVG Version: 6.00 Build 0)  -->
<!DOCTYPE svg PUBLIC "-//W3C//DTD SVG 1.1//EN" "http://www.w3.org/Graphics/SVG/1.1/DTD/svg11.dtd">
<svg version="1.1" id="圖層_1" xmlns="http://www.w3.org/2000/svg" xmlns:xlink="http://www.w3.org/1999/xlink" x="0px" y="0px"
	 width="1920px" height="600px" viewBox="0 0 1920 600" enable-background="new 0 0 1920 600" xml:space="preserve">
<g id="bg_1_">
	<rect y="0" fill="#0D0D0D" width="1920.5" height="600"/>
	
		<linearGradient id="SVGID_1_" gradientUnits="userSpaceOnUse" x1="-539.0098" y1="303.4006" x2="1381.4902" y2="303.4006" gradientTransform="matrix(1 0 0 -1 539.0098 603.4009)">
		<stop  offset="0" style="stop-color:#212121"/>
		<stop  offset="1" style="stop-color:#171C50"/>
	</linearGradient>
	<rect y="0" opacity="0.3" fill="url(#SVGID_1_)" enable-background="new    " width="1920.5" height="600"/>
</g>
<g id="Straight-Line">
	
		<line opacity="0.1" fill="none" stroke="#FFFFFF" stroke-miterlimit="10" enable-background="new    " x1="0" y1="24" x2="1920" y2="24"/>
	
		<line opacity="0.1" fill="none" stroke="#FFFFFF" stroke-miterlimit="10" enable-background="new    " x1="0" y1="74.818" x2="1920" y2="74.818"/>
	
		<line opacity="0.1" fill="none" stroke="#FFFFFF" stroke-miterlimit="10" enable-background="new    " x1="0" y1="125.636" x2="1920" y2="125.636"/>
	
		<line opacity="0.1" fill="none" stroke="#FFFFFF" stroke-miterlimit="10" enable-background="new    " x1="0" y1="176.455" x2="1920" y2="176.455"/>
	
		<line opacity="0.1" fill="none" stroke="#FFFFFF" stroke-miterlimit="10" enable-background="new    " x1="0" y1="227.273" x2="1920" y2="227.273"/>
	
		<line opacity="0.1" fill="none" stroke="#FFFFFF" stroke-miterlimit="10" enable-background="new    " x1="0" y1="278.091" x2="1920" y2="278.091"/>
	
		<line opacity="0.1" fill="none" stroke="#FFFFFF" stroke-miterlimit="10" enable-background="new    " x1="0" y1="328.908" x2="1920" y2="328.908"/>
	
		<line opacity="0.1" fill="none" stroke="#FFFFFF" stroke-miterlimit="10" enable-background="new    " x1="0" y1="379.728" x2="1920" y2="379.728"/>
	
		<line opacity="0.1" fill="none" stroke="#FFFFFF" stroke-miterlimit="10" enable-background="new    " x1="0" y1="430.546" x2="1920" y2="430.546"/>
	
		<line opacity="0.1" fill="none" stroke="#FFFFFF" stroke-miterlimit="10" enable-background="new    " x1="0" y1="481.363" x2="1920" y2="481.363"/>
	
		<line opacity="0.1" fill="none" stroke="#FFFFFF" stroke-miterlimit="10" enable-background="new    " x1="0" y1="532.182" x2="1920" y2="532.182"/>
	
		<line opacity="0.1" fill="none" stroke="#FFFFFF" stroke-miterlimit="10" enable-background="new    " x1="0" y1="583" x2="1920" y2="583"/>
</g>
<g id="Horizontal-Line">
	
		<line opacity="0.1" fill="none" stroke="#FFFFFF" stroke-miterlimit="10" enable-background="new    " x1="36.635" y1="0" x2="36.635" y2="601"/>
	
		<line opacity="0.1" fill="none" stroke="#FFFFFF" stroke-miterlimit="10" enable-background="new    " x1="96.277" y1="0" x2="96.277" y2="601"/>
	
		<line opacity="0.1" fill="none" stroke="#FFFFFF" stroke-miterlimit="10" enable-background="new    " x1="215.562" y1="0" x2="215.562" y2="601"/>
	
		<line opacity="0.1" fill="none" stroke="#FFFFFF" stroke-miterlimit="10" enable-background="new    " x1="155.92" y1="0" x2="155.92" y2="601"/>
	
		<line opacity="0.1" fill="none" stroke="#FFFFFF" stroke-miterlimit="10" enable-background="new    " x1="275.204" y1="0" x2="275.204" y2="601"/>
	
		<line opacity="0.1" fill="none" stroke="#FFFFFF" stroke-miterlimit="10" enable-background="new    " x1="334.847" y1="0" x2="334.847" y2="601"/>
	
		<line opacity="0.1" fill="none" stroke="#FFFFFF" stroke-miterlimit="10" enable-background="new    " x1="394.489" y1="0" x2="394.489" y2="601"/>
	
		<line opacity="0.1" fill="none" stroke="#FFFFFF" stroke-miterlimit="10" enable-background="new    " x1="454.131" y1="0" x2="454.131" y2="601"/>
	
		<line opacity="0.1" fill="none" stroke="#FFFFFF" stroke-miterlimit="10" enable-background="new    " x1="513.773" y1="0" x2="513.773" y2="601"/>
	
		<line opacity="0.1" fill="none" stroke="#FFFFFF" stroke-miterlimit="10" enable-background="new    " x1="633.058" y1="0" x2="633.058" y2="601"/>
	
		<line opacity="0.1" fill="none" stroke="#FFFFFF" stroke-miterlimit="10" enable-background="new    " x1="573.416" y1="0" x2="573.416" y2="601"/>
	
		<line opacity="0.1" fill="none" stroke="#FFFFFF" stroke-miterlimit="10" enable-background="new    " x1="692.7" y1="0" x2="692.7" y2="601"/>
	
		<line opacity="0.1" fill="none" stroke="#FFFFFF" stroke-miterlimit="10" enable-background="new    " x1="752.342" y1="0" x2="752.342" y2="601"/>
	
		<line opacity="0.1" fill="none" stroke="#FFFFFF" stroke-miterlimit="10" enable-background="new    " x1="811.985" y1="0" x2="811.985" y2="601"/>
	
		<line opacity="0.1" fill="none" stroke="#FFFFFF" stroke-miterlimit="10" enable-background="new    " x1="871.627" y1="0" x2="871.627" y2="601"/>
	
		<line opacity="0.1" fill="none" stroke="#FFFFFF" stroke-miterlimit="10" enable-background="new    " x1="931.27" y1="0" x2="931.27" y2="601"/>
	
		<line opacity="0.1" fill="none" stroke="#FFFFFF" stroke-miterlimit="10" enable-background="new    " x1="1050.554" y1="0" x2="1050.554" y2="601"/>
	
		<line opacity="0.1" fill="none" stroke="#FFFFFF" stroke-miterlimit="10" enable-background="new    " x1="990.911" y1="0" x2="990.911" y2="601"/>
	
		<line opacity="0.1" fill="none" stroke="#FFFFFF" stroke-miterlimit="10" enable-background="new    " x1="1110.196" y1="0" x2="1110.196" y2="601"/>
	
		<line opacity="0.1" fill="none" stroke="#FFFFFF" stroke-miterlimit="10" enable-background="new    " x1="1169.838" y1="0" x2="1169.838" y2="601"/>
	
		<line opacity="0.1" fill="none" stroke="#FFFFFF" stroke-miterlimit="10" enable-background="new    " x1="1229.48" y1="0" x2="1229.48" y2="601"/>
	
		<line opacity="0.1" fill="none" stroke="#FFFFFF" stroke-miterlimit="10" enable-background="new    " x1="1289.123" y1="0" x2="1289.123" y2="601"/>
	
		<line opacity="0.1" fill="none" stroke="#FFFFFF" stroke-miterlimit="10" enable-background="new    " x1="1348.766" y1="0" x2="1348.766" y2="601"/>
	
		<line opacity="0.1" fill="none" stroke="#FFFFFF" stroke-miterlimit="10" enable-background="new    " x1="1468.05" y1="0" x2="1468.05" y2="601"/>
	
		<line opacity="0.1" fill="none" stroke="#FFFFFF" stroke-miterlimit="10" enable-background="new    " x1="1408.407" y1="0" x2="1408.407" y2="601"/>
	
		<line opacity="0.1" fill="none" stroke="#FFFFFF" stroke-miterlimit="10" enable-background="new    " x1="1527.691" y1="0" x2="1527.691" y2="601"/>
	
		<line opacity="0.1" fill="none" stroke="#FFFFFF" stroke-miterlimit="10" enable-background="new    " x1="1587.334" y1="0" x2="1587.334" y2="601"/>
	
		<line opacity="0.1" fill="none" stroke="#FFFFFF" stroke-miterlimit="10" enable-background="new    " x1="1646.977" y1="0" x2="1646.977" y2="601"/>
	
		<line opacity="0.1" fill="none" stroke="#FFFFFF" stroke-miterlimit="10" enable-background="new    " x1="1706.618" y1="0" x2="1706.618" y2="601"/>
	
		<line opacity="0.1" fill="none" stroke="#FFFFFF" stroke-miterlimit="10" enable-background="new    " x1="1766.261" y1="0" x2="1766.261" y2="601"/>
	
		<line opacity="0.1" fill="none" stroke="#FFFFFF" stroke-miterlimit="10" enable-background="new    " x1="1825.902" y1="0" x2="1825.902" y2="601"/>
	
		<line opacity="0.1" fill="none" stroke="#FFFFFF" stroke-miterlimit="10" enable-background="new    " x1="1885.546" y1="0" x2="1885.546" y2="601"/>
</g>
<g id="圖層_2">
	<g>
		<g>
			<path fill="#AAAAAA" d="M1442.703,300.789c-1.768,0.062-3.249-1.32-3.312-3.087l0,0c-0.062-1.768,1.321-3.25,3.088-3.312
				l32.231-1.126c1.766-0.062,3.249,1.322,3.311,3.088l0,0c0.063,1.768-1.321,3.25-3.089,3.311L1442.703,300.789z"/>
			<path fill="#AAAAAA" d="M1442.467,310.921c-1.768-0.062-3.148-1.546-3.087-3.313l0,0c0.062-1.766,1.544-3.148,3.312-3.087
				l32.229,1.126c1.768,0.062,3.15,1.545,3.09,3.312l0,0c-0.063,1.767-1.546,3.149-3.313,3.088L1442.467,310.921z"/>
			<path fill="#AAAAAA" d="M1441.525,321.008c-1.759-0.185-3.034-1.76-2.85-3.52l0,0c0.186-1.758,1.76-3.033,3.518-2.849
				l32.074,3.37c1.759,0.186,3.034,1.762,2.851,3.52l0,0c-0.185,1.759-1.761,3.035-3.52,2.85L1441.525,321.008z"/>
			<path fill="#AAAAAA" d="M1439.882,331.006c-1.74-0.307-2.903-1.967-2.597-3.708l0,0c0.307-1.742,1.967-2.903,3.709-2.597
				l31.758,5.599c1.742,0.309,2.906,1.969,2.6,3.71l0,0c-0.307,1.742-1.969,2.903-3.709,2.597L1439.882,331.006z"/>
			<path fill="#AAAAAA" d="M1437.546,340.865c-1.715-0.429-2.761-2.165-2.331-3.881l0,0c0.427-1.717,2.164-2.761,3.881-2.332
				l31.291,7.801c1.717,0.428,2.761,2.166,2.333,3.882l0,0c-0.429,1.717-2.165,2.759-3.882,2.331L1437.546,340.865z"/>
			<path fill="#AAAAAA" d="M1434.528,350.535c-1.682-0.547-2.603-2.352-2.056-4.033l0,0c0.546-1.683,2.353-2.604,4.034-2.057
				l30.671,9.966c1.683,0.547,2.604,2.354,2.057,4.035l0,0c-0.547,1.681-2.354,2.602-4.035,2.055L1434.528,350.535z"/>
			<path fill="#AAAAAA" d="M1430.843,359.974c-1.641-0.663-2.433-2.528-1.771-4.168l0,0c0.662-1.64,2.529-2.432,4.168-1.77
				l29.9,12.081c1.642,0.662,2.433,2.529,1.771,4.168l0,0c-0.663,1.641-2.528,2.433-4.168,1.769L1430.843,359.974z"/>
			<path fill="#AAAAAA" d="M1426.508,369.131c-1.59-0.774-2.25-2.69-1.475-4.279l0,0c0.774-1.59,2.691-2.25,4.28-1.475
				l28.986,14.138c1.589,0.775,2.25,2.692,1.474,4.281l0,0c-0.775,1.59-2.692,2.249-4.28,1.473L1426.508,369.131z"/>
			<path fill="#AAAAAA" d="M1421.544,377.966c-1.531-0.885-2.056-2.843-1.173-4.375l0,0c0.885-1.529,2.843-2.055,4.374-1.171
				l27.929,16.125c1.531,0.884,2.057,2.843,1.173,4.374l0,0c-0.885,1.531-2.843,2.056-4.374,1.171L1421.544,377.966z"/>
			<path fill="#AAAAAA" d="M1415.977,386.432c-1.467-0.989-1.854-2.979-0.865-4.446l0,0c0.989-1.466,2.98-1.852,4.446-0.864
				l26.735,18.034c1.467,0.989,1.854,2.979,0.865,4.445l0,0c-0.989,1.467-2.979,1.853-4.445,0.863L1415.977,386.432z"/>
			<path fill="#AAAAAA" d="M1409.832,394.489c-1.394-1.09-1.641-3.102-0.553-4.495l0,0c1.088-1.394,3.102-1.641,4.495-0.552
				l25.413,19.855c1.393,1.088,1.641,3.102,0.553,4.494l0,0c-1.09,1.393-3.102,1.64-4.495,0.552L1409.832,394.489z"/>
			<path fill="#AAAAAA" d="M1403.141,402.095c-1.314-1.184-1.42-3.207-0.238-4.521l0,0c1.185-1.315,3.207-1.42,4.522-0.237
				l23.966,21.579c1.315,1.183,1.42,3.208,0.237,4.521l0,0c-1.183,1.314-3.207,1.421-4.521,0.237L1403.141,402.095z"/>
			<path fill="#AAAAAA" d="M1395.935,409.218c-1.228-1.272-1.192-3.299,0.079-4.527l0,0c1.271-1.228,3.3-1.192,4.527,0.079
				l22.402,23.199c1.228,1.272,1.192,3.299-0.078,4.527l0,0c-1.272,1.229-3.301,1.192-4.527-0.079L1395.935,409.218z"/>
			<path fill="#AAAAAA" d="M1388.25,415.823c-1.136-1.355-0.961-3.374,0.395-4.511l0,0c1.354-1.137,3.374-0.96,4.51,0.396
				l20.729,24.704c1.137,1.354,0.961,3.374-0.394,4.51l0,0c-1.355,1.137-3.374,0.96-4.511-0.395L1388.25,415.823z"/>
			<path fill="#AAAAAA" d="M1380.124,421.871c-1.04-1.43-0.724-3.432,0.707-4.472l0,0c1.431-1.041,3.433-0.724,4.474,0.709
				l18.956,26.089c1.038,1.432,0.722,3.434-0.709,4.474l0,0c-1.431,1.039-3.433,0.722-4.473-0.709L1380.124,421.871z"/>
			<path fill="#AAAAAA" d="M1371.594,427.34c-0.937-1.499-0.48-3.474,1.019-4.411l0,0c1.5-0.937,3.475-0.481,4.412,1.019
				l17.089,27.349c0.938,1.5,0.481,3.475-1.019,4.412l0,0c-1.499,0.937-3.474,0.481-4.411-1.019L1371.594,427.34z"/>
			<path fill="#AAAAAA" d="M1362.703,432.201c-0.829-1.561-0.237-3.501,1.324-4.33l0,0c1.562-0.831,3.501-0.237,4.331,1.324
				l15.141,28.474c0.829,1.562,0.237,3.501-1.325,4.331l0,0c-1.561,0.83-3.5,0.237-4.33-1.325L1362.703,432.201z"/>
			<path fill="#AAAAAA" d="M1353.496,436.431c-0.719-1.615,0.007-3.508,1.623-4.227l0,0c1.615-0.72,3.508,0.007,4.227,1.622
				l13.118,29.461c0.718,1.616-0.009,3.508-1.623,4.229l0,0c-1.616,0.72-3.509-0.009-4.228-1.623L1353.496,436.431z"/>
			<path fill="#AAAAAA" d="M1344.017,440.006c-0.605-1.662,0.251-3.499,1.913-4.103l0,0c1.662-0.604,3.5,0.252,4.104,1.913
				l11.03,30.305c0.604,1.662-0.252,3.499-1.913,4.104l0,0c-1.662,0.606-3.5-0.252-4.104-1.914L1344.017,440.006z"/>
			<path fill="#AAAAAA" d="M1334.31,442.911c-0.486-1.699,0.496-3.472,2.195-3.959l0,0c1.7-0.486,3.474,0.495,3.96,2.194
				l8.889,31.001c0.488,1.7-0.494,3.474-2.195,3.961l0,0c-1.699,0.486-3.473-0.496-3.959-2.197L1334.31,442.911z"/>
			<path fill="#AAAAAA" d="M1324.425,445.136c-0.367-1.729,0.735-3.43,2.466-3.797l0,0c1.73-0.369,3.43,0.735,3.798,2.466
				l6.705,31.545c0.367,1.729-0.735,3.431-2.466,3.798l0,0c-1.73,0.366-3.43-0.735-3.798-2.467L1324.425,445.136z"/>
			<path fill="#AAAAAA" d="M1321.089,445.723c-0.245-1.751-1.864-2.97-3.616-2.726l0,0c-1.751,0.247-2.971,1.865-2.726,3.617
				l4.489,31.936c0.245,1.75,1.864,2.971,3.616,2.725l0,0c1.752-0.245,2.971-1.865,2.725-3.616L1321.089,445.723z"/>
			<path fill="#AAAAAA" d="M1311.041,447.016c-0.125-1.764-1.654-3.094-3.417-2.97l0,0c-1.764,0.122-3.095,1.652-2.971,3.416
				l2.249,32.172c0.124,1.763,1.654,3.095,3.418,2.972l0,0c1.763-0.124,3.093-1.654,2.969-3.418L1311.041,447.016z"/>
			<path fill="#AAAAAA" d="M1300.926,447.605c0-1.769-1.435-3.201-3.202-3.201l0,0c-1.769,0-3.203,1.433-3.203,3.201v32.249
				c0,1.77,1.435,3.202,3.203,3.202l0,0c1.768,0,3.202-1.433,3.202-3.202V447.605z"/>
		</g>
		<g>
			<path fill="#AAAAAA" d="M1298.544,152.601c0,1.768,1.434,3.202,3.201,3.202l0,0c1.77,0,3.202-1.433,3.202-3.203v-32.249
				c0-1.768-1.434-3.202-3.202-3.202l0,0c-1.769,0-3.201,1.434-3.201,3.203V152.601z"/>
			<path fill="#AAAAAA" d="M1288.428,153.191c0.123,1.764,1.653,3.093,3.418,2.97l0,0c1.764-0.123,3.094-1.651,2.97-3.417
				l-2.25-32.17c-0.123-1.764-1.652-3.095-3.417-2.972l0,0c-1.764,0.124-3.094,1.654-2.97,3.417L1288.428,153.191z"/>
			<path fill="#AAAAAA" d="M1278.38,154.484c0.245,1.751,1.864,2.971,3.616,2.725l0,0c1.75-0.247,2.97-1.866,2.725-3.616
				l-4.488-31.936c-0.246-1.752-1.865-2.972-3.616-2.727l0,0c-1.751,0.246-2.971,1.865-2.725,3.616L1278.38,154.484z"/>
			<path fill="#AAAAAA" d="M1268.445,156.474c0.367,1.73,2.068,2.834,3.797,2.467l0,0c1.73-0.368,2.834-2.068,2.467-3.798
				l-6.704-31.544c-0.368-1.73-2.069-2.835-3.799-2.468l0,0c-1.729,0.368-2.833,2.069-2.466,3.799L1268.445,156.474z"/>
			<path fill="#AAAAAA" d="M1258.674,159.154c0.488,1.7,2.26,2.683,3.961,2.195l0,0c1.699-0.487,2.682-2.26,2.194-3.961l-8.889-31
				c-0.487-1.7-2.261-2.683-3.96-2.195l0,0c-1.7,0.487-2.683,2.261-2.195,3.961L1258.674,159.154z"/>
			<path fill="#AAAAAA" d="M1249.114,162.507c0.604,1.662,2.441,2.52,4.104,1.914l0,0c1.661-0.604,2.519-2.442,1.913-4.103
				l-11.029-30.305c-0.606-1.662-2.442-2.519-4.104-1.914l0,0c-1.661,0.605-2.518,2.442-1.913,4.104L1249.114,162.507z"/>
			<path fill="#AAAAAA" d="M1239.811,166.52c0.719,1.616,2.611,2.343,4.227,1.623l0,0c1.615-0.719,2.342-2.613,1.623-4.228
				l-13.118-29.462c-0.718-1.615-2.61-2.342-4.226-1.623l0,0c-1.616,0.72-2.343,2.612-1.623,4.227L1239.811,166.52z"/>
			<path fill="#AAAAAA" d="M1230.809,171.173c0.83,1.561,2.77,2.153,4.33,1.323l0,0c1.563-0.83,2.155-2.769,1.324-4.331
				l-15.139-28.475c-0.831-1.561-2.77-2.154-4.33-1.324l0,0c-1.563,0.83-2.155,2.769-1.324,4.329L1230.809,171.173z"/>
			<path fill="#AAAAAA" d="M1222.154,176.441c0.938,1.5,2.912,1.955,4.412,1.018l0,0c1.5-0.936,1.955-2.912,1.018-4.412
				l-17.09-27.35c-0.938-1.499-2.912-1.956-4.411-1.018l0,0c-1.501,0.938-1.956,2.913-1.019,4.412L1222.154,176.441z"/>
			<path fill="#AAAAAA" d="M1213.889,182.3c1.039,1.431,3.041,1.748,4.472,0.709l0,0c1.431-1.04,1.747-3.042,0.708-4.474
				l-18.956-26.089c-1.04-1.432-3.042-1.749-4.472-0.71l0,0c-1.431,1.04-1.748,3.042-0.709,4.473L1213.889,182.3z"/>
			<path fill="#AAAAAA" d="M1206.051,188.721c1.136,1.355,3.156,1.532,4.51,0.395l0,0c1.355-1.137,1.531-3.156,0.396-4.511
				l-20.73-24.704c-1.136-1.354-3.156-1.531-4.51-0.395l0,0c-1.355,1.138-1.53,3.157-0.396,4.512L1206.051,188.721z"/>
			<path fill="#AAAAAA" d="M1198.682,195.675c1.229,1.272,3.255,1.308,4.527,0.079l0,0c1.272-1.229,1.308-3.255,0.079-4.527
				l-22.401-23.199c-1.229-1.272-3.256-1.308-4.528-0.08l0,0c-1.271,1.228-1.308,3.255-0.078,4.527L1198.682,195.675z"/>
			<path fill="#AAAAAA" d="M1191.814,203.125c1.314,1.183,3.338,1.078,4.521-0.236l0,0c1.183-1.314,1.076-3.339-0.237-4.522
				l-23.966-21.58c-1.315-1.184-3.338-1.078-4.523,0.236l0,0c-1.183,1.314-1.076,3.34,0.239,4.521L1191.814,203.125z"/>
			<path fill="#AAAAAA" d="M1185.482,211.035c1.394,1.088,3.406,0.842,4.494-0.551l0,0c1.09-1.394,0.844-3.407-0.552-4.495
				l-25.413-19.854c-1.393-1.088-3.405-0.843-4.494,0.551l0,0c-1.089,1.394-0.842,3.406,0.553,4.494L1185.482,211.035z"/>
			<path fill="#AAAAAA" d="M1179.721,219.367c1.465,0.99,3.455,0.603,4.444-0.862l0,0c0.989-1.466,0.603-3.456-0.864-4.444
				l-26.736-18.035c-1.467-0.988-3.457-0.602-4.445,0.865l0,0c-0.988,1.465-0.602,3.456,0.865,4.446L1179.721,219.367z"/>
			<path fill="#AAAAAA" d="M1174.552,228.084c1.532,0.884,3.489,0.359,4.374-1.172l0,0c0.885-1.531,0.359-3.49-1.172-4.374
				l-27.928-16.125c-1.531-0.884-3.49-0.359-4.375,1.171l0,0c-0.884,1.532-0.358,3.49,1.172,4.374L1174.552,228.084z"/>
			<path fill="#AAAAAA" d="M1170.004,237.138c1.59,0.775,3.508,0.115,4.281-1.475l0,0c0.777-1.589,0.116-3.506-1.473-4.281
				l-28.986-14.138c-1.588-0.774-3.506-0.115-4.281,1.474l0,0c-0.773,1.589-0.113,3.506,1.475,4.281L1170.004,237.138z"/>
			<path fill="#AAAAAA" d="M1166.1,246.487c1.64,0.663,3.506-0.13,4.168-1.769l0,0c0.662-1.639-0.129-3.505-1.77-4.168l-29.9-12.082
				c-1.641-0.663-3.506,0.129-4.168,1.769l0,0c-0.663,1.64,0.129,3.506,1.77,4.168L1166.1,246.487z"/>
			<path fill="#AAAAAA" d="M1162.856,256.086c1.683,0.546,3.488-0.374,4.034-2.056l0,0c0.547-1.682-0.373-3.488-2.057-4.034
				l-30.67-9.967c-1.682-0.545-3.488,0.374-4.033,2.056l0,0c-0.548,1.683,0.373,3.488,2.055,4.035L1162.856,256.086z"/>
			<path fill="#AAAAAA" d="M1160.291,265.887c1.717,0.427,3.454-0.616,3.883-2.331l0,0c0.426-1.716-0.617-3.455-2.332-3.882
				l-31.291-7.802c-1.718-0.427-3.455,0.617-3.883,2.332l0,0c-0.427,1.715,0.616,3.454,2.332,3.882L1160.291,265.887z"/>
			<path fill="#AAAAAA" d="M1158.414,275.845c1.741,0.306,3.402-0.856,3.709-2.597l0,0c0.307-1.742-0.855-3.402-2.598-3.709
				l-31.758-5.6c-1.742-0.307-3.402,0.855-3.71,2.597l0,0c-0.308,1.742,0.855,3.402,2.598,3.709L1158.414,275.845z"/>
			<path fill="#AAAAAA" d="M1157.944,279.199c1.759,0.185,3.034,1.76,2.849,3.518l0,0c-0.186,1.76-1.76,3.035-3.519,2.851
				l-32.072-3.372c-1.759-0.184-3.036-1.76-2.851-3.519l0,0c0.186-1.759,1.761-3.034,3.52-2.849L1157.944,279.199z"/>
			<path fill="#AAAAAA" d="M1157.004,289.287c1.766,0.063,3.148,1.544,3.086,3.312l0,0c-0.061,1.767-1.543,3.15-3.311,3.088
				l-32.23-1.126c-1.767-0.062-3.149-1.544-3.088-3.311l0,0c0.063-1.767,1.545-3.149,3.313-3.087L1157.004,289.287z"/>
		</g>
		<g>
			<path fill="#AAAAAA" d="M1440.59,283.797c-1.763,0.123-3.093,1.654-2.969,3.417l0,0c0.123,1.765,1.651,3.095,3.416,2.97
				l32.17-2.249c1.766-0.124,3.096-1.653,2.972-3.417l0,0c-0.124-1.764-1.653-3.094-3.416-2.97L1440.59,283.797z"/>
			<path fill="#AAAAAA" d="M1439.297,273.747c-1.752,0.246-2.972,1.866-2.725,3.617l0,0c0.246,1.751,1.865,2.97,3.615,2.725
				l31.936-4.488c1.752-0.246,2.972-1.865,2.727-3.616l0,0c-0.245-1.751-1.865-2.97-3.616-2.725L1439.297,273.747z"/>
			<path fill="#AAAAAA" d="M1437.307,263.814c-1.73,0.367-2.835,2.068-2.468,3.797l0,0c0.368,1.729,2.069,2.833,3.798,2.466
				l31.545-6.705c1.729-0.368,2.834-2.069,2.467-3.798l0,0c-0.367-1.73-2.067-2.833-3.798-2.466L1437.307,263.814z"/>
			<path fill="#AAAAAA" d="M1434.627,254.042c-1.699,0.489-2.683,2.261-2.194,3.961l0,0c0.486,1.7,2.259,2.682,3.96,2.194l31-8.889
				c1.701-0.487,2.683-2.261,2.195-3.959l0,0c-0.488-1.7-2.261-2.682-3.96-2.195L1434.627,254.042z"/>
			<path fill="#AAAAAA" d="M1431.273,244.483c-1.663,0.605-2.521,2.442-1.914,4.103l0,0c0.604,1.662,2.443,2.518,4.103,1.914
				l30.305-11.031c1.663-0.605,2.52-2.441,1.915-4.104l0,0c-0.605-1.661-2.443-2.517-4.104-1.913L1431.273,244.483z"/>
			<path fill="#AAAAAA" d="M1427.261,235.179c-1.615,0.719-2.343,2.611-1.623,4.227l0,0c0.719,1.616,2.612,2.342,4.227,1.623
				l29.463-13.118c1.615-0.718,2.343-2.61,1.623-4.227l0,0c-0.721-1.615-2.613-2.342-4.228-1.622L1427.261,235.179z"/>
			<path fill="#AAAAAA" d="M1422.607,226.177c-1.559,0.83-2.153,2.77-1.322,4.331l0,0c0.829,1.562,2.769,2.154,4.33,1.324
				l28.475-15.139c1.561-0.83,2.154-2.77,1.324-4.331l0,0c-0.83-1.562-2.77-2.154-4.33-1.323L1422.607,226.177z"/>
			<path fill="#AAAAAA" d="M1417.34,217.522c-1.5,0.938-1.955,2.912-1.018,4.413l0,0c0.936,1.5,2.911,1.955,4.411,1.018
				l27.35-17.089c1.498-0.938,1.955-2.913,1.018-4.412l0,0c-0.938-1.5-2.913-1.956-4.411-1.019L1417.34,217.522z"/>
			<path fill="#AAAAAA" d="M1411.48,209.257c-1.432,1.039-1.748,3.041-0.709,4.472l0,0c1.041,1.43,3.043,1.748,4.475,0.708
				l26.089-18.956c1.43-1.041,1.748-3.043,0.709-4.473l0,0c-1.04-1.43-3.042-1.747-4.474-0.708L1411.48,209.257z"/>
			<path fill="#AAAAAA" d="M1405.059,201.419c-1.355,1.136-1.532,3.157-0.396,4.511l0,0c1.137,1.355,3.156,1.531,4.513,0.396
				l24.704-20.731c1.354-1.136,1.529-3.156,0.394-4.51l0,0c-1.137-1.355-3.156-1.53-4.511-0.395L1405.059,201.419z"/>
			<path fill="#AAAAAA" d="M1398.105,194.05c-1.271,1.229-1.307,3.255-0.078,4.528l0,0c1.229,1.272,3.256,1.308,4.527,0.079
				l23.198-22.402c1.272-1.229,1.308-3.256,0.08-4.527l0,0c-1.229-1.272-3.256-1.307-4.527-0.079L1398.105,194.05z"/>
			<path fill="#AAAAAA" d="M1390.656,187.183c-1.184,1.313-1.078,3.337,0.235,4.521l0,0c1.315,1.183,3.34,1.076,4.523-0.238
				l21.579-23.966c1.184-1.314,1.077-3.338-0.237-4.522l0,0c-1.313-1.184-3.339-1.077-4.521,0.238L1390.656,187.183z"/>
			<path fill="#AAAAAA" d="M1382.745,180.851c-1.088,1.394-0.842,3.406,0.552,4.494l0,0c1.395,1.089,3.406,0.844,4.494-0.552
				l19.854-25.413c1.09-1.393,0.844-3.405-0.551-4.495l0,0c-1.394-1.088-3.406-0.842-4.495,0.553L1382.745,180.851z"/>
			<path fill="#AAAAAA" d="M1374.413,175.088c-0.99,1.466-0.604,3.456,0.862,4.445l0,0c1.467,0.99,3.456,0.602,4.445-0.864
				l18.034-26.736c0.987-1.467,0.602-3.457-0.864-4.446l0,0c-1.465-0.989-3.457-0.601-4.446,0.865L1374.413,175.088z"/>
			<path fill="#AAAAAA" d="M1365.697,169.921c-0.885,1.531-0.359,3.49,1.171,4.374l0,0c1.532,0.884,3.49,0.359,4.373-1.171
				l16.126-27.929c0.885-1.532,0.358-3.49-1.171-4.374l0,0c-1.532-0.884-3.49-0.359-4.374,1.172L1365.697,169.921z"/>
			<path fill="#AAAAAA" d="M1356.642,165.373c-0.774,1.589-0.113,3.506,1.476,4.28l0,0c1.589,0.777,3.506,0.116,4.28-1.472
				l14.138-28.986c0.775-1.589,0.115-3.506-1.473-4.282l0,0c-1.591-0.774-3.507-0.114-4.281,1.475L1356.642,165.373z"/>
			<path fill="#AAAAAA" d="M1347.293,161.468c-0.663,1.64,0.13,3.506,1.77,4.168l0,0c1.64,0.662,3.506-0.13,4.167-1.77
				l12.081-29.901c0.663-1.64-0.129-3.505-1.769-4.168l0,0c-1.64-0.663-3.506,0.129-4.168,1.77L1347.293,161.468z"/>
			<path fill="#AAAAAA" d="M1337.695,158.225c-0.547,1.682,0.373,3.489,2.056,4.035l0,0c1.681,0.547,3.487-0.374,4.033-2.057
				l9.967-30.67c0.546-1.682-0.375-3.488-2.056-4.034l0,0c-1.684-0.547-3.488,0.374-4.035,2.055L1337.695,158.225z"/>
			<path fill="#AAAAAA" d="M1327.894,155.66c-0.428,1.716,0.615,3.454,2.331,3.882l0,0c1.715,0.427,3.453-0.617,3.881-2.332
				l7.803-31.291c0.426-1.717-0.617-3.454-2.332-3.882l0,0c-1.717-0.427-3.453,0.616-3.882,2.332L1327.894,155.66z"/>
			<path fill="#AAAAAA" d="M1317.936,153.782c-0.307,1.742,0.855,3.402,2.598,3.709l0,0c1.74,0.307,3.401-0.856,3.708-2.598
				l5.601-31.759c0.307-1.742-0.855-3.403-2.598-3.709l0,0c-1.742-0.307-3.401,0.855-3.708,2.597L1317.936,153.782z"/>
			<path fill="#AAAAAA" d="M1314.581,153.313c-0.185,1.758-1.759,3.034-3.518,2.849l0,0c-1.76-0.186-3.035-1.76-2.851-3.52
				l3.372-32.071c0.184-1.759,1.76-3.036,3.52-2.85l0,0c1.759,0.185,3.034,1.76,2.849,3.52L1314.581,153.313z"/>
		</g>
		<g>
			<path fill="#AAAAAA" d="M1157.598,305.595c1.768,0,3.201-1.434,3.201-3.201l0,0c0-1.77-1.432-3.203-3.201-3.202l-32.25-0.001
				c-1.768,0-3.202,1.435-3.202,3.203l0,0c0,1.769,1.435,3.201,3.203,3.201H1157.598z"/>
			<path fill="#AAAAAA" d="M1158.187,315.712c1.764-0.123,3.094-1.653,2.97-3.418l0,0c-0.123-1.764-1.651-3.094-3.416-2.97
				l-32.17,2.25c-1.766,0.124-3.096,1.652-2.973,3.417l0,0c0.123,1.763,1.654,3.093,3.416,2.97L1158.187,315.712z"/>
			<path fill="#AAAAAA" d="M1159.48,325.76c1.751-0.246,2.971-1.865,2.725-3.616l0,0c-0.246-1.75-1.865-2.97-3.615-2.725
				l-31.936,4.488c-1.752,0.246-2.973,1.865-2.727,3.616l0,0c0.245,1.75,1.865,2.97,3.616,2.725L1159.48,325.76z"/>
			<path fill="#AAAAAA" d="M1161.471,335.696c1.729-0.367,2.834-2.068,2.467-3.798l0,0c-0.368-1.729-2.069-2.833-3.797-2.466
				l-31.545,6.704c-1.73,0.368-2.836,2.068-2.468,3.798l0,0c0.367,1.73,2.067,2.833,3.798,2.466L1161.471,335.696z"/>
			<path fill="#AAAAAA" d="M1164.15,345.466c1.699-0.487,2.682-2.261,2.194-3.96l0,0c-0.487-1.7-2.26-2.683-3.96-2.195l-31,8.89
				c-1.701,0.486-2.684,2.261-2.195,3.96l0,0c0.487,1.699,2.262,2.682,3.96,2.195L1164.15,345.466z"/>
			<path fill="#AAAAAA" d="M1167.504,355.025c1.661-0.604,2.52-2.441,1.913-4.104l0,0c-0.604-1.661-2.442-2.518-4.104-1.913
				l-30.305,11.03c-1.662,0.606-2.519,2.442-1.914,4.104l0,0c0.605,1.662,2.444,2.519,4.104,1.914L1167.504,355.025z"/>
			<path fill="#AAAAAA" d="M1171.517,364.328c1.615-0.719,2.343-2.61,1.623-4.227l0,0c-0.72-1.615-2.612-2.341-4.228-1.623
				l-29.461,13.119c-1.615,0.719-2.343,2.61-1.623,4.227l0,0c0.721,1.615,2.612,2.341,4.227,1.621L1171.517,364.328z"/>
			<path fill="#AAAAAA" d="M1176.169,373.33c1.56-0.83,2.154-2.769,1.323-4.33l0,0c-0.83-1.562-2.769-2.154-4.33-1.323
				l-28.475,15.14c-1.561,0.829-2.154,2.769-1.324,4.33l0,0c0.83,1.561,2.77,2.153,4.33,1.323L1176.169,373.33z"/>
			<path fill="#AAAAAA" d="M1181.438,381.986c1.5-0.938,1.955-2.912,1.018-4.413l0,0c-0.936-1.5-2.911-1.955-4.411-1.017
				l-27.349,17.089c-1.5,0.938-1.957,2.913-1.02,4.412l0,0c0.938,1.5,2.913,1.956,4.412,1.019L1181.438,381.986z"/>
			<path fill="#AAAAAA" d="M1187.297,390.25c1.432-1.038,1.748-3.04,0.709-4.472l0,0c-1.041-1.43-3.043-1.747-4.475-0.708
				l-26.089,18.957c-1.431,1.04-1.748,3.042-0.709,4.472l0,0c1.04,1.43,3.042,1.748,4.473,0.708L1187.297,390.25z"/>
			<path fill="#AAAAAA" d="M1193.719,398.089c1.355-1.136,1.531-3.156,0.396-4.51l0,0c-1.138-1.356-3.157-1.532-4.512-0.396
				l-24.705,20.73c-1.354,1.137-1.53,3.156-0.395,4.51l0,0c1.138,1.354,3.157,1.531,4.512,0.395L1193.719,398.089z"/>
			<path fill="#AAAAAA" d="M1200.672,405.458c1.271-1.229,1.307-3.255,0.078-4.528l0,0c-1.229-1.272-3.256-1.308-4.527-0.079
				l-23.199,22.403c-1.271,1.228-1.307,3.255-0.079,4.527l0,0c1.229,1.271,3.255,1.307,4.527,0.079L1200.672,405.458z"/>
			<path fill="#AAAAAA" d="M1208.121,412.325c1.184-1.314,1.078-3.338-0.236-4.521l0,0c-1.314-1.184-3.339-1.077-4.522,0.237
				l-21.579,23.966c-1.184,1.315-1.077,3.338,0.236,4.522l0,0c1.314,1.183,3.34,1.077,4.521-0.237L1208.121,412.325z"/>
			<path fill="#AAAAAA" d="M1216.032,418.658c1.088-1.394,0.841-3.406-0.552-4.495l0,0c-1.395-1.09-3.406-0.844-4.494,0.553
				l-19.855,25.413c-1.089,1.392-0.842,3.405,0.551,4.494l0,0c1.395,1.089,3.406,0.841,4.496-0.553L1216.032,418.658z"/>
			<path fill="#AAAAAA" d="M1224.363,424.419c0.99-1.465,0.604-3.456-0.861-4.444l0,0c-1.467-0.99-3.457-0.603-4.445,0.864
				l-18.034,26.736c-0.988,1.467-0.602,3.456,0.864,4.445l0,0c1.465,0.989,3.455,0.601,4.446-0.864L1224.363,424.419z"/>
			<path fill="#AAAAAA" d="M1233.08,429.588c0.885-1.532,0.359-3.49-1.172-4.374l0,0c-1.531-0.885-3.489-0.359-4.373,1.171
				l-16.125,27.929c-0.885,1.531-0.359,3.491,1.171,4.374l0,0c1.532,0.885,3.489,0.358,4.374-1.171L1233.08,429.588z"/>
			<path fill="#AAAAAA" d="M1242.135,434.135c0.775-1.59,0.114-3.507-1.475-4.28l0,0c-1.589-0.777-3.506-0.117-4.28,1.473
				l-14.138,28.986c-0.775,1.588-0.114,3.505,1.474,4.281l0,0c1.589,0.774,3.506,0.114,4.282-1.476L1242.135,434.135z"/>
			<path fill="#AAAAAA" d="M1251.483,438.041c0.663-1.64-0.128-3.506-1.769-4.168l0,0c-1.641-0.662-3.505,0.129-4.168,1.769
				l-12.081,29.901c-0.663,1.641,0.129,3.505,1.77,4.167l0,0c1.64,0.664,3.505-0.129,4.167-1.769L1251.483,438.041z"/>
			<path fill="#AAAAAA" d="M1261.082,441.283c0.547-1.682-0.373-3.488-2.056-4.035l0,0c-1.681-0.547-3.487,0.374-4.034,2.057
				l-9.967,30.671c-0.545,1.682,0.375,3.488,2.057,4.034l0,0c1.682,0.546,3.488-0.374,4.035-2.057L1261.082,441.283z"/>
			<path fill="#AAAAAA" d="M1270.883,443.849c0.428-1.717-0.615-3.453-2.33-3.882l0,0c-1.717-0.427-3.454,0.617-3.881,2.331
				l-7.803,31.292c-0.428,1.717,0.616,3.453,2.332,3.883l0,0c1.716,0.426,3.453-0.617,3.881-2.334L1270.883,443.849z"/>
			<path fill="#AAAAAA" d="M1280.841,445.725c0.307-1.74-0.855-3.401-2.597-3.709l0,0c-1.741-0.307-3.402,0.856-3.709,2.599
				l-5.6,31.758c-0.307,1.742,0.855,3.402,2.597,3.71l0,0c1.742,0.307,3.401-0.855,3.709-2.598L1280.841,445.725z"/>
			<path fill="#AAAAAA" d="M1284.195,446.196c0.186-1.759,1.76-3.034,3.518-2.849l0,0c1.76,0.186,3.035,1.761,2.851,3.519
				l-3.372,32.072c-0.184,1.759-1.76,3.036-3.519,2.851l0,0c-1.76-0.186-3.034-1.761-2.85-3.52L1284.195,446.196z"/>
		</g>
	</g>
	<circle fill="none" stroke="#AAAAAA" stroke-miterlimit="10" cx="1299.741" cy="300.102" r="161.446"/>
	<circle fill="none" stroke="#AAAAAA" stroke-miterlimit="10" cx="1299.741" cy="300.103" r="122.673"/>
</g>
<g id="圖層_2_拷貝">
	<g>
		<g>
			<path fill="#AAAAAA" d="M1371.753,301.448c-0.891,0.03-1.638-0.666-1.669-1.556l0,0c-0.03-0.89,0.666-1.637,1.557-1.667
				l16.234-0.568c0.891-0.031,1.637,0.666,1.668,1.555l0,0c0.031,0.891-0.665,1.637-1.557,1.668L1371.753,301.448z"/>
			<path fill="#AAAAAA" d="M1371.634,306.551c-0.891-0.031-1.587-0.778-1.556-1.668l0,0c0.031-0.891,0.778-1.587,1.668-1.556
				l16.234,0.566c0.891,0.031,1.588,0.779,1.557,1.669l0,0c-0.031,0.89-0.779,1.585-1.669,1.555L1371.634,306.551z"/>
			<path fill="#AAAAAA" d="M1371.16,311.632c-0.887-0.093-1.529-0.887-1.436-1.772l0,0c0.093-0.887,0.887-1.528,1.771-1.436
				l16.156,1.697c0.886,0.095,1.528,0.888,1.436,1.773l0,0c-0.093,0.886-0.887,1.528-1.773,1.436L1371.16,311.632z"/>
			<path fill="#AAAAAA" d="M1370.332,316.668c-0.877-0.155-1.463-0.991-1.309-1.868l0,0c0.156-0.878,0.992-1.463,1.869-1.308
				l15.997,2.819c0.877,0.155,1.464,0.992,1.309,1.87l0,0c-0.155,0.876-0.991,1.462-1.868,1.308L1370.332,316.668z"/>
			<path fill="#AAAAAA" d="M1369.155,321.634c-0.864-0.216-1.391-1.091-1.175-1.954l0,0c0.215-0.865,1.091-1.392,1.955-1.176
				l15.762,3.93c0.865,0.216,1.391,1.091,1.176,1.955l0,0c-0.215,0.865-1.091,1.39-1.955,1.176L1369.155,321.634z"/>
			<path fill="#AAAAAA" d="M1367.635,326.506c-0.847-0.275-1.311-1.186-1.035-2.033l0,0c0.274-0.846,1.185-1.31,2.032-1.035
				l15.449,5.02c0.847,0.275,1.311,1.185,1.035,2.033l0,0c-0.275,0.845-1.185,1.31-2.032,1.035L1367.635,326.506z"/>
			<path fill="#AAAAAA" d="M1365.779,331.261c-0.826-0.334-1.226-1.275-0.893-2.102l0,0c0.333-0.825,1.273-1.224,2.1-0.891
				l15.063,6.085c0.826,0.334,1.225,1.273,0.891,2.101l0,0c-0.334,0.825-1.273,1.225-2.1,0.891L1365.779,331.261z"/>
			<path fill="#AAAAAA" d="M1363.596,335.872c-0.801-0.389-1.133-1.355-0.744-2.156l0,0c0.391-0.801,1.357-1.134,2.158-0.742
				l14.6,7.121c0.8,0.39,1.133,1.355,0.742,2.157l0,0c-0.389,0.8-1.356,1.132-2.156,0.74L1363.596,335.872z"/>
			<path fill="#AAAAAA" d="M1361.095,340.323c-0.771-0.445-1.035-1.432-0.591-2.203l0,0c0.445-0.771,1.432-1.037,2.203-0.59
				l14.069,8.123c0.771,0.444,1.036,1.431,0.589,2.201l0,0c-0.444,0.772-1.432,1.036-2.203,0.592L1361.095,340.323z"/>
			<path fill="#AAAAAA" d="M1358.29,344.587c-0.738-0.499-0.934-1.502-0.436-2.239l0,0c0.499-0.738,1.501-0.934,2.239-0.436
				l13.468,9.084c0.738,0.499,0.934,1.501,0.436,2.239l0,0c-0.499,0.738-1.501,0.933-2.239,0.435L1358.29,344.587z"/>
			<path fill="#AAAAAA" d="M1355.194,348.645c-0.7-0.548-0.825-1.562-0.277-2.264l0,0c0.549-0.702,1.562-0.825,2.265-0.277
				l12.801,10.002c0.701,0.548,0.826,1.561,0.278,2.262l0,0c-0.55,0.702-1.563,0.827-2.265,0.279L1355.194,348.645z"/>
			<path fill="#AAAAAA" d="M1351.824,352.478c-0.661-0.597-0.715-1.616-0.119-2.278l0,0c0.596-0.662,1.615-0.716,2.277-0.119
				l12.072,10.87c0.662,0.595,0.715,1.616,0.119,2.276l0,0c-0.596,0.662-1.615,0.716-2.276,0.119L1351.824,352.478z"/>
			<path fill="#AAAAAA" d="M1348.195,356.065c-0.618-0.641-0.601-1.662,0.04-2.28l0,0c0.641-0.618,1.661-0.601,2.28,0.04
				l11.284,11.685c0.618,0.643,0.601,1.662-0.041,2.281l0,0c-0.64,0.618-1.661,0.602-2.28-0.041L1348.195,356.065z"/>
			<path fill="#AAAAAA" d="M1344.324,359.392c-0.572-0.683-0.483-1.7,0.199-2.272l0,0c0.682-0.573,1.7-0.484,2.272,0.198
				l10.441,12.445c0.572,0.682,0.484,1.699-0.198,2.271l0,0c-0.683,0.572-1.7,0.483-2.272-0.2L1344.324,359.392z"/>
			<path fill="#AAAAAA" d="M1340.231,362.439c-0.524-0.722-0.365-1.729,0.356-2.253l0,0c0.721-0.524,1.729-0.364,2.252,0.356
				l9.549,13.144c0.523,0.721,0.364,1.729-0.357,2.252l0,0c-0.72,0.523-1.729,0.363-2.252-0.356L1340.231,362.439z"/>
			<path fill="#AAAAAA" d="M1335.935,365.193c-0.473-0.755-0.243-1.751,0.513-2.222l0,0c0.756-0.473,1.75-0.243,2.222,0.514
				l8.608,13.776c0.472,0.755,0.243,1.75-0.513,2.222l0,0c-0.756,0.472-1.75,0.243-2.223-0.513L1335.935,365.193z"/>
			<path fill="#AAAAAA" d="M1331.457,367.641c-0.418-0.785-0.12-1.762,0.667-2.181l0,0c0.786-0.418,1.763-0.119,2.181,0.666
				l7.627,14.344c0.417,0.786,0.119,1.764-0.668,2.181l0,0c-0.786,0.418-1.762,0.121-2.181-0.666L1331.457,367.641z"/>
			<path fill="#AAAAAA" d="M1326.818,369.772c-0.362-0.813,0.004-1.768,0.817-2.13l0,0c0.813-0.361,1.767,0.005,2.13,0.817
				l6.606,14.841c0.362,0.814-0.003,1.767-0.816,2.129l0,0c-0.814,0.362-1.767-0.003-2.13-0.817L1326.818,369.772z"/>
			<path fill="#AAAAAA" d="M1322.043,371.573c-0.304-0.838,0.128-1.763,0.964-2.066l0,0c0.838-0.306,1.763,0.126,2.067,0.963
				l5.556,15.264c0.306,0.839-0.126,1.764-0.963,2.069l0,0c-0.837,0.303-1.763-0.129-2.067-0.966L1322.043,371.573z"/>
			<path fill="#AAAAAA" d="M1317.154,373.036c-0.245-0.856,0.25-1.749,1.105-1.994l0,0c0.856-0.245,1.749,0.249,1.994,1.105
				l4.478,15.615c0.245,0.856-0.249,1.749-1.105,1.994l0,0c-0.856,0.244-1.749-0.249-1.994-1.105L1317.154,373.036z"/>
			<path fill="#AAAAAA" d="M1312.175,374.156c-0.186-0.871,0.371-1.728,1.242-1.914l0,0c0.872-0.185,1.729,0.371,1.913,1.245
				l3.377,15.889c0.187,0.871-0.37,1.728-1.241,1.911l0,0c-0.873,0.186-1.729-0.37-1.913-1.242L1312.175,374.156z"/>
			<path fill="#AAAAAA" d="M1310.495,374.453c-0.124-0.882-0.939-1.498-1.821-1.374l0,0c-0.883,0.125-1.497,0.939-1.373,1.822
				l2.262,16.086c0.123,0.882,0.938,1.497,1.82,1.372l0,0c0.882-0.123,1.497-0.939,1.373-1.821L1310.495,374.453z"/>
			<path fill="#AAAAAA" d="M1305.433,375.103c-0.062-0.888-0.833-1.558-1.721-1.496l0,0c-0.888,0.062-1.559,0.833-1.497,1.721
				l1.133,16.205c0.063,0.889,0.834,1.559,1.722,1.497l0,0c0.889-0.063,1.559-0.833,1.497-1.722L1305.433,375.103z"/>
			<path fill="#AAAAAA" d="M1300.338,375.401c0-0.891-0.722-1.614-1.613-1.614l0,0c-0.891,0-1.613,0.724-1.613,1.614v16.244
				c0,0.891,0.723,1.613,1.613,1.613l0,0c0.892,0,1.613-0.723,1.613-1.613V375.401z"/>
		</g>
		<g>
			<path fill="#AAAAAA" d="M1299.139,226.804c0,0.891,0.722,1.613,1.612,1.613l0,0c0.892,0,1.614-0.722,1.614-1.614v-16.245
				c0-0.89-0.724-1.613-1.614-1.613l0,0c-0.891,0-1.612,0.723-1.612,1.614V226.804z"/>
			<path fill="#AAAAAA" d="M1294.042,227.101c0.063,0.889,0.834,1.558,1.723,1.496l0,0c0.889-0.062,1.558-0.832,1.495-1.722
				l-1.132-16.204c-0.063-0.889-0.833-1.559-1.722-1.497l0,0c-0.889,0.063-1.558,0.833-1.496,1.722L1294.042,227.101z"/>
			<path fill="#AAAAAA" d="M1288.98,227.753c0.125,0.882,0.939,1.496,1.822,1.372l0,0c0.882-0.125,1.496-0.94,1.372-1.821
				l-2.261-16.086c-0.124-0.882-0.939-1.497-1.822-1.373l0,0c-0.881,0.123-1.496,0.939-1.372,1.821L1288.98,227.753z"/>
			<path fill="#AAAAAA" d="M1283.977,228.756c0.186,0.871,1.042,1.428,1.914,1.242l0,0c0.871-0.185,1.426-1.041,1.242-1.913
				l-3.377-15.889c-0.187-0.871-1.043-1.427-1.914-1.242l0,0c-0.872,0.185-1.428,1.042-1.243,1.914L1283.977,228.756z"/>
			<path fill="#AAAAAA" d="M1279.055,230.105c0.246,0.856,1.14,1.351,1.996,1.105l0,0c0.855-0.245,1.352-1.139,1.105-1.995
				l-4.478-15.616c-0.245-0.856-1.139-1.352-1.995-1.105l0,0c-0.856,0.245-1.351,1.139-1.105,1.995L1279.055,230.105z"/>
			<path fill="#AAAAAA" d="M1274.24,231.794c0.305,0.837,1.229,1.269,2.066,0.964l0,0c0.838-0.304,1.27-1.23,0.965-2.067
				l-5.557-15.265c-0.305-0.837-1.229-1.269-2.068-0.964l0,0c-0.836,0.305-1.268,1.23-0.963,2.068L1274.24,231.794z"/>
			<path fill="#AAAAAA" d="M1269.555,233.815c0.361,0.814,1.314,1.18,2.129,0.817l0,0c0.813-0.361,1.18-1.315,0.816-2.129
				l-6.607-14.84c-0.361-0.814-1.314-1.18-2.129-0.817l0,0c-0.814,0.362-1.18,1.315-0.817,2.129L1269.555,233.815z"/>
			<path fill="#AAAAAA" d="M1265.021,236.159c0.417,0.786,1.394,1.085,2.181,0.666l0,0c0.786-0.418,1.086-1.395,0.667-2.181
				l-7.626-14.343c-0.418-0.787-1.395-1.085-2.182-0.667l0,0c-0.786,0.417-1.085,1.395-0.666,2.181L1265.021,236.159z"/>
			<path fill="#AAAAAA" d="M1260.66,238.812c0.473,0.756,1.467,0.985,2.223,0.513l0,0c0.755-0.472,0.984-1.467,0.514-2.221
				l-8.609-13.777c-0.472-0.756-1.467-0.986-2.223-0.513l0,0c-0.756,0.472-0.984,1.467-0.513,2.223L1260.66,238.812z"/>
			<path fill="#AAAAAA" d="M1256.496,241.764c0.523,0.72,1.532,0.88,2.253,0.356l0,0c0.72-0.523,0.88-1.532,0.357-2.252
				l-9.549-13.142c-0.524-0.722-1.532-0.881-2.253-0.358l0,0c-0.721,0.524-0.881,1.532-0.357,2.253L1256.496,241.764z"/>
			<path fill="#AAAAAA" d="M1252.549,244.999c0.572,0.682,1.59,0.771,2.272,0.199l0,0c0.683-0.572,0.771-1.59,0.198-2.273
				l-10.441-12.444c-0.572-0.683-1.59-0.771-2.271-0.199l0,0c-0.684,0.573-0.771,1.59-0.2,2.273L1252.549,244.999z"/>
			<path fill="#AAAAAA" d="M1248.836,248.501c0.619,0.641,1.641,0.659,2.281,0.04l0,0c0.641-0.619,0.658-1.64,0.039-2.28
				l-11.283-11.685c-0.619-0.641-1.641-0.659-2.281-0.04l0,0c-0.641,0.618-0.658,1.64-0.039,2.28L1248.836,248.501z"/>
			<path fill="#AAAAAA" d="M1245.377,252.254c0.663,0.595,1.682,0.543,2.278-0.12l0,0c0.596-0.662,0.542-1.682-0.119-2.278
				l-12.072-10.87c-0.663-0.597-1.682-0.543-2.278,0.119l0,0c-0.596,0.661-0.543,1.682,0.12,2.277L1245.377,252.254z"/>
			<path fill="#AAAAAA" d="M1242.188,256.238c0.701,0.548,1.716,0.424,2.263-0.278l0,0c0.549-0.701,0.426-1.715-0.277-2.263
				l-12.801-10.001c-0.702-0.548-1.715-0.424-2.265,0.278l0,0c-0.548,0.702-0.423,1.715,0.278,2.264L1242.188,256.238z"/>
			<path fill="#AAAAAA" d="M1239.285,260.435c0.738,0.499,1.742,0.304,2.24-0.434l0,0c0.498-0.739,0.303-1.741-0.437-2.239
				l-13.468-9.083c-0.737-0.498-1.741-0.303-2.238,0.436l0,0c-0.498,0.738-0.303,1.741,0.436,2.238L1239.285,260.435z"/>
			<path fill="#AAAAAA" d="M1236.682,264.825c0.772,0.446,1.759,0.182,2.204-0.59l0,0c0.445-0.772,0.181-1.758-0.59-2.202
				l-14.068-8.122c-0.772-0.446-1.759-0.182-2.203,0.589l0,0c-0.445,0.772-0.182,1.758,0.59,2.203L1236.682,264.825z"/>
			<path fill="#AAAAAA" d="M1234.392,269.386c0.8,0.39,1.767,0.058,2.156-0.743l0,0c0.392-0.801,0.059-1.766-0.741-2.156
				l-14.602-7.121c-0.801-0.39-1.766-0.058-2.157,0.742l0,0c-0.39,0.801-0.056,1.766,0.744,2.157L1234.392,269.386z"/>
			<path fill="#AAAAAA" d="M1232.425,274.096c0.826,0.334,1.767-0.065,2.1-0.892l0,0c0.333-0.825-0.065-1.765-0.892-2.1
				l-15.061-6.085c-0.826-0.333-1.766,0.065-2.1,0.891l0,0c-0.334,0.826,0.065,1.766,0.891,2.1L1232.425,274.096z"/>
			<path fill="#AAAAAA" d="M1230.791,278.931c0.848,0.275,1.758-0.189,2.031-1.036l0,0c0.275-0.846-0.188-1.757-1.035-2.032
				l-15.449-5.02c-0.848-0.275-1.758,0.188-2.031,1.036l0,0c-0.276,0.848,0.188,1.757,1.035,2.032L1230.791,278.931z"/>
			<path fill="#AAAAAA" d="M1229.499,283.868c0.864,0.215,1.739-0.311,1.956-1.175l0,0c0.215-0.864-0.311-1.74-1.176-1.956
				l-15.761-3.93c-0.865-0.214-1.74,0.31-1.956,1.175l0,0c-0.215,0.864,0.312,1.739,1.176,1.955L1229.499,283.868z"/>
			<path fill="#AAAAAA" d="M1228.554,288.883c0.878,0.154,1.714-0.431,1.868-1.308l0,0c0.155-0.878-0.431-1.714-1.309-1.868
				l-15.996-2.821c-0.878-0.155-1.714,0.43-1.869,1.308l0,0c-0.154,0.877,0.432,1.713,1.309,1.868L1228.554,288.883z"/>
			<path fill="#AAAAAA" d="M1228.317,290.573c0.886,0.093,1.528,0.887,1.435,1.772l0,0c-0.093,0.887-0.887,1.528-1.771,1.435
				l-16.155-1.698c-0.886-0.093-1.53-0.886-1.436-1.772l0,0c0.094-0.886,0.887-1.529,1.772-1.436L1228.317,290.573z"/>
			<path fill="#AAAAAA" d="M1227.843,295.655c0.89,0.031,1.586,0.778,1.556,1.667l0,0c-0.032,0.89-0.778,1.587-1.669,1.555
				l-16.234-0.567c-0.89-0.031-1.587-0.778-1.556-1.668l0,0c0.031-0.89,0.778-1.585,1.668-1.555L1227.843,295.655z"/>
		</g>
		<g>
			<path fill="#AAAAAA" d="M1370.689,292.888c-0.89,0.062-1.559,0.833-1.497,1.721l0,0c0.063,0.889,0.832,1.559,1.722,1.496
				l16.204-1.132c0.889-0.062,1.56-0.833,1.497-1.722l0,0c-0.062-0.888-0.833-1.559-1.721-1.497L1370.689,292.888z"/>
			<path fill="#AAAAAA" d="M1370.037,287.827c-0.883,0.124-1.498,0.94-1.373,1.822l0,0c0.125,0.882,0.939,1.496,1.82,1.372
				l16.087-2.26c0.883-0.125,1.497-0.94,1.373-1.822l0,0c-0.123-0.882-0.939-1.497-1.821-1.372L1370.037,287.827z"/>
			<path fill="#AAAAAA" d="M1369.034,282.823c-0.872,0.185-1.427,1.042-1.243,1.913l0,0c0.187,0.871,1.043,1.428,1.913,1.242
				l15.89-3.377c0.871-0.186,1.428-1.042,1.242-1.914l0,0c-0.185-0.871-1.041-1.427-1.913-1.242L1369.034,282.823z"/>
			<path fill="#AAAAAA" d="M1367.686,277.902c-0.856,0.245-1.352,1.139-1.105,1.995l0,0c0.245,0.856,1.138,1.352,1.994,1.105
				l15.615-4.477c0.857-0.246,1.352-1.139,1.105-1.995l0,0c-0.245-0.856-1.139-1.352-1.995-1.106L1367.686,277.902z"/>
			<path fill="#AAAAAA" d="M1365.995,273.086c-0.837,0.305-1.269,1.229-0.963,2.068l0,0c0.304,0.837,1.23,1.268,2.067,0.963
				l15.265-5.556c0.837-0.306,1.269-1.23,0.964-2.067l0,0c-0.305-0.837-1.23-1.268-2.068-0.963L1365.995,273.086z"/>
			<path fill="#AAAAAA" d="M1363.975,268.399c-0.814,0.362-1.181,1.315-0.817,2.129l0,0c0.361,0.813,1.315,1.179,2.129,0.817
				l14.841-6.607c0.813-0.361,1.18-1.315,0.816-2.129l0,0c-0.361-0.814-1.315-1.179-2.129-0.817L1363.975,268.399z"/>
			<path fill="#AAAAAA" d="M1361.631,263.865c-0.786,0.417-1.085,1.395-0.667,2.181l0,0c0.417,0.787,1.395,1.085,2.182,0.667
				l14.342-7.625c0.786-0.418,1.085-1.395,0.668-2.182l0,0c-0.418-0.786-1.396-1.085-2.182-0.666L1361.631,263.865z"/>
			<path fill="#AAAAAA" d="M1358.977,259.505c-0.755,0.473-0.985,1.468-0.513,2.223l0,0c0.472,0.755,1.467,0.985,2.223,0.513
				l13.775-8.608c0.756-0.472,0.986-1.467,0.513-2.222l0,0c-0.472-0.755-1.467-0.985-2.222-0.513L1358.977,259.505z"/>
			<path fill="#AAAAAA" d="M1356.025,255.343c-0.722,0.522-0.88,1.531-0.357,2.252l0,0c0.523,0.72,1.532,0.88,2.253,0.357
				l13.143-9.548c0.72-0.523,0.88-1.533,0.356-2.253l0,0c-0.523-0.72-1.532-0.88-2.253-0.356L1356.025,255.343z"/>
			<path fill="#AAAAAA" d="M1352.792,251.395c-0.683,0.572-0.772,1.589-0.2,2.272l0,0c0.572,0.683,1.59,0.771,2.273,0.199
				l12.443-10.442c0.683-0.572,0.771-1.59,0.199-2.272l0,0c-0.573-0.683-1.59-0.771-2.272-0.199L1352.792,251.395z"/>
			<path fill="#AAAAAA" d="M1349.288,247.682c-0.64,0.619-0.658,1.64-0.04,2.28l0,0c0.619,0.642,1.641,0.66,2.28,0.041
				l11.686-11.285c0.642-0.619,0.659-1.641,0.04-2.281l0,0c-0.618-0.641-1.64-0.658-2.279-0.04L1349.288,247.682z"/>
			<path fill="#AAAAAA" d="M1345.536,244.223c-0.596,0.662-0.543,1.681,0.119,2.277l0,0c0.662,0.596,1.682,0.542,2.277-0.12
				l10.869-12.071c0.596-0.662,0.543-1.682-0.119-2.278l0,0c-0.662-0.596-1.682-0.542-2.276,0.12L1345.536,244.223z"/>
			<path fill="#AAAAAA" d="M1341.551,241.033c-0.548,0.702-0.422,1.715,0.278,2.264l0,0c0.702,0.549,1.716,0.425,2.264-0.278
				l10.001-12.801c0.549-0.702,0.425-1.715-0.277-2.264l0,0c-0.701-0.549-1.716-0.423-2.265,0.278L1341.551,241.033z"/>
			<path fill="#AAAAAA" d="M1337.354,238.132c-0.499,0.738-0.304,1.741,0.435,2.239l0,0c0.738,0.499,1.741,0.303,2.239-0.436
				l9.083-13.467c0.498-0.738,0.303-1.741-0.435-2.239l0,0c-0.737-0.498-1.741-0.302-2.24,0.436L1337.354,238.132z"/>
			<path fill="#AAAAAA" d="M1332.964,235.528c-0.445,0.772-0.181,1.758,0.59,2.203l0,0c0.772,0.445,1.759,0.181,2.203-0.59
				l8.123-14.067c0.444-0.772,0.181-1.759-0.59-2.203l0,0c-0.772-0.446-1.759-0.181-2.204,0.59L1332.964,235.528z"/>
			<path fill="#AAAAAA" d="M1328.403,233.237c-0.391,0.801-0.058,1.767,0.743,2.157l0,0c0.801,0.391,1.766,0.058,2.156-0.742
				l7.122-14.601c0.39-0.801,0.058-1.766-0.743-2.156l0,0c-0.801-0.391-1.766-0.058-2.157,0.743L1328.403,233.237z"/>
			<path fill="#AAAAAA" d="M1323.694,231.27c-0.334,0.826,0.065,1.766,0.891,2.1l0,0c0.826,0.333,1.766-0.066,2.1-0.891
				l6.085-15.062c0.334-0.826-0.064-1.766-0.891-2.099l0,0c-0.826-0.333-1.766,0.065-2.1,0.891L1323.694,231.27z"/>
			<path fill="#AAAAAA" d="M1318.859,229.637c-0.275,0.846,0.188,1.757,1.035,2.032l0,0c0.847,0.275,1.757-0.189,2.032-1.037
				l5.02-15.449c0.274-0.847-0.188-1.757-1.036-2.031l0,0c-0.846-0.276-1.757,0.189-2.032,1.035L1318.859,229.637z"/>
			<path fill="#AAAAAA" d="M1313.922,228.344c-0.216,0.865,0.311,1.74,1.174,1.956l0,0c0.865,0.214,1.74-0.311,1.956-1.174
				l3.931-15.763c0.214-0.865-0.311-1.74-1.175-1.955l0,0c-0.865-0.215-1.74,0.311-1.956,1.174L1313.922,228.344z"/>
			<path fill="#AAAAAA" d="M1308.906,227.4c-0.154,0.877,0.432,1.713,1.309,1.869l0,0c0.877,0.154,1.713-0.432,1.868-1.309
				l2.82-15.998c0.156-0.877-0.431-1.714-1.309-1.869l0,0c-0.876-0.154-1.712,0.431-1.868,1.309L1308.906,227.4z"/>
			<path fill="#AAAAAA" d="M1307.217,227.162c-0.094,0.886-0.887,1.528-1.772,1.435l0,0c-0.886-0.093-1.528-0.886-1.436-1.772
				l1.698-16.155c0.094-0.886,0.887-1.529,1.773-1.436l0,0c0.886,0.093,1.528,0.887,1.436,1.772L1307.217,227.162z"/>
		</g>
		<g>
			<path fill="#AAAAAA" d="M1228.143,303.869c0.891,0,1.612-0.723,1.612-1.613l0,0c0-0.891-0.722-1.613-1.612-1.613h-16.246
				c-0.889,0-1.611,0.723-1.611,1.612l0,0c0,0.892,0.723,1.614,1.612,1.614H1228.143z"/>
			<path fill="#AAAAAA" d="M1228.439,308.964c0.889-0.062,1.558-0.832,1.496-1.722l0,0c-0.063-0.889-0.832-1.558-1.722-1.496
				l-16.204,1.134c-0.889,0.062-1.559,0.832-1.497,1.721l0,0c0.062,0.889,0.833,1.559,1.721,1.497L1228.439,308.964z"/>
			<path fill="#AAAAAA" d="M1229.091,314.027c0.882-0.124,1.497-0.939,1.372-1.821l0,0c-0.124-0.882-0.939-1.497-1.82-1.374
				l-16.087,2.261c-0.882,0.125-1.497,0.941-1.373,1.822l0,0c0.124,0.883,0.939,1.496,1.821,1.373L1229.091,314.027z"/>
			<path fill="#AAAAAA" d="M1230.094,319.03c0.871-0.185,1.428-1.041,1.242-1.912l0,0c-0.186-0.871-1.042-1.428-1.913-1.242
				l-15.89,3.377c-0.871,0.185-1.428,1.041-1.242,1.914l0,0c0.186,0.871,1.041,1.426,1.913,1.24L1230.094,319.03z"/>
			<path fill="#AAAAAA" d="M1231.443,323.952c0.855-0.246,1.352-1.14,1.105-1.996l0,0c-0.246-0.856-1.139-1.351-1.995-1.104
				l-15.615,4.477c-0.856,0.245-1.352,1.139-1.105,1.995l0,0c0.245,0.856,1.14,1.352,1.995,1.106L1231.443,323.952z"/>
			<path fill="#AAAAAA" d="M1233.133,328.768c0.836-0.306,1.268-1.23,0.963-2.068l0,0c-0.305-0.836-1.23-1.268-2.066-0.963
				l-15.265,5.556c-0.838,0.306-1.27,1.23-0.964,2.068l0,0c0.305,0.837,1.229,1.269,2.066,0.964L1233.133,328.768z"/>
			<path fill="#AAAAAA" d="M1235.153,333.454c0.813-0.363,1.18-1.316,0.817-2.13l0,0c-0.361-0.813-1.316-1.18-2.129-0.817
				l-14.841,6.607c-0.814,0.361-1.181,1.315-0.817,2.129l0,0c0.362,0.814,1.315,1.18,2.129,0.817L1235.153,333.454z"/>
			<path fill="#AAAAAA" d="M1237.497,337.988c0.786-0.418,1.085-1.396,0.667-2.182l0,0c-0.418-0.787-1.396-1.085-2.182-0.667
				l-14.343,7.625c-0.786,0.42-1.085,1.396-0.667,2.183l0,0c0.418,0.786,1.395,1.085,2.181,0.666L1237.497,337.988z"/>
			<path fill="#AAAAAA" d="M1240.15,342.348c0.756-0.473,0.985-1.467,0.513-2.223l0,0c-0.472-0.756-1.467-0.985-2.222-0.513
				l-13.777,8.607c-0.756,0.473-0.984,1.468-0.513,2.224l0,0c0.472,0.754,1.467,0.984,2.223,0.512L1240.15,342.348z"/>
			<path fill="#AAAAAA" d="M1243.102,346.511c0.722-0.524,0.881-1.531,0.357-2.253l0,0c-0.523-0.721-1.531-0.88-2.253-0.356
				l-13.142,9.548c-0.721,0.524-0.881,1.532-0.357,2.253l0,0c0.523,0.72,1.532,0.88,2.252,0.356L1243.102,346.511z"/>
			<path fill="#AAAAAA" d="M1246.337,350.459c0.682-0.572,0.771-1.589,0.199-2.273l0,0c-0.573-0.682-1.59-0.771-2.273-0.198
				l-12.444,10.442c-0.682,0.572-0.771,1.59-0.198,2.272l0,0c0.573,0.682,1.59,0.771,2.272,0.198L1246.337,350.459z"/>
			<path fill="#AAAAAA" d="M1249.84,354.171c0.641-0.619,0.658-1.641,0.039-2.281l0,0c-0.619-0.641-1.64-0.659-2.279-0.04
				l-11.686,11.284c-0.641,0.618-0.659,1.64-0.041,2.28l0,0c0.619,0.641,1.641,0.658,2.281,0.041L1249.84,354.171z"/>
			<path fill="#AAAAAA" d="M1253.592,357.63c0.596-0.662,0.543-1.683-0.119-2.278l0,0c-0.662-0.595-1.682-0.542-2.279,0.12
				l-10.869,12.071c-0.596,0.662-0.542,1.683,0.12,2.278l0,0c0.661,0.596,1.682,0.543,2.277-0.12L1253.592,357.63z"/>
			<path fill="#AAAAAA" d="M1257.576,360.82c0.549-0.702,0.424-1.715-0.277-2.263l0,0c-0.702-0.551-1.716-0.425-2.264,0.276
				l-10.002,12.801c-0.548,0.7-0.425,1.716,0.278,2.264l0,0c0.702,0.548,1.716,0.424,2.265-0.278L1257.576,360.82z"/>
			<path fill="#AAAAAA" d="M1261.773,363.721c0.498-0.737,0.304-1.741-0.435-2.238l0,0c-0.739-0.499-1.741-0.304-2.239,0.436
				l-9.084,13.467c-0.498,0.739-0.303,1.741,0.436,2.24l0,0c0.738,0.497,1.741,0.301,2.239-0.436L1261.773,363.721z"/>
			<path fill="#AAAAAA" d="M1266.164,366.324c0.445-0.771,0.182-1.758-0.59-2.203l0,0c-0.772-0.444-1.759-0.181-2.203,0.59
				l-8.123,14.068c-0.445,0.771-0.182,1.759,0.59,2.204l0,0c0.772,0.444,1.759,0.181,2.203-0.592L1266.164,366.324z"/>
			<path fill="#AAAAAA" d="M1270.725,368.615c0.391-0.801,0.058-1.766-0.743-2.157l0,0c-0.801-0.391-1.766-0.058-2.156,0.743
				l-7.122,14.601c-0.39,0.8-0.057,1.765,0.743,2.156l0,0c0.801,0.39,1.767,0.058,2.157-0.742L1270.725,368.615z"/>
			<path fill="#AAAAAA" d="M1275.434,370.582c0.334-0.825-0.064-1.767-0.891-2.1l0,0c-0.826-0.334-1.766,0.065-2.1,0.891
				l-6.086,15.063c-0.334,0.826,0.066,1.766,0.892,2.1l0,0c0.825,0.334,1.767-0.065,2.101-0.892L1275.434,370.582z"/>
			<path fill="#AAAAAA" d="M1280.269,372.216c0.274-0.847-0.188-1.757-1.036-2.033l0,0c-0.846-0.274-1.756,0.189-2.031,1.036
				l-5.02,15.45c-0.275,0.846,0.188,1.757,1.035,2.031l0,0c0.848,0.276,1.757-0.188,2.032-1.034L1280.269,372.216z"/>
			<path fill="#AAAAAA" d="M1285.205,373.508c0.216-0.864-0.31-1.739-1.174-1.955l0,0c-0.864-0.215-1.739,0.311-1.955,1.174
				l-3.931,15.764c-0.214,0.864,0.312,1.738,1.176,1.955l0,0c0.864,0.214,1.739-0.312,1.955-1.176L1285.205,373.508z"/>
			<path fill="#AAAAAA" d="M1290.222,374.453c0.154-0.877-0.432-1.713-1.309-1.869l0,0c-0.876-0.154-1.714,0.432-1.868,1.31
				l-2.82,15.997c-0.155,0.877,0.43,1.713,1.308,1.869l0,0c0.878,0.154,1.714-0.432,1.868-1.308L1290.222,374.453z"/>
			<path fill="#AAAAAA" d="M1291.911,374.691c0.093-0.886,0.887-1.528,1.772-1.436l0,0c0.886,0.094,1.529,0.888,1.435,1.773
				l-1.697,16.155c-0.094,0.886-0.887,1.529-1.773,1.436l0,0c-0.885-0.094-1.528-0.888-1.436-1.773L1291.911,374.691z"/>
		</g>
	</g>
</g>
<g id="圖層_6">
	<circle fill="none" stroke="#AAAAAA" stroke-width="6" stroke-miterlimit="10" cx="1299.635" cy="300.548" r="64.104"/>
	<polygon fill="none" stroke="#AAAAAA" stroke-width="3" stroke-miterlimit="10" points="1351.883,270.288 1299.634,360.783 
		1247.387,270.288 	"/>
	
		<line fill="none" stroke="#AAAAAA" stroke-width="3" stroke-miterlimit="10" x1="1282.154" y1="240.923" x2="1287.403" y2="270.288"/>
	
		<line fill="none" stroke="#AAAAAA" stroke-width="3" stroke-miterlimit="10" x1="1317.728" y1="240.923" x2="1312.479" y2="270.288"/>
	
		<line fill="none" stroke="#AAAAAA" stroke-width="3" stroke-miterlimit="10" x1="1255.919" y1="345.377" x2="1278.355" y2="325.719"/>
	
		<line fill="none" stroke="#AAAAAA" stroke-width="3" stroke-miterlimit="10" x1="1237.55" y1="314.912" x2="1265.408" y2="304.245"/>
	
		<line fill="none" stroke="#AAAAAA" stroke-width="3" stroke-miterlimit="10" x1="1360.506" y1="315.278" x2="1332.532" y2="304.917"/>
	
		<line fill="none" stroke="#AAAAAA" stroke-width="3" stroke-miterlimit="10" x1="1342.473" y1="345.941" x2="1319.82" y2="326.531"/>
	<polygon fill="none" stroke="#AAAAAA" stroke-width="3" stroke-miterlimit="10" points="1320.89,288.357 1299.635,325.171 
		1278.38,288.357 	"/>
	
		<line fill="none" stroke="#AAAAAA" stroke-width="3" stroke-miterlimit="10" x1="1247.387" y1="270.288" x2="1278.38" y2="288.357"/>
	
		<line fill="none" stroke="#AAAAAA" stroke-width="3" stroke-miterlimit="10" x1="1320.89" y1="288.357" x2="1351.883" y2="270.288"/>
	
		<line fill="none" stroke="#AAAAAA" stroke-width="3" stroke-miterlimit="10" x1="1299.635" y1="325.171" x2="1298.854" y2="359.432"/>
	<polygon fill="none" stroke="#AAAAAA" stroke-width="3" stroke-miterlimit="10" points="1307.734,295.844 1299.54,310.04 
		1291.345,295.844 	"/>
</g>
<g>
	<path fill="#AAAAAA" d="M1624.15,123.904c1.768,0,3.201-1.434,3.201-3.201l0,0c0-1.77-1.432-3.203-3.201-3.202l-62.25-0.001
		c-1.768,0-3.202,1.435-3.202,3.203l0,0c0,1.769,1.435,3.201,3.203,3.201H1624.15z"/>
	<path fill="#AAAAAA" d="M1624.15,133.921c1.768,0,3.201-1.434,3.201-3.201l0,0c0-1.77-1.432-3.203-3.201-3.202l-62.25-0.001
		c-1.768,0-3.202,1.435-3.202,3.203l0,0c0,1.769,1.435,3.201,3.203,3.201H1624.15z"/>
	<path fill="#AAAAAA" d="M1624.15,143.938c1.768,0,3.201-1.434,3.201-3.201l0,0c0-1.77-1.432-3.203-3.201-3.202l-62.25-0.001
		c-1.768,0-3.202,1.435-3.202,3.203l0,0c0,1.769,1.435,3.201,3.203,3.201H1624.15z"/>
	<path fill="#AAAAAA" d="M1624.15,153.955c1.768,0,3.201-1.434,3.201-3.201l0,0c0-1.77-1.432-3.203-3.201-3.202l-62.25-0.001
		c-1.768,0-3.202,1.435-3.202,3.203l0,0c0,1.769,1.435,3.201,3.203,3.201H1624.15z"/>
	<path fill="#AAAAAA" d="M1624.15,163.971c1.768,0,3.201-1.434,3.201-3.201l0,0c0-1.77-1.432-3.203-3.201-3.202l-62.25-0.001
		c-1.768,0-3.202,1.435-3.202,3.203l0,0c0,1.769,1.435,3.201,3.203,3.201H1624.15z"/>
	<path fill="#AAAAAA" d="M1624.15,173.989c1.768,0,3.201-1.434,3.201-3.201l0,0c0-1.77-1.432-3.203-3.201-3.202l-62.25-0.001
		c-1.768,0-3.202,1.435-3.202,3.203l0,0c0,1.769,1.435,3.201,3.203,3.201H1624.15z"/>
	<path fill="#AAAAAA" d="M1624.15,184.005c1.768,0,3.201-1.434,3.201-3.201l0,0c0-1.77-1.432-3.202-3.201-3.201l-62.25-0.001
		c-1.768,0-3.202,1.435-3.202,3.202l0,0c0,1.769,1.435,3.201,3.203,3.201H1624.15z"/>
	<path fill="#AAAAAA" d="M1624.15,194.022c1.768,0,3.201-1.434,3.201-3.201l0,0c0-1.77-1.432-3.203-3.201-3.202l-62.25-0.001
		c-1.768,0-3.202,1.435-3.202,3.203l0,0c0,1.769,1.435,3.201,3.203,3.201H1624.15z"/>
	<path fill="#AAAAAA" d="M1624.15,204.039c1.768,0,3.201-1.434,3.201-3.201l0,0c0-1.77-1.432-3.203-3.201-3.202l-62.25-0.001
		c-1.768,0-3.202,1.435-3.202,3.203l0,0c0,1.769,1.435,3.201,3.203,3.201H1624.15z"/>
	<path fill="#AAAAAA" d="M1624.15,214.056c1.768,0,3.201-1.434,3.201-3.201l0,0c0-1.77-1.432-3.203-3.201-3.202l-62.25-0.001
		c-1.768,0-3.202,1.435-3.202,3.203l0,0c0,1.769,1.435,3.201,3.203,3.201H1624.15z"/>
	<path fill="#AAAAAA" d="M1624.15,224.073c1.768,0,3.201-1.434,3.201-3.201l0,0c0-1.77-1.432-3.203-3.201-3.202l-62.25-0.001
		c-1.768,0-3.202,1.435-3.202,3.203l0,0c0,1.769,1.435,3.201,3.203,3.201H1624.15z"/>
	<path fill="#AAAAAA" d="M1624.15,234.09c1.768,0,3.201-1.434,3.201-3.201l0,0c0-1.77-1.432-3.203-3.201-3.202l-62.25-0.001
		c-1.768,0-3.202,1.435-3.202,3.203l0,0c0,1.769,1.435,3.201,3.203,3.201H1624.15z"/>
	<path fill="#AAAAAA" d="M1624.15,244.107c1.768,0,3.201-1.434,3.201-3.201l0,0c0-1.77-1.432-3.203-3.201-3.202l-62.25-0.001
		c-1.768,0-3.202,1.435-3.202,3.203l0,0c0,1.769,1.435,3.201,3.203,3.201H1624.15z"/>
	<path fill="#AAAAAA" d="M1624.15,254.124c1.768,0,3.201-1.434,3.201-3.201l0,0c0-1.77-1.432-3.203-3.201-3.202l-62.25-0.001
		c-1.768,0-3.202,1.435-3.202,3.203l0,0c0,1.769,1.435,3.201,3.203,3.201H1624.15z"/>
	<path fill="#AAAAAA" d="M1624.15,264.14c1.768,0,3.201-1.434,3.201-3.201l0,0c0-1.77-1.432-3.203-3.201-3.202l-62.25-0.001
		c-1.768,0-3.202,1.435-3.202,3.203l0,0c0,1.769,1.435,3.201,3.203,3.201H1624.15z"/>
	<path fill="#AAAAAA" d="M1624.15,274.157c1.768,0,3.201-1.434,3.201-3.201l0,0c0-1.77-1.432-3.203-3.201-3.202l-62.25-0.001
		c-1.768,0-3.202,1.435-3.202,3.203l0,0c0,1.769,1.435,3.201,3.203,3.201H1624.15z"/>
	<path fill="#AAAAAA" d="M1624.15,284.174c1.768,0,3.201-1.434,3.201-3.201l0,0c0-1.77-1.432-3.203-3.201-3.202l-62.25-0.001
		c-1.768,0-3.202,1.435-3.202,3.203l0,0c0,1.769,1.435,3.201,3.203,3.201H1624.15z"/>
	<path fill="#AAAAAA" d="M1624.15,294.191c1.768,0,3.201-1.434,3.201-3.201l0,0c0-1.77-1.432-3.203-3.201-3.202l-62.25-0.001
		c-1.768,0-3.202,1.435-3.202,3.203l0,0c0,1.769,1.435,3.201,3.203,3.201H1624.15z"/>
	<path fill="#AAAAAA" d="M1624.15,304.208c1.768,0,3.201-1.434,3.201-3.201l0,0c0-1.77-1.432-3.203-3.201-3.202l-62.25-0.001
		c-1.768,0-3.202,1.436-3.202,3.203l0,0c0,1.769,1.435,3.201,3.203,3.201H1624.15z"/>
	<path fill="#AAAAAA" d="M1624.15,314.225c1.768,0,3.201-1.434,3.201-3.201l0,0c0-1.77-1.432-3.203-3.201-3.201l-62.25-0.002
		c-1.768,0-3.202,1.436-3.202,3.203l0,0c0,1.769,1.435,3.201,3.203,3.201H1624.15z"/>
	<path fill="#AAAAAA" d="M1624.15,324.241c1.768,0,3.201-1.434,3.201-3.201l0,0c0-1.77-1.432-3.202-3.201-3.202h-62.25
		c-1.768,0-3.202,1.435-3.202,3.202l0,0c0,1.769,1.435,3.201,3.203,3.201H1624.15z"/>
	<path fill="#AAAAAA" d="M1624.15,334.258c1.768,0,3.201-1.434,3.201-3.201l0,0c0-1.77-1.432-3.202-3.201-3.202h-62.25
		c-1.768,0-3.202,1.435-3.202,3.202l0,0c0,1.769,1.435,3.201,3.203,3.201H1624.15z"/>
	<path fill="#AAAAAA" d="M1624.15,344.276c1.768,0,3.201-1.434,3.201-3.201l0,0c0-1.77-1.432-3.202-3.201-3.202h-62.25
		c-1.768,0-3.202,1.435-3.202,3.202l0,0c0,1.769,1.435,3.201,3.203,3.201H1624.15z"/>
	<path fill="#AAAAAA" d="M1624.15,354.292c1.768,0,3.201-1.434,3.201-3.201l0,0c0-1.77-1.432-3.202-3.201-3.202h-62.25
		c-1.768,0-3.202,1.435-3.202,3.202l0,0c0,1.769,1.435,3.201,3.203,3.201H1624.15z"/>
	<path fill="#AAAAAA" d="M1624.15,364.31c1.768,0,3.201-1.434,3.201-3.201l0,0c0-1.77-1.432-3.203-3.201-3.201l-62.25-0.002
		c-1.768,0-3.202,1.436-3.202,3.203l0,0c0,1.769,1.435,3.201,3.203,3.201H1624.15z"/>
	<path fill="#AAAAAA" d="M1624.15,374.326c1.768,0,3.201-1.434,3.201-3.201l0,0c0-1.77-1.432-3.203-3.201-3.201l-62.25-0.002
		c-1.768,0-3.202,1.436-3.202,3.203l0,0c0,1.769,1.435,3.201,3.203,3.201H1624.15z"/>
	<path fill="#AAAAAA" d="M1624.15,384.343c1.768,0,3.201-1.434,3.201-3.201l0,0c0-1.77-1.432-3.203-3.201-3.201l-62.25-0.002
		c-1.768,0-3.202,1.436-3.202,3.203l0,0c0,1.769,1.435,3.201,3.203,3.201H1624.15z"/>
	<path fill="#AAAAAA" d="M1624.15,394.361c1.768,0,3.201-1.434,3.201-3.201l0,0c0-1.77-1.432-3.203-3.201-3.201l-62.25-0.002
		c-1.768,0-3.202,1.436-3.202,3.203l0,0c0,1.769,1.435,3.201,3.203,3.201H1624.15z"/>
	<path fill="#AAAAAA" d="M1624.15,404.376c1.768,0,3.201-1.434,3.201-3.201l0,0c0-1.77-1.432-3.202-3.201-3.202h-62.25
		c-1.768,0-3.202,1.435-3.202,3.202l0,0c0,1.769,1.435,3.201,3.203,3.201H1624.15z"/>
	<path fill="#AAAAAA" d="M1624.15,414.394c1.768,0,3.201-1.434,3.201-3.201l0,0c0-1.77-1.432-3.202-3.201-3.202h-62.25
		c-1.768,0-3.202,1.435-3.202,3.202l0,0c0,1.769,1.435,3.201,3.203,3.201H1624.15z"/>
	<path fill="#AAAAAA" d="M1624.15,424.41c1.768,0,3.201-1.434,3.201-3.201l0,0c0-1.77-1.432-3.202-3.201-3.202h-62.25
		c-1.768,0-3.202,1.435-3.202,3.202l0,0c0,1.769,1.435,3.201,3.203,3.201H1624.15z"/>
	<path fill="#AAAAAA" d="M1624.15,434.427c1.768,0,3.201-1.434,3.201-3.201l0,0c0-1.77-1.432-3.202-3.201-3.202h-62.25
		c-1.768,0-3.202,1.435-3.202,3.202l0,0c0,1.769,1.435,3.201,3.203,3.201H1624.15z"/>
	<path fill="#AAAAAA" d="M1624.15,444.445c1.768,0,3.201-1.434,3.201-3.201l0,0c0-1.77-1.432-3.203-3.201-3.201l-62.25-0.002
		c-1.768,0-3.202,1.436-3.202,3.203l0,0c0,1.769,1.435,3.201,3.203,3.201H1624.15z"/>
	<path fill="#AAAAAA" d="M1624.15,454.461c1.768,0,3.201-1.434,3.201-3.201l0,0c0-1.77-1.432-3.203-3.201-3.201l-62.25-0.002
		c-1.768,0-3.202,1.436-3.202,3.203l0,0c0,1.769,1.435,3.201,3.203,3.201H1624.15z"/>
	<path fill="#AAAAAA" d="M1624.15,464.479c1.768,0,3.201-1.434,3.201-3.201l0,0c0-1.77-1.432-3.203-3.201-3.201l-62.25-0.002
		c-1.768,0-3.202,1.436-3.202,3.203l0,0c0,1.769,1.435,3.201,3.203,3.201H1624.15z"/>
	<path fill="#AAAAAA" d="M1624.15,474.495c1.768,0,3.201-1.434,3.201-3.201l0,0c0-1.77-1.432-3.203-3.201-3.201l-62.25-0.002
		c-1.768,0-3.202,1.436-3.202,3.203l0,0c0,1.769,1.435,3.201,3.203,3.201H1624.15z"/>
	<path fill="#AAAAAA" d="M1624.15,484.512c1.768,0,3.201-1.434,3.201-3.201l0,0c0-1.77-1.432-3.202-3.201-3.202h-62.25
		c-1.768,0-3.202,1.435-3.202,3.202l0,0c0,1.769,1.435,3.201,3.203,3.201H1624.15z"/>
	<rect x="1642.511" y="175.724" fill="#AAAAAA" width="24.313" height="247.442"/>
	<path fill="#AAAAAA" d="M1711.271,211.484c0.894,0,1.615-0.724,1.615-1.615l0,0c0-0.893-0.721-1.617-1.615-1.616l-26.271,0
		c-0.894,0-1.616,0.725-1.616,1.617l0,0c0,0.892,0.723,1.615,1.616,1.615H1711.271z"/>
	<path fill="#AAAAAA" d="M1711.271,216.539c0.894,0,1.615-0.723,1.615-1.615l0,0c0-0.893-0.721-1.617-1.615-1.616l-26.271,0
		c-0.894,0-1.616,0.725-1.616,1.617l0,0c0,0.893,0.723,1.615,1.616,1.615H1711.271z"/>
	<path fill="#AAAAAA" d="M1711.271,221.593c0.894,0,1.615-0.723,1.615-1.615l0,0c0-0.893-0.721-1.616-1.615-1.615l-26.271,0
		c-0.894,0-1.616,0.724-1.616,1.616l0,0c0,0.893,0.723,1.615,1.616,1.615H1711.271z"/>
	<path fill="#AAAAAA" d="M1711.271,226.647c0.894,0,1.615-0.724,1.615-1.615l0,0c0-0.894-0.721-1.617-1.615-1.616l-26.271,0
		c-0.894,0-1.616,0.724-1.616,1.617l0,0c0,0.892,0.723,1.615,1.616,1.615H1711.271z"/>
	<path fill="#AAAAAA" d="M1711.271,231.701c0.894,0,1.615-0.723,1.615-1.615l0,0c0-0.893-0.721-1.616-1.615-1.616l-26.271,0
		c-0.894,0-1.616,0.725-1.616,1.616l0,0c0,0.893,0.723,1.615,1.616,1.615H1711.271z"/>
	<path fill="#AAAAAA" d="M1711.271,236.755c0.894,0,1.615-0.723,1.615-1.615l0,0c0-0.893-0.721-1.616-1.615-1.616h-26.271
		c-0.894,0-1.616,0.723-1.616,1.616l0,0c0,0.892,0.723,1.615,1.616,1.615H1711.271z"/>
	<path fill="#AAAAAA" d="M1711.271,241.809c0.894,0,1.615-0.723,1.615-1.615l0,0c0-0.893-0.721-1.617-1.615-1.615l-26.271-0.001
		c-0.894,0-1.616,0.725-1.616,1.617l0,0c0,0.892,0.723,1.615,1.616,1.615H1711.271z"/>
	<path fill="#AAAAAA" d="M1711.271,246.864c0.894,0,1.615-0.723,1.615-1.615l0,0c0-0.893-0.721-1.616-1.615-1.615l-26.271,0
		c-0.894,0-1.616,0.724-1.616,1.616l0,0c0,0.892,0.723,1.615,1.616,1.615H1711.271z"/>
	<path fill="#AAAAAA" d="M1711.271,251.919c0.894,0,1.615-0.724,1.615-1.616l0,0c0-0.893-0.721-1.616-1.615-1.616l-26.271,0
		c-0.894,0-1.616,0.724-1.616,1.616l0,0c0,0.892,0.723,1.616,1.616,1.616H1711.271z"/>
	<path fill="#AAAAAA" d="M1711.271,256.972c0.894,0,1.615-0.724,1.615-1.616l0,0c0-0.893-0.721-1.615-1.615-1.615l-26.271,0
		c-0.894,0-1.616,0.724-1.616,1.615l0,0c0,0.893,0.723,1.616,1.616,1.616H1711.271z"/>
	<path fill="#AAAAAA" d="M1711.271,262.027c0.894,0,1.615-0.724,1.615-1.615l0,0c0-0.893-0.721-1.616-1.615-1.615l-26.271,0
		c-0.894,0-1.616,0.724-1.616,1.616l0,0c0,0.893,0.723,1.615,1.616,1.615H1711.271z"/>
	<path fill="#AAAAAA" d="M1711.271,267.081c0.894,0,1.615-0.723,1.615-1.615l0,0c0-0.893-0.721-1.616-1.615-1.616l-26.271,0
		c-0.894,0-1.616,0.725-1.616,1.616l0,0c0,0.893,0.723,1.615,1.616,1.615H1711.271z"/>
	<path fill="#AAAAAA" d="M1711.271,272.135c0.894,0,1.615-0.724,1.615-1.616l0,0c0-0.893-0.721-1.616-1.615-1.615l-26.271,0
		c-0.894,0-1.616,0.724-1.616,1.616l0,0c0,0.893,0.723,1.616,1.616,1.616H1711.271z"/>
	<path fill="#AAAAAA" d="M1711.271,277.189c0.894,0,1.615-0.723,1.615-1.615l0,0c0-0.893-0.721-1.616-1.615-1.616l-26.271,0
		c-0.894,0-1.616,0.725-1.616,1.616l0,0c0,0.893,0.723,1.615,1.616,1.615H1711.271z"/>
	<path fill="#AAAAAA" d="M1711.271,282.243c0.894,0,1.615-0.724,1.615-1.615l0,0c0-0.893-0.721-1.616-1.615-1.616l-26.271,0
		c-0.894,0-1.616,0.724-1.616,1.616l0,0c0,0.892,0.723,1.615,1.616,1.615H1711.271z"/>
	<path fill="#AAAAAA" d="M1711.271,287.298c0.894,0,1.615-0.723,1.615-1.616l0,0c0-0.892-0.721-1.616-1.615-1.615l-26.271,0
		c-0.894,0-1.616,0.725-1.616,1.616l0,0c0,0.893,0.723,1.616,1.616,1.616H1711.271z"/>
	<path fill="#AAAAAA" d="M1711.271,292.352c0.894,0,1.615-0.724,1.615-1.615l0,0c0-0.893-0.721-1.616-1.615-1.616l-26.271,0
		c-0.894,0-1.616,0.724-1.616,1.616l0,0c0,0.892,0.723,1.615,1.616,1.615H1711.271z"/>
	<path fill="#AAAAAA" d="M1711.271,297.406c0.894,0,1.615-0.723,1.615-1.616l0,0c0-0.893-0.721-1.616-1.615-1.616l-26.271,0
		c-0.894,0-1.616,0.725-1.616,1.616l0,0c0,0.893,0.723,1.616,1.616,1.616H1711.271z"/>
	<path fill="#AAAAAA" d="M1711.271,302.46c0.894,0,1.615-0.723,1.615-1.615l0,0c0-0.892-0.721-1.616-1.615-1.615l-26.271,0
		c-0.894,0-1.616,0.725-1.616,1.616l0,0c0,0.893,0.723,1.615,1.616,1.615H1711.271z"/>
	<path fill="#AAAAAA" d="M1711.271,307.516c0.894,0,1.615-0.724,1.615-1.617l0,0c0-0.893-0.721-1.615-1.615-1.614l-26.271-0.001
		c-0.894,0-1.616,0.725-1.616,1.615l0,0c0,0.894,0.723,1.617,1.616,1.617H1711.271z"/>
	<path fill="#AAAAAA" d="M1711.271,312.57c0.894,0,1.615-0.725,1.615-1.615l0,0c0-0.894-0.721-1.616-1.615-1.616h-26.271
		c-0.894,0-1.616,0.724-1.616,1.616l0,0c0,0.892,0.723,1.615,1.616,1.615H1711.271z"/>
	<path fill="#AAAAAA" d="M1711.271,317.622c0.894,0,1.615-0.723,1.615-1.614l0,0c0-0.894-0.721-1.615-1.615-1.615h-26.271
		c-0.894,0-1.616,0.723-1.616,1.615l0,0c0,0.893,0.723,1.614,1.616,1.614H1711.271z"/>
	<path fill="#AAAAAA" d="M1711.271,322.678c0.894,0,1.615-0.724,1.615-1.615l0,0c0-0.894-0.721-1.616-1.615-1.616h-26.271
		c-0.894,0-1.616,0.724-1.616,1.616l0,0c0,0.893,0.723,1.615,1.616,1.615H1711.271z"/>
	<path fill="#AAAAAA" d="M1711.271,327.732c0.894,0,1.615-0.724,1.615-1.614l0,0c0-0.895-0.721-1.616-1.615-1.616h-26.271
		c-0.894,0-1.616,0.723-1.616,1.616l0,0c0,0.892,0.723,1.614,1.616,1.614H1711.271z"/>
	<path fill="#AAAAAA" d="M1711.271,332.786c0.894,0,1.615-0.725,1.615-1.615l0,0c0-0.893-0.721-1.615-1.615-1.614l-26.271-0.001
		c-0.894,0-1.616,0.724-1.616,1.615l0,0c0,0.892,0.723,1.615,1.616,1.615H1711.271z"/>
	<path fill="#AAAAAA" d="M1711.271,337.839c0.894,0,1.615-0.722,1.615-1.614l0,0c0-0.894-0.721-1.616-1.615-1.615l-26.271-0.001
		c-0.894,0-1.616,0.724-1.616,1.616l0,0c0,0.894,0.723,1.614,1.616,1.614H1711.271z"/>
	<path fill="#AAAAAA" d="M1711.271,342.894c0.894,0,1.615-0.723,1.615-1.613l0,0c0-0.895-0.721-1.618-1.615-1.616l-26.271-0.002
		c-0.894,0-1.616,0.725-1.616,1.618l0,0c0,0.892,0.723,1.613,1.616,1.613H1711.271z"/>
	<path fill="#AAAAAA" d="M1711.271,347.948c0.894,0,1.615-0.724,1.615-1.614l0,0c0-0.894-0.721-1.616-1.615-1.616h-26.271
		c-0.894,0-1.616,0.726-1.616,1.616l0,0c0,0.892,0.723,1.614,1.616,1.614H1711.271z"/>
	<path fill="#AAAAAA" d="M1711.271,353.002c0.894,0,1.615-0.722,1.615-1.615l0,0c0-0.893-0.721-1.615-1.615-1.615h-26.271
		c-0.894,0-1.616,0.724-1.616,1.615l0,0c0,0.894,0.723,1.615,1.616,1.615H1711.271z"/>
	<path fill="#AAAAAA" d="M1711.271,358.058c0.894,0,1.615-0.724,1.615-1.615l0,0c0-0.895-0.721-1.617-1.615-1.617h-26.271
		c-0.894,0-1.616,0.724-1.616,1.617l0,0c0,0.892,0.723,1.615,1.616,1.615H1711.271z"/>
	<path fill="#AAAAAA" d="M1711.271,363.112c0.894,0,1.615-0.724,1.615-1.615l0,0c0-0.893-0.721-1.616-1.615-1.616h-26.271
		c-0.894,0-1.616,0.726-1.616,1.616l0,0c0,0.892,0.723,1.615,1.616,1.615H1711.271z"/>
	<path fill="#AAAAAA" d="M1711.271,368.166c0.894,0,1.615-0.726,1.615-1.616l0,0c0-0.893-0.721-1.615-1.615-1.615h-26.271
		c-0.894,0-1.616,0.725-1.616,1.615l0,0c0,0.892,0.723,1.616,1.616,1.616H1711.271z"/>
	<path fill="#AAAAAA" d="M1711.271,373.221c0.894,0,1.615-0.724,1.615-1.616l0,0c0-0.894-0.721-1.616-1.615-1.615l-26.271-0.001
		c-0.894,0-1.616,0.725-1.616,1.616l0,0c0,0.893,0.723,1.616,1.616,1.616H1711.271z"/>
	<path fill="#AAAAAA" d="M1711.271,378.275c0.894,0,1.615-0.725,1.615-1.615l0,0c0-0.894-0.721-1.617-1.615-1.616l-26.271-0.001
		c-0.894,0-1.616,0.726-1.616,1.617l0,0c0,0.892,0.723,1.615,1.616,1.615H1711.271z"/>
	<path fill="#AAAAAA" d="M1711.271,383.329c0.894,0,1.615-0.725,1.615-1.616l0,0c0-0.892-0.721-1.616-1.615-1.615l-26.271-0.001
		c-0.894,0-1.616,0.726-1.616,1.616l0,0c0,0.892,0.723,1.616,1.616,1.616H1711.271z"/>
	<path fill="#AAAAAA" d="M1711.271,388.384c0.894,0,1.615-0.724,1.615-1.616l0,0c0-0.893-0.721-1.616-1.615-1.616h-26.271
		c-0.894,0-1.616,0.725-1.616,1.616l0,0c0,0.893,0.723,1.616,1.616,1.616H1711.271z"/>
	<path fill="#AAAAAA" d="M1711.271,393.437c0.894,0,1.615-0.724,1.615-1.614l0,0c0-0.894-0.721-1.616-1.615-1.616h-26.271
		c-0.894,0-1.616,0.724-1.616,1.616l0,0c0,0.893,0.723,1.614,1.616,1.614H1711.271z"/>
</g>
<text transform="matrix(1 0 0 1 95.2769 133.553)" display="none"><tspan x="0" y="0" display="inline" fill="#C792EA" font-family="'ArialMT'" font-size="12">include</tspan><tspan x="38.027" y="0" display="inline" font-family="'ArialMT'" font-size="12"> </tspan><tspan x="41.361" y="0" display="inline" fill="#EEFFFF" font-family="'ArialMT'" font-size="12">../_helpers/_setting.pug</tspan><tspan x="0" y="28.8" display="inline" fill="#F0715C" font-family="'ArialMT'" font-size="12">doctype html</tspan><tspan x="0" y="43.2" display="inline" fill="#EEFFFF" font-family="'ArialMT'" font-size="12">|</tspan><tspan x="0" y="57.6" display="inline" fill="#EEFFFF" font-family="'ArialMT'" font-size="12">|</tspan><tspan x="0" y="72" display="inline" fill="#7CDDFF" font-family="'ArialMT'" font-size="12">&lt;</tspan><tspan x="7.008" y="72" display="inline" fill="#F0715C" font-family="'ArialMT'" font-size="12">html</tspan><tspan x="29.678" y="72" display="inline" font-family="'ArialMT'" font-size="12"> </tspan><tspan x="33.012" y="72" display="inline" fill="#C792EA" font-family="'ArialMT'" font-size="12">lang</tspan><tspan x="55.699" y="72" display="inline" fill="#7CDDFF" font-family="'ArialMT'" font-size="12">=&quot;</tspan><tspan x="66.967" y="72" display="inline" fill="#C3E88D" font-family="'ArialMT'" font-size="12">en</tspan><tspan x="80.314" y="72" display="inline" fill="#7CDDFF" font-family="'ArialMT'" font-size="12">&quot;&gt;</tspan><tspan x="0" y="86.4" display="inline" fill="#EEFFFF" font-family="'ArialMT'" font-size="12">|</tspan><tspan x="0" y="100.8" display="inline" fill="#EEFFFF" font-family="'ArialMT'" font-size="12">|</tspan><tspan x="0" y="115.2" display="inline" fill="#C792EA" font-family="'ArialMT'" font-size="12">+</tspan><tspan x="7.008" y="115.2" display="inline" fill="#75AAFF" font-family="'ArialMT'" font-size="12">head</tspan><tspan x="33.703" y="115.2" display="inline" fill="#EEFFFF" font-family="'ArialMT'" font-size="12">(fp)</tspan><tspan x="0" y="129.6" display="inline" fill="#EEFFFF" font-family="'ArialMT'" font-size="12">|</tspan><tspan x="0" y="144" display="inline" fill="#EEFFFF" font-family="'ArialMT'" font-size="12">|</tspan><tspan x="0" y="158.4" display="inline" fill="#F0715C" font-family="'ArialMT'" font-size="12">body</tspan><tspan x="26.021" y="158.4" display="inline" fill="#C792EA" font-family="'ArialMT'" font-size="12">#home</tspan><tspan x="62.713" y="158.4" display="inline" fill="#FFBE45" font-family="'ArialMT'" font-size="12">.index</tspan><tspan x="94.734" y="158.4" display="inline" fill="#EEFFFF" font-family="'ArialMT'" font-size="12">(</tspan><tspan x="98.73" y="158.4" display="inline" fill="#C792EA" font-family="'ArialMT'" font-size="12">data-id</tspan><tspan x="135.422" y="158.4" display="inline" fill="#F9F9F9" font-family="'ArialMT'" font-size="12">=</tspan><tspan x="142.43" y="158.4" display="inline" fill="#C3E88D" font-family="'ArialMT'" font-size="12">&quot;home&quot;</tspan><tspan x="180.967" y="158.4" display="inline" fill="#EEFFFF" font-family="'ArialMT'" font-size="12">)</tspan><tspan x="0" y="172.8" display="inline" font-family="'ArialMT'" font-size="12" letter-spacing="32">	</tspan><tspan x="36" y="172.8" display="inline" fill="#C792EA" font-family="'ArialMT'" font-size="12">+</tspan><tspan x="43.008" y="172.8" display="inline" fill="#75AAFF" font-family="'ArialMT'" font-size="12">header</tspan><tspan x="80.373" y="172.8" display="inline" fill="#FAFAFA" font-family="'ArialMT'" font-size="12">(f</tspan><tspan x="87.703" y="172.8" display="inline" fill="#EEFFFF" font-family="'ArialMT'" font-size="12">p</tspan><tspan x="94.377" y="172.8" display="inline" fill="#7CDDFF" font-family="'ArialMT'" font-size="12">,</tspan><tspan x="97.711" y="172.8" display="inline" fill="#EEFFFF" font-family="'ArialMT'" font-size="12">lp</tspan><tspan x="107.051" y="172.8" display="inline" fill="#7CDDFF" font-family="'ArialMT'" font-size="12">,</tspan><tspan x="110.385" y="172.8" display="inline" fill="#EEFFFF" font-family="'ArialMT'" font-size="12">ml)</tspan><tspan x="0" y="201.6" display="inline" font-family="'ArialMT'" font-size="12" letter-spacing="32">	</tspan><tspan x="36" y="201.6" display="inline" fill="#FFBE45" font-family="'ArialMT'" font-size="12">.main</tspan><tspan x="0" y="216" display="inline" font-family="'ArialMT'" font-size="12" letter-spacing="32">		</tspan><tspan x="72" y="216" display="inline" fill="#F0715C" font-family="'ArialMT'" font-size="12">article</tspan><tspan x="104.01" y="216" display="inline" fill="#FFBE45" font-family="'ArialMT'" font-size="12">.banner.banner--home</tspan><tspan x="0" y="230.4" display="inline" font-family="'ArialMT'" font-size="12" letter-spacing="32">			</tspan><tspan x="108" y="230.4" display="inline" fill="#F0715C" font-family="'ArialMT'" font-size="12">img</tspan><tspan x="127.336" y="230.4" display="inline" fill="#EEFFFF" font-family="'ArialMT'" font-size="12">(</tspan><tspan x="131.332" y="230.4" display="inline" fill="#C792EA" font-family="'ArialMT'" font-size="12">src</tspan><tspan x="147.328" y="230.4" display="inline" fill="#F9F9F9" font-family="'ArialMT'" font-size="12">=</tspan><tspan x="154.336" y="230.4" display="inline" fill="#C3E88D" font-family="'ArialMT'" font-size="12">&quot;../../assets/img/banner/bn-home.svg&quot;</tspan><tspan x="353.613" y="230.4" display="inline" font-family="'ArialMT'" font-size="12"> </tspan><tspan x="356.947" y="230.4" display="inline" fill="#C792EA" font-family="'ArialMT'" font-size="12">alt</tspan><tspan x="369.621" y="230.4" display="inline" fill="#F9F9F9" font-family="'ArialMT'" font-size="12">=</tspan><tspan x="376.629" y="230.4" display="inline" fill="#C3E88D" font-family="'ArialMT'" font-size="12">&quot;&quot;</tspan><tspan x="385.148" y="230.4" display="inline" fill="#EEFFFF" font-family="'ArialMT'" font-size="12">)</tspan><tspan x="0" y="244.8" display="inline" font-family="'ArialMT'" font-size="12" letter-spacing="32">			</tspan><tspan x="108" y="244.8" display="inline" fill="#FFBE45" font-family="'ArialMT'" font-size="12">.slogan </tspan><tspan x="0" y="259.2" display="inline" font-family="'ArialMT'" font-size="12" letter-spacing="32">				</tspan><tspan x="144" y="259.2" display="inline" fill="#FFBE45" font-family="'ArialMT'" font-size="12">.slogan-site </tspan><tspan x="0" y="273.6" display="inline" font-family="'ArialMT'" font-size="12" letter-spacing="32">					</tspan><tspan x="180" y="273.6" display="inline" fill="#FFBE45" font-family="'ArialMT'" font-size="12">.slogan__title </tspan><tspan x="0" y="288" display="inline" font-family="'ArialMT'" font-size="12" letter-spacing="32">						</tspan><tspan x="216" y="288" display="inline" fill="#FFBE45" font-family="'ArialMT'" font-size="12">.t-eng</tspan><tspan x="246.686" y="288" display="inline" font-family="'ArialMT'" font-size="12"> </tspan><tspan x="250.02" y="288" display="inline" fill="#EEFFFF" font-family="'ArialMT'" font-size="12">Take Notes</tspan><tspan x="0" y="302.4" display="inline" font-family="'ArialMT'" font-size="12" letter-spacing="32">					</tspan><tspan x="180" y="302.4" display="inline" fill="#FFBE45" font-family="'ArialMT'" font-size="12" letter-spacing="32">	</tspan><tspan x="216" y="302.4" display="inline" fill="#FFBE45" font-family="'ArialMT'" font-size="12">.t-cht</tspan><tspan x="242.672" y="302.4" display="inline" font-family="'ArialMT'" font-size="12"> </tspan><tspan x="246.006" y="302.4" display="inline" fill="#EEFFFF" font-family="'MicrosoftJhengHeiRegular'" font-size="12">隨手筆記</tspan><tspan x="0" y="331.2" display="inline" font-family="'ArialMT'" font-size="12" letter-spacing="32">			</tspan><tspan x="108" y="331.2" display="inline" fill="#FFBE45" font-family="'ArialMT'" font-size="12">.banner__mask</tspan><tspan x="0" y="360" display="inline" font-family="'ArialMT'" font-size="12" letter-spacing="32">		</tspan><tspan x="72" y="360" display="inline" fill="#F0715C" font-family="'ArialMT'" font-size="12">article</tspan><tspan x="0" y="374.399" display="inline" font-family="'ArialMT'" font-size="12" letter-spacing="32">			</tspan><tspan x="108" y="374.399" display="inline" fill="#FFBE45" font-family="'ArialMT'" font-size="12">.wrap </tspan><tspan x="0" y="388.8" display="inline" font-family="'ArialMT'" font-size="12" letter-spacing="32">				</tspan><tspan x="144" y="388.8" display="inline" font-family="'ArialMT'" font-size="12">.</tspan></text>
<text transform="matrix(1 0 0 1 573.416 151.8337)" display="none"><tspan x="0" y="0" display="inline" font-family="'MicrosoftJhengHeiRegular'" font-size="12">.bk-chapter</tspan><tspan x="0" y="14.4" display="inline" font-family="'MicrosoftJhengHeiRegular'" font-size="12">    // Module</tspan><tspan x="0" y="28.8" display="inline" font-family="'MicrosoftJhengHeiRegular'" font-size="12">    .t-title</tspan><tspan x="0" y="43.2" display="inline" font-family="'MicrosoftJhengHeiRegular'" font-size="12">        display: block</tspan><tspan x="0" y="57.6" display="inline" font-family="'MicrosoftJhengHeiRegular'" font-size="12">        font-family: font(bold)</tspan><tspan x="0" y="72" display="inline" font-family="'MicrosoftJhengHeiRegular'" font-size="12">        font-size: px(18)</tspan><tspan x="0" y="86.4" display="inline" font-family="'MicrosoftJhengHeiRegular'" font-size="12">        border-bottom: 1px solid cr(white)</tspan><tspan x="0" y="100.8" display="inline" font-family="'MicrosoftJhengHeiRegular'" font-size="12">        line-height: 2</tspan><tspan x="0" y="115.2" display="inline" font-family="'MicrosoftJhengHeiRegular'" font-size="12">        margin-bottom: 10px</tspan><tspan x="0" y="144" display="inline" font-family="'MicrosoftJhengHeiRegular'" font-size="12">    .box-burl</tspan><tspan x="0" y="158.4" display="inline" font-family="'MicrosoftJhengHeiRegular'" font-size="12">        margin-left: 30px</tspan><tspan x="0" y="187.2" display="inline" font-family="'MicrosoftJhengHeiRegular'" font-size="12">        li</tspan><tspan x="0" y="201.6" display="inline" font-family="'MicrosoftJhengHeiRegular'" font-size="12">            position: relative</tspan><tspan x="0" y="216" display="inline" font-family="'MicrosoftJhengHeiRegular'" font-size="12">            &amp;::before</tspan><tspan x="0" y="230.4" display="inline" font-family="'MicrosoftJhengHeiRegular'" font-size="12">                position: absolute</tspan><tspan x="0" y="244.8" display="inline" font-family="'MicrosoftJhengHeiRegular'" font-size="12">                top: 13px</tspan><tspan x="0" y="259.2" display="inline" font-family="'MicrosoftJhengHeiRegular'" font-size="12">                left: -20px</tspan><tspan x="0" y="273.6" display="inline" font-family="'MicrosoftJhengHeiRegular'" font-size="12">                content: &apos;&apos;</tspan><tspan x="0" y="288" display="inline" font-family="'MicrosoftJhengHeiRegular'" font-size="12">                width: 2px</tspan><tspan x="0" y="302.4" display="inline" font-family="'MicrosoftJhengHeiRegular'" font-size="12">                height: 2px</tspan><tspan x="0" y="316.8" display="inline" font-family="'MicrosoftJhengHeiRegular'" font-size="12">                border-radius: 100%</tspan><tspan x="0" y="331.2" display="inline" font-family="'MicrosoftJhengHeiRegular'" font-size="12">                background: cr(inner)</tspan></text>
<g opacity="0.5">
	<path opacity="0.9" fill="#212121" d="M683.274,481.793c0,4.156-3.369,7.527-7.526,7.527H243.146c-4.157,0-7.526-3.371-7.526-7.527
		V80.024c0-4.157,3.369-7.526,7.526-7.526h432.602c4.157,0,7.526,3.37,7.526,7.526V481.793z"/>
	<g>
		<rect x="267.539" y="87.971" fill="#C792EA" width="37.89" height="8"/>
		<rect x="299.664" y="159.888" fill="#C792EA" width="21.848" height="8"/>
		<rect x="267.539" y="203.388" fill="#C792EA" width="5.348" height="8"/>
		<rect x="294.889" y="246.722" fill="#C792EA" width="36.049" height="8"/>
		<rect x="372.532" y="246.722" fill="#C792EA" width="35.424" height="8"/>
		<rect x="398.032" y="318.723" fill="#C792EA" width="26.479" height="8"/>
		<rect x="624.032" y="318.723" fill="#C792EA" width="31.479" height="8"/>
		<rect x="274.625" y="203.388" fill="#75AAFF" width="24.637" height="8"/>
		<rect x="267.539" y="159.888" fill="#7CDDFF" width="5.348" height="8"/>
		<rect x="347.387" y="159.888" fill="#7CDDFF" width="10.125" height="8"/>
		<rect x="322.762" y="159.888" fill="#7CDDFF" width="10.125" height="8"/>
		<rect x="334.116" y="159.888" fill="#C3E88D" width="12.021" height="8"/>
		<rect x="413.116" y="246.722" fill="#C3E88D" width="37.35" height="8"/>
		<rect x="428.866" y="318.723" fill="#C3E88D" width="190.896" height="8"/>
		<rect x="267.539" y="117.289" fill="#F0715C" width="67.223" height="8"/>
		<rect x="274.625" y="159.888" fill="#F0715C" width="20.762" height="8"/>
		<rect x="267.539" y="246.722" fill="#F0715C" width="24.89" height="8"/>
		<rect x="338.586" y="304.223" fill="#F0715C" width="30.861" height="8"/>
		<rect x="374.813" y="318.723" fill="#F0715C" width="18.448" height="8"/>
		<rect x="338.586" y="448.389" fill="#F0715C" width="30.861" height="8"/>
		<rect x="338.586" y="246.722" fill="#FFBE45" width="30.861" height="8"/>
		<rect x="303.525" y="291.047" fill="#FFBE45" width="28.737" height="8"/>
		<rect x="374.275" y="333.865" fill="#FFBE45" width="38.841" height="8"/>
		<rect x="374.275" y="419.533" fill="#FFBE45" width="82.154" height="8"/>
		<rect x="374.275" y="462.867" fill="#FFBE45" width="27.487" height="8"/>
		<rect x="411.973" y="348.531" fill="#FFBE45" width="59.789" height="8"/>
		<rect x="447.973" y="363.199" fill="#FFBE45" width="68.123" height="8"/>
		<rect x="482.034" y="376.865" fill="#FFBE45" width="30.394" height="8"/>
		<rect x="482.034" y="391.199" fill="#FFBE45" width="30.394" height="8"/>
		<rect x="374.275" y="304.223" fill="#FFBE45" width="114.237" height="8"/>
		<rect x="308.236" y="87.971" fill="#EEFFFF" width="124.525" height="8"/>
		<rect x="267.539" y="131.594" fill="#EEFFFF" width="1.278" height="8"/>
		<rect x="267.539" y="146.094" fill="#EEFFFF" width="1.278" height="8"/>
		<rect x="267.539" y="174.927" fill="#EEFFFF" width="1.278" height="8"/>
		<rect x="267.539" y="189.427" fill="#EEFFFF" width="1.278" height="8"/>
		<rect x="267.539" y="217.729" fill="#EEFFFF" width="1.278" height="8"/>
		<rect x="267.539" y="232.229" fill="#EEFFFF" width="1.278" height="8"/>
		<rect x="300.887" y="203.388" fill="#EEFFFF" width="17.125" height="8"/>
		<rect x="303.525" y="260.138" fill="#C792EA" width="5.348" height="8"/>
		<rect x="310.611" y="260.138" fill="#75AAFF" width="24.637" height="8"/>
		<rect x="336.873" y="260.138" fill="#EEFFFF" width="56.389" height="8"/>
		<rect x="516.095" y="376.865" fill="#EEFFFF" width="56.389" height="8"/>
		<rect x="516.095" y="390.684" fill="#EEFFFF" width="56.389" height="8"/>
	</g>
	<path opacity="0.9" fill="none" stroke="#AAAAAA" stroke-miterlimit="10" d="M687.447,487c0,4.418-3.582,8-8,8h-440
		c-4.418,0-8-3.582-8-8V74.818c0-4.418,3.582-8,8-8h440c4.418,0,8,3.582,8,8V487z"/>
</g>
<g>
	<path opacity="0.9" fill="#212121" d="M778.668,550.377c0,4.156-3.369,7.525-7.526,7.525H518.541c-4.157,0-7.526-3.369-7.526-7.525
		v-401.77c0-4.157,3.369-7.526,7.526-7.526h252.602c4.157,0,7.526,3.37,7.526,7.526V550.377z"/>
	<g>
		<rect x="607.158" y="246.818" fill="#75AAFF" width="12.319" height="8"/>
		<rect x="695.083" y="261.068" fill="#75AAFF" width="9.016" height="8"/>
		<rect x="649.841" y="507.129" fill="#75AAFF" width="9.016" height="8"/>
		<rect x="552.173" y="218.568" fill="#7CDDFF" width="41.168" height="8"/>
		<rect x="552.173" y="232.068" fill="#7CDDFF" width="63.668" height="8"/>
		<rect x="552.173" y="246.818" fill="#7CDDFF" width="50.168" height="8"/>
		<rect x="552.173" y="261.068" fill="#7CDDFF" width="86.874" height="8"/>
		<rect x="552.173" y="276.068" fill="#7CDDFF" width="63.668" height="8"/>
		<rect x="552.173" y="290.652" fill="#7CDDFF" width="88.918" height="8"/>
		<rect x="552.146" y="334.319" fill="#7CDDFF" width="65.529" height="8"/>
		<rect x="564.479" y="377.651" fill="#7CDDFF" width="47.363" height="8"/>
		<rect x="576.479" y="406.129" fill="#7CDDFF" width="47.363" height="8"/>
		<rect x="576.479" y="433.463" fill="#7CDDFF" width="20.196" height="8"/>
		<rect x="576.479" y="420.963" fill="#7CDDFF" width="20.196" height="8"/>
		<rect x="576.479" y="449.463" fill="#7CDDFF" width="45.363" height="8"/>
		<rect x="576.479" y="463.463" fill="#7CDDFF" width="33.53" height="8"/>
		<rect x="576.479" y="478.463" fill="#7CDDFF" width="38.029" height="8"/>
		<rect x="576.479" y="492.129" fill="#7CDDFF" width="79.363" height="8"/>
		<rect x="576.479" y="507.129" fill="#7CDDFF" width="69.029" height="8"/>
		<rect x="626.081" y="449.463" fill="#C3E88D" width="12.021" height="8"/>
		<rect x="552.146" y="361.68" fill="#F0715C" width="6.196" height="8"/>
		<rect x="616.091" y="377.651" fill="#F0715C" width="41.25" height="8"/>
		<rect x="621.591" y="334.319" fill="#F0715C" width="27.75" height="8"/>
		<rect x="647.042" y="290.652" fill="#F0715C" width="27.75" height="8"/>
		<rect x="619.477" y="276.068" fill="#F0715C" width="7.114" height="8"/>
		<rect x="597.727" y="218.568" fill="#F0715C" width="28.864" height="8"/>
		<rect x="619.477" y="232.068" fill="#F0715C" width="57.364" height="8"/>
		<rect x="621.659" y="246.818" fill="#F0715C" width="19.432" height="8"/>
		<rect x="643.409" y="261.068" fill="#F0715C" width="48.932" height="8"/>
		<rect x="706.683" y="261.068" fill="#F0715C" width="38.408" height="8"/>
		<rect x="626.417" y="406.129" fill="#F0715C" width="50.175" height="8"/>
		<rect x="601.329" y="420.963" fill="#F0715C" width="27.512" height="8"/>
		<rect x="600.752" y="433.463" fill="#F0715C" width="31.339" height="8"/>
		<rect x="613.172" y="463.463" fill="#F0715C" width="18.919" height="8"/>
		<rect x="618.382" y="478.463" fill="#F0715C" width="18.919" height="8"/>
		<rect x="658.857" y="492.129" fill="#F0715C" width="30.734" height="8"/>
		<rect x="661.225" y="507.129" fill="#F0715C" width="34.367" height="8"/>
		<rect x="564.479" y="391.985" fill="#F0715C" width="8.863" height="8"/>
		<rect x="527.757" y="175.235" fill="#FFBE45" width="62.584" height="8"/>
		<rect x="540.589" y="203.993" fill="#FFBE45" width="35.502" height="8"/>
		<rect x="540.589" y="319.658" fill="#FFBE45" width="49.752" height="8"/>
		<rect x="574.827" y="391.985" fill="#C792EA" width="41.265" height="8"/>
	</g>
	<path opacity="0.9" fill="none" stroke="#AAAAAA" stroke-miterlimit="10" d="M782.841,555.582c0,4.418-3.582,8-8,8h-260
		c-4.418,0-8-3.582-8-8V143.402c0-4.418,3.582-8,8-8h260c4.418,0,8,3.582,8,8V555.582z"/>
</g>
<g>
	<path fill="none" stroke="#AAAAAA" stroke-miterlimit="10" d="M1081.088,302.921c0-43.24,12.549-83.55,34.203-117.485"/>
	<path fill="none" stroke="#AAAAAA" stroke-miterlimit="10" d="M1024.217,303.043c0-152.095,123.297-275.392,275.392-275.392
		c98.279,0,184.534,51.481,233.269,128.947"/>
	<line fill="none" stroke="#FFFFFF" stroke-miterlimit="10" x1="1477.638" y1="303.418" x2="1477.638" y2="490.922"/>
	<line fill="none" stroke="#FFFFFF" stroke-miterlimit="10" x1="1123.031" y1="303.459" x2="1123.031" y2="490.934"/>
	<line fill="none" stroke="#FFFFFF" stroke-miterlimit="10" x1="1211.809" y1="303.043" x2="1211.809" y2="532"/>
	<line fill="none" stroke="#FFFFFF" stroke-miterlimit="10" x1="1388.158" y1="303.043" x2="1388.158" y2="532"/>
	<line fill="none" stroke="#FFFFFF" stroke-miterlimit="10" x1="1299.608" y1="303.043" x2="1299.608" y2="531.517"/>
	<line fill="none" stroke="#FFFFFF" stroke-miterlimit="10" x1="1123.031" y1="490.434" x2="1477.638" y2="490.434"/>
	<line fill="none" stroke="#FFFFFF" stroke-miterlimit="10" x1="1299.794" y1="302.921" x2="1594.834" y2="117.702"/>
	<line fill="none" stroke="#FFFFFF" stroke-miterlimit="10" x1="1277.585" y1="288.752" x2="1101.984" y2="176.959"/>
	<line fill="none" stroke="#FFFFFF" stroke-miterlimit="10" x1="1003.899" y1="303.043" x2="1837.75" y2="303.043"/>
	<line fill="none" stroke="#FFFFFF" stroke-miterlimit="10" x1="1211.822" y1="531.517" x2="1388.519" y2="531.517"/>
	<rect x="1123.031" y="486.5" fill="#FFFFFF" width="10.256" height="3.934"/>
	<rect x="1123.031" y="302.524" fill="#FFFFFF" width="10.256" height="3.934"/>
	<rect x="1206.916" y="302.524" fill="#FFFFFF" width="10.256" height="3.934"/>
	<rect x="1294.412" y="302.524" fill="#FFFFFF" width="10.256" height="3.934"/>
	<rect x="1383.03" y="302.524" fill="#FFFFFF" width="10.256" height="3.934"/>
	<rect x="1467.579" y="302.524" fill="#FFFFFF" width="10.256" height="3.934"/>
	<rect x="1826.839" y="298.073" fill="#FFFFFF" width="3.934" height="10.256"/>
	<rect x="1826.839" y="256.83" fill="#FFFFFF" width="3.934" height="10.256"/>
	<rect x="1826.839" y="339.314" fill="#FFFFFF" width="3.934" height="10.256"/>
	<rect x="1206.693" y="486.5" fill="#FFFFFF" width="10.256" height="3.934"/>
	<rect x="1294.48" y="486.5" fill="#FFFFFF" width="10.256" height="3.934"/>
	<rect x="1383.03" y="486.5" fill="#FFFFFF" width="10.256" height="3.934"/>
	<rect x="1467.275" y="486.5" fill="#FFFFFF" width="10.256" height="3.934"/>
	<rect x="1294.48" y="527.583" fill="#FFFFFF" width="10.256" height="3.934"/>
	<rect x="1211.822" y="527.583" fill="#FFFFFF" width="10.256" height="3.934"/>
	<rect x="1377.902" y="527.583" fill="#FFFFFF" width="10.256" height="3.934"/>
	<circle fill="#FFFFFF" cx="1023.797" cy="303.043" r="1.99"/>
	<circle fill="#FFFFFF" cx="1081.088" cy="303.043" r="1.989"/>
	<circle fill="#FFFFFF" cx="1115.291" cy="185.456" r="1.989"/>
	<circle fill="#FFFFFF" cx="1532.565" cy="156.656" r="1.99"/>
	<line fill="none" stroke="#FFFFFF" stroke-miterlimit="10" x1="1714.125" y1="256.904" x2="1837.75" y2="256.904"/>
	<line fill="none" stroke="#FFFFFF" stroke-miterlimit="10" x1="1714.125" y1="349.623" x2="1837.75" y2="349.623"/>
	<line fill="none" stroke="#FFFFFF" stroke-miterlimit="10" x1="1831" y1="256.904" x2="1831" y2="349.496"/>
</g>
</svg>
