<?xml version="1.0" encoding="utf-8"?>
<!-- Generator: Adobe Illustrator 16.0.0, SVG Export Plug-In . SVG Version: 6.00 Build 0)  -->
<!DOCTYPE svg PUBLIC "-//W3C//DTD SVG 1.1//EN" "http://www.w3.org/Graphics/SVG/1.1/DTD/svg11.dtd">
<svg version="1.1" id="圖層_1" xmlns="http://www.w3.org/2000/svg" xmlns:xlink="http://www.w3.org/1999/xlink" x="0px" y="0px"
	 width="600.5px" height="600.5px" viewBox="0 0 600.5 600.5" enable-background="new 0 0 600.5 600.5" xml:space="preserve">
<g>
	<polygon fill="#999" points="407.195,113.487 459.128,113.487 194.618,354.328 141.373,354.328 	"/>
	<polygon fill="#ffffff" points="268.632,453.075 141.373,354.328 194.618,354.328 194.618,114.447 142.681,114.447 268.632,64.433 
			"/>
	<polygon fill="#ffffff" points="332.989,452.672 332.989,6.673 459.128,113.487 407.195,113.487 407.195,353.673 459.128,353.673 	
		"/>
	<polygon fill="#ffffff" points="268.165,42.596 142.218,93.346 268.165,6.673 	"/>
	<g>
		<path fill="#ffffff" d="M282.207,534.544h2.571v58.425h-2.571v-22.277h-40.04v22.279h-2.572v-58.424h2.572v33.887h40.04V534.544
			L282.207,534.544z"/>
		<path fill="#ffffff" d="M330.273,557.915v35.056h-2.493v-8.725c-1.453,2.961-3.635,5.297-6.544,7.011
			c-2.908,1.712-6.023,2.57-9.346,2.57c-5.091,0-9.454-1.803-13.089-5.414c-3.637-3.608-5.453-7.932-5.453-12.971
			c0-5.037,1.816-9.36,5.453-12.972c3.635-3.61,7.998-5.413,13.089-5.413c3.322,0,6.503,0.884,9.542,2.647
			c3.037,1.767,5.154,4.104,6.348,7.01v-8.802h2.493V557.915z M295.842,575.521c0,4.363,1.597,8.141,4.791,11.334
			c3.193,3.195,6.984,4.791,11.373,4.791c4.387,0,8.139-1.596,11.255-4.791c3.115-3.193,4.674-6.983,4.674-11.374
			c0-4.387-1.57-8.19-4.711-11.412c-3.144-3.218-6.894-4.827-11.258-4.827c-4.361,0-8.14,1.621-11.333,4.869
			C297.439,567.355,295.842,571.159,295.842,575.521z"/>
		<path fill="#ffffff" d="M352.161,591.257v2.181c-3.69,0-6.829-1.232-9.427-3.701c-2.597-2.464-3.893-5.621-3.893-9.466v-36.458
			h2.491v14.179h10.75v2.182h-10.75v20.098c0,3.169,1.053,5.791,3.154,7.869C346.594,590.22,349.149,591.257,352.161,591.257z"/>
		<path fill="#ffffff" d="M360.655,549.421c-1.507,0-2.26-0.699-2.26-2.101c0-1.403,0.753-2.103,2.26-2.103
			c1.506,0,2.258,0.699,2.258,2.103C362.911,548.725,362.158,549.421,360.655,549.421z M361.901,557.994v34.977h-2.494v-34.977
			H361.901z"/>
	</g>
</g>
</svg>
