<?xml version="1.0" encoding="utf-8"?>
<!-- Generator: Adobe Illustrator 26.0.1, SVG Export Plug-In . SVG Version: 6.00 Build 0)  -->
<svg version="1.1" id="圖層_1" xmlns="http://www.w3.org/2000/svg" xmlns:xlink="http://www.w3.org/1999/xlink" x="0px" y="0px"
	 viewBox="0 0 270.33 116.23" style="enable-background:new 0 0 270.33 116.23;" xml:space="preserve">
<style type="text/css">
	.st0{fill:#FFFFFF;}
</style>
<g>
	<g>
		<g>
			<path class="st0" d="M41.88,5.99c0,3.31-2.68,5.99-5.99,5.99c-3.31,0-5.99-2.68-5.99-5.99C29.9,2.68,32.59,0,35.89,0
				C39.2,0,41.88,2.68,41.88,5.99z"/>
			<path class="st0" d="M88.82,38c0-11.55-9.4-20.95-20.95-20.95c-3.56,0-6.91,0.9-9.85,2.47l0.01,0.01l-0.03,0.02L58,19.52
				l-4.43,2.54l-0.01,0.01v0l-11.65,6.69v-5.71h-0.04c-0.18-3.15-2.78-5.65-5.97-5.65c-3.19,0-5.79,2.5-5.97,5.65h-0.01v0.29
				c0,0.02,0,0.03,0,0.05c0,0.02,0,0.03,0,0.05v12.21L11.19,46.37l0,0.01C4.55,49.89,0,56.88,0,64.91c0,11.55,9.4,20.95,20.95,20.95
				c11.44,0,20.76-9.22,20.94-20.62h0.02v-0.33c0,0,0,0,0,0v-3.52h0v-18.8l22.06-12.66l0.01,0.02c1.18-0.57,2.5-0.9,3.89-0.9
				c4.94,0,8.95,4.02,8.95,8.95c0,2.79-1.29,5.29-3.3,6.94l-4.66,3.09l0,0L49.62,60.65l0,0.01c-1.62,0.98-2.71,2.75-2.71,4.78
				c0,0.08,0.01,0.15,0.01,0.23h-0.01v23.79v23.79c0,1.66,1.34,3,3,3c1.66,0,3-1.34,3-3l0,0V94.86c0.08,0,0.16,0.01,0.24,0.01
				c3.07,0,5.57-2.4,5.76-5.42h0.01v-0.12c0-0.08,0.01-0.16,0.01-0.23s-0.01-0.16-0.01-0.23V68.9l21.2-13.91l-0.01-0.02
				C85.37,51.16,88.82,44.98,88.82,38z M20.95,73.86c-4.94,0-8.95-4.02-8.95-8.95c0-3.62,2.16-6.74,5.25-8.15l3.69-2.14l8.96-5.14
				v15.44C29.9,69.85,25.89,73.86,20.95,73.86z"/>
		</g>
	</g>
	<g>
		<path class="st0" d="M108.54,74.55h4.44v11.38c0,1.36-0.36,2.48-1.08,3.34c-0.71,0.84-1.66,1.25-2.93,1.25
			c-1.27,0-2.34-0.49-3.25-1.49l-0.87-0.95v2.51l0.18,0.15c1.16,0.99,2.46,1.49,3.85,1.49h0.24c1.68,0,3.06-0.61,4.11-1.8
			c1.03-1.18,1.55-2.72,1.55-4.58V72.86h-6.23V74.55z"/>
		<path class="st0" d="M122.43,79.79c-1.53,0-2.75,0.44-3.65,1.32v-8.23h-1.77v18.98h1.77v-6.79c0-0.97,0.36-1.8,1.1-2.52
			c0.74-0.73,1.58-1.08,2.55-1.08c0.97,0,1.78,0.35,2.47,1.06c0.7,0.72,1.04,1.55,1.04,2.54v6.79h1.77v-6.79
			c0-1.46-0.51-2.72-1.52-3.74C125.17,80.31,123.9,79.79,122.43,79.79z"/>
		<path class="st0" d="M138.03,86.85c0,0.97-0.36,1.8-1.11,2.52c-0.75,0.73-1.59,1.08-2.57,1.08c-0.97,0-1.77-0.35-2.46-1.07
			c-0.69-0.73-1.03-1.56-1.03-2.54v-6.79h-1.77v6.79c0,1.46,0.51,2.71,1.51,3.73c1,1.02,2.26,1.54,3.74,1.54
			c1.54,0,2.77-0.46,3.68-1.38v1.12h1.77v-11.8h-1.77V86.85z"/>
		<path class="st0" d="M151.45,81.61c-0.34-0.35-0.74-0.66-1.21-0.93c-1.01-0.59-2.08-0.88-3.19-0.88c-1.7,0-3.17,0.61-4.38,1.81
			c-1.21,1.2-1.83,2.67-1.83,4.35c0,1.68,0.62,3.15,1.83,4.35s2.69,1.81,4.38,1.81c1.11,0,2.17-0.29,3.13-0.86
			c0.48-0.28,0.9-0.61,1.26-1v1.6h1.77v-11.8h-1.77V81.61z M150.19,82.8c0.88,0.9,1.31,1.94,1.31,3.17c0,1.23-0.42,2.26-1.3,3.15
			c-0.87,0.89-1.89,1.33-3.11,1.33c-1.22,0-2.25-0.43-3.15-1.33c-0.89-0.89-1.33-1.92-1.33-3.14c0-1.22,0.44-2.25,1.33-3.17
			c0.89-0.91,1.92-1.35,3.14-1.35C148.29,81.47,149.31,81.9,150.19,82.8z"/>
		<path class="st0" d="M160.54,79.79c-1.54,0-2.77,0.46-3.68,1.38v-1.12h-1.77v11.8h1.77v-6.79c0-0.97,0.36-1.8,1.11-2.52
			c0.75-0.73,1.59-1.08,2.57-1.08c0.97,0,1.77,0.35,2.46,1.07c0.69,0.73,1.03,1.56,1.03,2.54v6.79h1.77v-6.79
			c0-1.46-0.51-2.71-1.51-3.73C163.28,80.31,162.02,79.79,160.54,79.79z"/>
		<path class="st0" d="M177.7,81.64c-0.36-0.38-0.78-0.7-1.25-0.98c-0.98-0.56-2.04-0.85-3.17-0.85c-1.7,0-3.17,0.61-4.38,1.81
			c-1.21,1.2-1.83,2.67-1.83,4.35s0.62,3.15,1.83,4.35c1.21,1.2,2.69,1.81,4.38,1.81c1.08,0,2.13-0.29,3.13-0.86
			c0.49-0.28,0.92-0.61,1.29-0.99v0.05c0,1.51-0.41,2.71-1.21,3.56c-0.81,0.86-1.82,1.27-3.09,1.27c-0.83,0-1.67-0.24-2.47-0.7
			c-0.8-0.46-1.4-1.04-1.77-1.72l-0.94-1.74v3.24l0.09,0.13c0.53,0.74,1.27,1.34,2.21,1.79c0.93,0.45,1.9,0.67,2.88,0.67
			c1.8,0,3.28-0.59,4.39-1.76c1.11-1.17,1.67-2.76,1.67-4.74V80.06h-1.77V81.64z M176.43,82.82c0.87,0.89,1.3,1.93,1.3,3.17
			s-0.42,2.27-1.3,3.17c-0.87,0.89-1.89,1.33-3.11,1.33c-1.22,0-2.25-0.44-3.15-1.33c-0.89-0.89-1.33-1.93-1.33-3.16
			s0.43-2.27,1.33-3.16c0.9-0.89,1.93-1.33,3.15-1.33C174.54,81.49,175.56,81.92,176.43,82.82z"/>
		<path class="st0" d="M182.98,72.86h-1.29v19h1.79V85.3c1.46-0.07,2.81-0.68,4.03-1.81c1.31-1.21,1.97-2.68,1.97-4.38
			c0-1.68-0.64-3.16-1.9-4.4C186.32,73.48,184.77,72.86,182.98,72.86z M183.48,83.62v-9.06c1.06,0.07,1.99,0.52,2.83,1.36
			c0.93,0.92,1.38,1.96,1.38,3.2c0,1.23-0.44,2.27-1.35,3.17C185.5,83.12,184.57,83.56,183.48,83.62z"/>
		<path class="st0" d="M191.91,76.15c-0.74,0-1.2,0.44-1.2,1.15s0.46,1.15,1.2,1.15c0.74,0,1.2-0.44,1.2-1.15
			S192.65,76.15,191.91,76.15z"/>
		<rect x="191.02" y="80.08" class="st0" width="1.77" height="11.78"/>
		<path class="st0" d="M200.43,79.79c-1.54,0-2.77,0.46-3.68,1.38v-1.12h-1.77v11.8h1.77v-6.79c0-0.97,0.36-1.8,1.11-2.52
			c0.75-0.73,1.59-1.08,2.57-1.08c0.97,0,1.77,0.35,2.46,1.07c0.69,0.73,1.03,1.56,1.03,2.54v6.79h1.77v-6.79
			c0-1.46-0.51-2.71-1.51-3.73C203.16,80.31,201.9,79.79,200.43,79.79z"/>
		<path class="st0" d="M217.59,81.64c-0.36-0.38-0.78-0.7-1.25-0.98c-0.98-0.56-2.04-0.85-3.17-0.85c-1.7,0-3.17,0.61-4.38,1.81
			c-1.21,1.2-1.83,2.67-1.83,4.35s0.62,3.15,1.83,4.35c1.21,1.2,2.69,1.81,4.38,1.81c1.08,0,2.13-0.29,3.13-0.86
			c0.49-0.28,0.92-0.61,1.29-0.99v0.05c0,1.51-0.41,2.71-1.21,3.56c-0.81,0.86-1.82,1.27-3.09,1.27c-0.83,0-1.67-0.24-2.47-0.7
			c-0.8-0.46-1.4-1.04-1.77-1.72l-0.94-1.74v3.24l0.09,0.13c0.53,0.74,1.27,1.34,2.21,1.79c0.93,0.45,1.9,0.67,2.88,0.67
			c1.8,0,3.28-0.59,4.39-1.76c1.11-1.17,1.67-2.76,1.67-4.74V80.06h-1.77V81.64z M216.32,82.82c0.87,0.89,1.3,1.93,1.3,3.17
			s-0.42,2.27-1.3,3.17c-0.87,0.89-1.89,1.33-3.11,1.33c-1.22,0-2.25-0.44-3.15-1.33c-0.89-0.89-1.33-1.93-1.33-3.16
			s0.43-2.27,1.33-3.16c0.9-0.89,1.93-1.33,3.15-1.33C214.43,81.49,215.45,81.92,216.32,82.82z"/>
		<polygon class="st0" points="107.95,52.29 112.63,52.29 112.63,50.59 107.95,50.59 107.95,41.85 113.57,41.85 113.57,40.15 
			106.16,40.15 106.16,59.15 107.95,59.15 		"/>
		<path class="st0" d="M121.07,49.67l0.85,0.85V48.1l-0.2-0.15c-1.53-1.14-3.36-1.07-4.75-0.27c-0.21,0.12-0.41,0.26-0.59,0.41
			v-0.74h-1.77v11.8h1.77v-7.7c0-0.71,0.27-1.33,0.82-1.88C118.31,48.48,119.84,48.45,121.07,49.67z"/>
		<path class="st0" d="M134.78,53.21c0-1.66-0.61-3.11-1.81-4.31c-1.21-1.2-2.68-1.81-4.38-1.81c-1.71,0-3.18,0.61-4.4,1.81
			c-1.21,1.2-1.83,2.65-1.83,4.3c0,1.65,0.6,3.11,1.8,4.34c1.2,1.24,2.65,1.87,4.32,1.87h0.22c1.69,0,3.14-0.62,4.32-1.86
			C134.19,56.33,134.78,54.87,134.78,53.21z M133.02,53.26c0,1.23-0.42,2.26-1.3,3.15c-0.87,0.89-1.89,1.33-3.11,1.33
			c-1.22,0-2.25-0.43-3.15-1.33c-0.89-0.89-1.33-1.92-1.33-3.14c0-1.22,0.44-2.25,1.33-3.17c0.89-0.91,1.92-1.35,3.14-1.35
			c1.21,0,2.23,0.44,3.11,1.34C132.59,51,133.02,52.03,133.02,53.26z"/>
		<path class="st0" d="M137.83,52.36c0-0.97,0.36-1.8,1.11-2.52c0.75-0.73,1.59-1.08,2.57-1.08c0.97,0,1.77,0.35,2.46,1.07
			c0.69,0.73,1.03,1.56,1.03,2.54v6.79h1.77v-6.79c0-1.46-0.51-2.71-1.51-3.73c-1-1.02-2.26-1.54-3.74-1.54
			c-1.54,0-2.77,0.46-3.68,1.38v-1.12h-1.77v11.8h1.77V52.36z"/>
		<path class="st0" d="M150.99,56.81c-0.55-0.55-0.82-1.22-0.82-2.07v-5.69h3.31v-1.67h-3.31v-4.37h-1.77v11.73
			c0,1.32,0.46,2.42,1.36,3.28c0.89,0.85,1.99,1.28,3.25,1.28h0.5v-1.67H153C152.21,57.62,151.55,57.36,150.99,56.81z"/>
		<rect x="154.25" y="51.37" class="st0" width="6.48" height="2.12"/>
		<path class="st0" d="M168.1,59.44h0.22c1.75,0,3.27-0.68,4.5-2.04l0.13-0.14v-3.05l-0.91,1.36c-0.45,0.67-1.03,1.21-1.72,1.61
			c-0.68,0.39-1.46,0.59-2.33,0.59c-0.7,0-1.45-0.27-2.23-0.8l7.46-7.37l-0.32-0.35c-1.28-1.42-2.83-2.13-4.62-2.13
			c-1.78,0-3.29,0.61-4.5,1.81c-1.21,1.2-1.83,2.65-1.83,4.3c0,1.65,0.62,3.11,1.84,4.35C164.99,58.81,166.45,59.44,168.1,59.44z
			 M168.06,48.78c0.98,0,1.85,0.28,2.64,0.84l-6.19,6.15c-0.55-0.77-0.82-1.63-0.82-2.61c0-1.15,0.43-2.15,1.33-3.04
			S166.92,48.78,168.06,48.78z"/>
		<path class="st0" d="M183.23,52.36v6.79h1.77v-6.79c0-1.46-0.51-2.71-1.51-3.73c-1-1.02-2.26-1.54-3.74-1.54
			c-1.54,0-2.77,0.46-3.68,1.38v-1.12h-1.77v11.8h1.77v-6.79c0-0.97,0.36-1.8,1.11-2.52c0.75-0.73,1.59-1.08,2.57-1.08
			c0.97,0,1.77,0.35,2.46,1.07C182.89,50.55,183.23,51.38,183.23,52.36z"/>
		<path class="st0" d="M192.48,59.41c1.04,0,2.07-0.28,3.06-0.84c0.51-0.29,0.95-0.63,1.34-1.03v1.61h1.77v-19h-1.77v8.78
			c-0.37-0.37-0.79-0.7-1.28-0.98c-0.99-0.57-2.04-0.86-3.12-0.86c-1.71,0-3.19,0.61-4.4,1.81c-1.2,1.2-1.81,2.67-1.81,4.35
			c0,1.68,0.61,3.15,1.81,4.35C189.29,58.8,190.77,59.41,192.48,59.41z M192.46,48.76c1.22,0,2.24,0.44,3.13,1.35
			c0.9,0.91,1.33,1.95,1.33,3.17c0,1.22-0.44,2.24-1.33,3.14c-0.89,0.89-1.92,1.33-3.15,1.33c-1.22,0-2.24-0.43-3.11-1.32
			c-0.87-0.9-1.3-1.93-1.3-3.16c0-1.23,0.43-2.26,1.31-3.17C190.23,49.2,191.25,48.76,192.46,48.76z"/>
		<path class="st0" d="M210.56,40.15h-1.27v19h1.27c2.83,0,5.15-0.94,6.88-2.8c1.72-1.85,2.59-4.1,2.59-6.69
			c0-2.59-0.88-4.84-2.61-6.7C215.69,41.1,213.38,40.15,210.56,40.15z M211.06,57.4V41.87c2.07,0.07,3.73,0.82,5.07,2.28
			c1.4,1.53,2.11,3.38,2.11,5.51c0,2.15-0.69,3.95-2.11,5.48C214.78,56.59,213.12,57.33,211.06,57.4z"/>
		<path class="st0" d="M232.02,49.24c-1.28-1.42-2.83-2.13-4.62-2.13c-1.78,0-3.29,0.61-4.5,1.81c-1.21,1.2-1.83,2.65-1.83,4.3
			c0,1.65,0.62,3.11,1.84,4.35c1.22,1.24,2.68,1.86,4.33,1.86h0.22c1.75,0,3.27-0.68,4.5-2.04l0.13-0.14v-3.05l-0.91,1.36
			c-0.45,0.67-1.03,1.21-1.72,1.61c-0.68,0.39-1.46,0.59-2.33,0.59c-0.7,0-1.45-0.27-2.23-0.8l7.46-7.37L232.02,49.24z M227.2,48.78
			c0.98,0,1.85,0.28,2.64,0.84l-6.19,6.15c-0.55-0.77-0.82-1.63-0.82-2.61c0-1.15,0.43-2.15,1.33-3.04S226.06,48.78,227.2,48.78z"/>
		<path class="st0" d="M238.32,52.15c-0.52-0.32-1.04-0.63-1.55-0.91c-0.47-0.26-0.87-0.55-1.2-0.85c-0.26-0.24-0.38-0.48-0.38-0.74
			c0-0.25,0.1-0.45,0.3-0.63c0.23-0.19,0.48-0.29,0.78-0.29c0.61,0,1.11,0.3,1.53,0.93l0.92,1.37v-2.83l-0.13-0.14
			c-0.61-0.67-1.36-1-2.22-1c-0.84,0-1.54,0.24-2.09,0.71c-0.57,0.49-0.86,1.1-0.86,1.82c0,0.69,0.22,1.3,0.66,1.81
			c0.39,0.46,0.87,0.86,1.42,1.19l1.52,0.9c0.46,0.27,0.86,0.61,1.18,0.99c0.29,0.34,0.42,0.76,0.42,1.28
			c0,0.49-0.22,0.93-0.69,1.34c-0.48,0.43-1.05,0.64-1.76,0.64c-1.14,0-1.95-0.56-2.47-1.72l-0.96-2.11v3.6l0.06,0.11
			c0.3,0.55,0.78,1,1.42,1.32c0.62,0.32,1.3,0.47,2.01,0.47c1.13,0,2.12-0.38,2.92-1.13c0.81-0.76,1.23-1.69,1.23-2.78
			c0-0.75-0.21-1.42-0.64-2C239.38,52.96,238.89,52.51,238.32,52.15z"/>
		<rect x="242" y="47.37" class="st0" width="1.77" height="11.78"/>
		<path class="st0" d="M242.88,43.44c-0.74,0-1.2,0.44-1.2,1.15s0.46,1.15,1.2,1.15c0.74,0,1.2-0.44,1.2-1.15
			S243.62,43.44,242.88,43.44z"/>
		<path class="st0" d="M255.99,48.93c-0.36-0.38-0.78-0.7-1.25-0.98c-0.98-0.56-2.04-0.85-3.17-0.85c-1.7,0-3.17,0.61-4.38,1.81
			c-1.21,1.2-1.83,2.67-1.83,4.35s0.62,3.15,1.83,4.35c1.21,1.2,2.69,1.81,4.38,1.81c1.08,0,2.13-0.29,3.13-0.86
			c0.49-0.28,0.92-0.61,1.29-0.99v0.05c0,1.51-0.41,2.71-1.21,3.56c-0.81,0.86-1.82,1.27-3.09,1.27c-0.83,0-1.67-0.24-2.47-0.7
			c-0.8-0.46-1.4-1.04-1.77-1.72l-0.94-1.74v3.24l0.09,0.13c0.53,0.74,1.27,1.34,2.21,1.79c0.93,0.45,1.9,0.67,2.88,0.67
			c1.8,0,3.28-0.59,4.39-1.76c1.11-1.17,1.67-2.76,1.67-4.74V47.35h-1.77V48.93z M254.72,50.11c0.87,0.89,1.3,1.93,1.3,3.17
			s-0.42,2.27-1.3,3.17c-0.87,0.89-1.89,1.33-3.11,1.33c-1.22,0-2.25-0.44-3.15-1.33c-0.89-0.89-1.33-1.93-1.33-3.16
			s0.43-2.27,1.33-3.16c0.9-0.89,1.93-1.33,3.15-1.33C252.83,48.78,253.85,49.22,254.72,50.11z"/>
		<path class="st0" d="M268.82,48.63c-1-1.02-2.26-1.54-3.74-1.54c-1.54,0-2.77,0.46-3.68,1.38v-1.12h-1.77v11.8h1.77v-6.79
			c0-0.97,0.36-1.8,1.11-2.52c0.75-0.73,1.59-1.08,2.57-1.08c0.97,0,1.77,0.35,2.46,1.07c0.69,0.73,1.03,1.56,1.03,2.54v6.79h1.77
			v-6.79C270.33,50.9,269.83,49.65,268.82,48.63z"/>
	</g>
</g>
</svg>
